# Demon Slayer VFX Pack - SM_VFX_Petal (unites : cm, +X avant, +Z haut dans Unreal)
o SM_VFX_Petal
v 0.0000 1.5000 0.0000
v 3.0000 2.7361 3.0767
v 6.0000 3.8511 4.8256
v 9.0000 4.7361 6.0349
v 12.0000 5.3042 6.7584
v 15.0000 5.5000 7.0000
v 18.0000 5.3042 6.7584
v 21.0000 4.7361 6.0349
v 24.0000 3.8511 4.8256
v 27.0000 2.7361 3.0767
v 30.0000 1.5000 0.0000
v 0.0000 0.3750 0.0000
v 3.0000 1.6111 1.5384
v 6.0000 2.7261 2.4128
v 9.0000 3.6111 3.0174
v 12.0000 4.1792 3.3792
v 15.0000 4.3750 3.5000
v 18.0000 4.1792 3.3792
v 21.0000 3.6111 3.0174
v 24.0000 2.7261 2.4128
v 27.0000 1.6111 1.5384
v 30.0000 0.3750 0.0000
v 0.0000 0.0000 -0.0000
v 3.0000 1.2361 -0.0000
v 6.0000 2.3511 -0.0000
v 9.0000 3.2361 -0.0000
v 12.0000 3.8042 -0.0000
v 15.0000 4.0000 -0.0000
v 18.0000 3.8042 -0.0000
v 21.0000 3.2361 -0.0000
v 24.0000 2.3511 -0.0000
v 27.0000 1.2361 -0.0000
v 30.0000 0.0000 -0.0000
v 0.0000 0.3750 -0.0000
v 3.0000 1.6111 -1.5384
v 6.0000 2.7261 -2.4128
v 9.0000 3.6111 -3.0174
v 12.0000 4.1792 -3.3792
v 15.0000 4.3750 -3.5000
v 18.0000 4.1792 -3.3792
v 21.0000 3.6111 -3.0174
v 24.0000 2.7261 -2.4128
v 27.0000 1.6111 -1.5384
v 30.0000 0.3750 -0.0000
v 0.0000 1.5000 -0.0000
v 3.0000 2.7361 -3.0767
v 6.0000 3.8511 -4.8256
v 9.0000 4.7361 -6.0349
v 12.0000 5.3042 -6.7584
v 15.0000 5.5000 -7.0000
v 18.0000 5.3042 -6.7584
v 21.0000 4.7361 -6.0349
v 24.0000 3.8511 -4.8256
v 27.0000 2.7361 -3.0767
v 30.0000 1.5000 -0.0000
v 0.0000 1.5000 0.0000
v 3.0000 2.7361 3.0767
v 6.0000 3.8511 4.8256
v 9.0000 4.7361 6.0349
v 12.0000 5.3042 6.7584
v 15.0000 5.5000 7.0000
v 18.0000 5.3042 6.7584
v 21.0000 4.7361 6.0349
v 24.0000 3.8511 4.8256
v 27.0000 2.7361 3.0767
v 30.0000 1.5000 0.0000
v 0.0000 0.3750 0.0000
v 3.0000 1.6111 1.5384
v 6.0000 2.7261 2.4128
v 9.0000 3.6111 3.0174
v 12.0000 4.1792 3.3792
v 15.0000 4.3750 3.5000
v 18.0000 4.1792 3.3792
v 21.0000 3.6111 3.0174
v 24.0000 2.7261 2.4128
v 27.0000 1.6111 1.5384
v 30.0000 0.3750 0.0000
v 0.0000 0.0000 -0.0000
v 3.0000 1.2361 -0.0000
v 6.0000 2.3511 -0.0000
v 9.0000 3.2361 -0.0000
v 12.0000 3.8042 -0.0000
v 15.0000 4.0000 -0.0000
v 18.0000 3.8042 -0.0000
v 21.0000 3.2361 -0.0000
v 24.0000 2.3511 -0.0000
v 27.0000 1.2361 -0.0000
v 30.0000 0.0000 -0.0000
v 0.0000 0.3750 -0.0000
v 3.0000 1.6111 -1.5384
v 6.0000 2.7261 -2.4128
v 9.0000 3.6111 -3.0174
v 12.0000 4.1792 -3.3792
v 15.0000 4.3750 -3.5000
v 18.0000 4.1792 -3.3792
v 21.0000 3.6111 -3.0174
v 24.0000 2.7261 -2.4128
v 27.0000 1.6111 -1.5384
v 30.0000 0.3750 -0.0000
v 0.0000 1.5000 -0.0000
v 3.0000 2.7361 -3.0767
v 6.0000 3.8511 -4.8256
v 9.0000 4.7361 -6.0349
v 12.0000 5.3042 -6.7584
v 15.0000 5.5000 -7.0000
v 18.0000 5.3042 -6.7584
v 21.0000 4.7361 -6.0349
v 24.0000 3.8511 -4.8256
v 27.0000 2.7361 -3.0767
v 30.0000 1.5000 -0.0000
vt 0.00000 1.00000
vt 0.10000 1.00000
vt 0.20000 1.00000
vt 0.30000 1.00000
vt 0.40000 1.00000
vt 0.50000 1.00000
vt 0.60000 1.00000
vt 0.70000 1.00000
vt 0.80000 1.00000
vt 0.90000 1.00000
vt 1.00000 1.00000
vt 0.00000 0.75000
vt 0.10000 0.75000
vt 0.20000 0.75000
vt 0.30000 0.75000
vt 0.40000 0.75000
vt 0.50000 0.75000
vt 0.60000 0.75000
vt 0.70000 0.75000
vt 0.80000 0.75000
vt 0.90000 0.75000
vt 1.00000 0.75000
vt 0.00000 0.50000
vt 0.10000 0.50000
vt 0.20000 0.50000
vt 0.30000 0.50000
vt 0.40000 0.50000
vt 0.50000 0.50000
vt 0.60000 0.50000
vt 0.70000 0.50000
vt 0.80000 0.50000
vt 0.90000 0.50000
vt 1.00000 0.50000
vt 0.00000 0.25000
vt 0.10000 0.25000
vt 0.20000 0.25000
vt 0.30000 0.25000
vt 0.40000 0.25000
vt 0.50000 0.25000
vt 0.60000 0.25000
vt 0.70000 0.25000
vt 0.80000 0.25000
vt 0.90000 0.25000
vt 1.00000 0.25000
vt 0.00000 0.00000
vt 0.10000 0.00000
vt 0.20000 0.00000
vt 0.30000 0.00000
vt 0.40000 0.00000
vt 0.50000 0.00000
vt 0.60000 0.00000
vt 0.70000 0.00000
vt 0.80000 0.00000
vt 0.90000 0.00000
vt 1.00000 0.00000
vt 0.00000 1.00000
vt 0.10000 1.00000
vt 0.20000 1.00000
vt 0.30000 1.00000
vt 0.40000 1.00000
vt 0.50000 1.00000
vt 0.60000 1.00000
vt 0.70000 1.00000
vt 0.80000 1.00000
vt 0.90000 1.00000
vt 1.00000 1.00000
vt 0.00000 0.75000
vt 0.10000 0.75000
vt 0.20000 0.75000
vt 0.30000 0.75000
vt 0.40000 0.75000
vt 0.50000 0.75000
vt 0.60000 0.75000
vt 0.70000 0.75000
vt 0.80000 0.75000
vt 0.90000 0.75000
vt 1.00000 0.75000
vt 0.00000 0.50000
vt 0.10000 0.50000
vt 0.20000 0.50000
vt 0.30000 0.50000
vt 0.40000 0.50000
vt 0.50000 0.50000
vt 0.60000 0.50000
vt 0.70000 0.50000
vt 0.80000 0.50000
vt 0.90000 0.50000
vt 1.00000 0.50000
vt 0.00000 0.25000
vt 0.10000 0.25000
vt 0.20000 0.25000
vt 0.30000 0.25000
vt 0.40000 0.25000
vt 0.50000 0.25000
vt 0.60000 0.25000
vt 0.70000 0.25000
vt 0.80000 0.25000
vt 0.90000 0.25000
vt 1.00000 0.25000
vt 0.00000 0.00000
vt 0.10000 0.00000
vt 0.20000 0.00000
vt 0.30000 0.00000
vt 0.40000 0.00000
vt 0.50000 0.00000
vt 0.60000 0.00000
vt 0.70000 0.00000
vt 0.80000 0.00000
vt 0.90000 0.00000
vt 1.00000 0.00000
vn 0.00000 1.00000 0.00000
vn 0.00000 1.00000 0.00000
vn 0.00000 1.00000 0.00000
vn 0.00000 1.00000 0.00000
vn 0.00000 1.00000 0.00000
vn 0.00000 1.00000 0.00000
vn 0.00000 1.00000 0.00000
vn 0.00000 1.00000 0.00000
vn 0.00000 1.00000 0.00000
vn 0.00000 1.00000 0.00000
vn 0.00000 1.00000 0.00000
vn 0.00000 1.00000 0.00000
vn 0.00000 1.00000 0.00000
vn 0.00000 1.00000 0.00000
vn 0.00000 1.00000 0.00000
vn 0.00000 1.00000 0.00000
vn 0.00000 1.00000 0.00000
vn 0.00000 1.00000 0.00000
vn 0.00000 1.00000 0.00000
vn 0.00000 1.00000 0.00000
vn 0.00000 1.00000 0.00000
vn 0.00000 1.00000 0.00000
vn 0.00000 1.00000 0.00000
vn 0.00000 1.00000 0.00000
vn 0.00000 1.00000 0.00000
vn 0.00000 1.00000 0.00000
vn 0.00000 1.00000 0.00000
vn 0.00000 1.00000 0.00000
vn 0.00000 1.00000 0.00000
vn 0.00000 1.00000 0.00000
vn 0.00000 1.00000 0.00000
vn 0.00000 1.00000 0.00000
vn 0.00000 1.00000 0.00000
vn 0.00000 1.00000 0.00000
vn 0.00000 1.00000 0.00000
vn 0.00000 1.00000 0.00000
vn 0.00000 1.00000 0.00000
vn 0.00000 1.00000 0.00000
vn 0.00000 1.00000 0.00000
vn 0.00000 1.00000 0.00000
vn 0.00000 1.00000 0.00000
vn 0.00000 1.00000 0.00000
vn 0.00000 1.00000 0.00000
vn 0.00000 1.00000 0.00000
vn 0.00000 1.00000 0.00000
vn 0.00000 1.00000 0.00000
vn 0.00000 1.00000 0.00000
vn 0.00000 1.00000 0.00000
vn 0.00000 1.00000 0.00000
vn 0.00000 1.00000 0.00000
vn 0.00000 1.00000 0.00000
vn 0.00000 1.00000 0.00000
vn 0.00000 1.00000 0.00000
vn 0.00000 1.00000 0.00000
vn 0.00000 1.00000 0.00000
vn -0.00000 -1.00000 -0.00000
vn -0.00000 -1.00000 -0.00000
vn -0.00000 -1.00000 -0.00000
vn -0.00000 -1.00000 -0.00000
vn -0.00000 -1.00000 -0.00000
vn -0.00000 -1.00000 -0.00000
vn -0.00000 -1.00000 -0.00000
vn -0.00000 -1.00000 -0.00000
vn -0.00000 -1.00000 -0.00000
vn -0.00000 -1.00000 -0.00000
vn -0.00000 -1.00000 -0.00000
vn -0.00000 -1.00000 -0.00000
vn -0.00000 -1.00000 -0.00000
vn -0.00000 -1.00000 -0.00000
vn -0.00000 -1.00000 -0.00000
vn -0.00000 -1.00000 -0.00000
vn -0.00000 -1.00000 -0.00000
vn -0.00000 -1.00000 -0.00000
vn -0.00000 -1.00000 -0.00000
vn -0.00000 -1.00000 -0.00000
vn -0.00000 -1.00000 -0.00000
vn -0.00000 -1.00000 -0.00000
vn -0.00000 -1.00000 -0.00000
vn -0.00000 -1.00000 -0.00000
vn -0.00000 -1.00000 -0.00000
vn -0.00000 -1.00000 -0.00000
vn -0.00000 -1.00000 -0.00000
vn -0.00000 -1.00000 -0.00000
vn -0.00000 -1.00000 -0.00000
vn -0.00000 -1.00000 -0.00000
vn -0.00000 -1.00000 -0.00000
vn -0.00000 -1.00000 -0.00000
vn -0.00000 -1.00000 -0.00000
vn -0.00000 -1.00000 -0.00000
vn -0.00000 -1.00000 -0.00000
vn -0.00000 -1.00000 -0.00000
vn -0.00000 -1.00000 -0.00000
vn -0.00000 -1.00000 -0.00000
vn -0.00000 -1.00000 -0.00000
vn -0.00000 -1.00000 -0.00000
vn -0.00000 -1.00000 -0.00000
vn -0.00000 -1.00000 -0.00000
vn -0.00000 -1.00000 -0.00000
vn -0.00000 -1.00000 -0.00000
vn -0.00000 -1.00000 -0.00000
vn -0.00000 -1.00000 -0.00000
vn -0.00000 -1.00000 -0.00000
vn -0.00000 -1.00000 -0.00000
vn -0.00000 -1.00000 -0.00000
vn -0.00000 -1.00000 -0.00000
vn -0.00000 -1.00000 -0.00000
vn -0.00000 -1.00000 -0.00000
vn -0.00000 -1.00000 -0.00000
vn -0.00000 -1.00000 -0.00000
vn -0.00000 -1.00000 -0.00000
f 1/1/1 2/2/2 13/13/13
f 1/1/1 13/13/13 12/12/12
f 2/2/2 3/3/3 14/14/14
f 2/2/2 14/14/14 13/13/13
f 3/3/3 4/4/4 15/15/15
f 3/3/3 15/15/15 14/14/14
f 4/4/4 5/5/5 16/16/16
f 4/4/4 16/16/16 15/15/15
f 5/5/5 6/6/6 17/17/17
f 5/5/5 17/17/17 16/16/16
f 6/6/6 7/7/7 18/18/18
f 6/6/6 18/18/18 17/17/17
f 7/7/7 8/8/8 19/19/19
f 7/7/7 19/19/19 18/18/18
f 8/8/8 9/9/9 20/20/20
f 8/8/8 20/20/20 19/19/19
f 9/9/9 10/10/10 21/21/21
f 9/9/9 21/21/21 20/20/20
f 10/10/10 11/11/11 22/22/22
f 10/10/10 22/22/22 21/21/21
f 12/12/12 13/13/13 24/24/24
f 12/12/12 24/24/24 23/23/23
f 13/13/13 14/14/14 25/25/25
f 13/13/13 25/25/25 24/24/24
f 14/14/14 15/15/15 26/26/26
f 14/14/14 26/26/26 25/25/25
f 15/15/15 16/16/16 27/27/27
f 15/15/15 27/27/27 26/26/26
f 16/16/16 17/17/17 28/28/28
f 16/16/16 28/28/28 27/27/27
f 17/17/17 18/18/18 29/29/29
f 17/17/17 29/29/29 28/28/28
f 18/18/18 19/19/19 30/30/30
f 18/18/18 30/30/30 29/29/29
f 19/19/19 20/20/20 31/31/31
f 19/19/19 31/31/31 30/30/30
f 20/20/20 21/21/21 32/32/32
f 20/20/20 32/32/32 31/31/31
f 21/21/21 22/22/22 33/33/33
f 21/21/21 33/33/33 32/32/32
f 23/23/23 24/24/24 35/35/35
f 23/23/23 35/35/35 34/34/34
f 24/24/24 25/25/25 36/36/36
f 24/24/24 36/36/36 35/35/35
f 25/25/25 26/26/26 37/37/37
f 25/25/25 37/37/37 36/36/36
f 26/26/26 27/27/27 38/38/38
f 26/26/26 38/38/38 37/37/37
f 27/27/27 28/28/28 39/39/39
f 27/27/27 39/39/39 38/38/38
f 28/28/28 29/29/29 40/40/40
f 28/28/28 40/40/40 39/39/39
f 29/29/29 30/30/30 41/41/41
f 29/29/29 41/41/41 40/40/40
f 30/30/30 31/31/31 42/42/42
f 30/30/30 42/42/42 41/41/41
f 31/31/31 32/32/32 43/43/43
f 31/31/31 43/43/43 42/42/42
f 32/32/32 33/33/33 44/44/44
f 32/32/32 44/44/44 43/43/43
f 34/34/34 35/35/35 46/46/46
f 34/34/34 46/46/46 45/45/45
f 35/35/35 36/36/36 47/47/47
f 35/35/35 47/47/47 46/46/46
f 36/36/36 37/37/37 48/48/48
f 36/36/36 48/48/48 47/47/47
f 37/37/37 38/38/38 49/49/49
f 37/37/37 49/49/49 48/48/48
f 38/38/38 39/39/39 50/50/50
f 38/38/38 50/50/50 49/49/49
f 39/39/39 40/40/40 51/51/51
f 39/39/39 51/51/51 50/50/50
f 40/40/40 41/41/41 52/52/52
f 40/40/40 52/52/52 51/51/51
f 41/41/41 42/42/42 53/53/53
f 41/41/41 53/53/53 52/52/52
f 42/42/42 43/43/43 54/54/54
f 42/42/42 54/54/54 53/53/53
f 43/43/43 44/44/44 55/55/55
f 43/43/43 55/55/55 54/54/54
f 56/56/56 67/67/67 68/68/68
f 56/56/56 68/68/68 57/57/57
f 57/57/57 68/68/68 69/69/69
f 57/57/57 69/69/69 58/58/58
f 58/58/58 69/69/69 70/70/70
f 58/58/58 70/70/70 59/59/59
f 59/59/59 70/70/70 71/71/71
f 59/59/59 71/71/71 60/60/60
f 60/60/60 71/71/71 72/72/72
f 60/60/60 72/72/72 61/61/61
f 61/61/61 72/72/72 73/73/73
f 61/61/61 73/73/73 62/62/62
f 62/62/62 73/73/73 74/74/74
f 62/62/62 74/74/74 63/63/63
f 63/63/63 74/74/74 75/75/75
f 63/63/63 75/75/75 64/64/64
f 64/64/64 75/75/75 76/76/76
f 64/64/64 76/76/76 65/65/65
f 65/65/65 76/76/76 77/77/77
f 65/65/65 77/77/77 66/66/66
f 67/67/67 78/78/78 79/79/79
f 67/67/67 79/79/79 68/68/68
f 68/68/68 79/79/79 80/80/80
f 68/68/68 80/80/80 69/69/69
f 69/69/69 80/80/80 81/81/81
f 69/69/69 81/81/81 70/70/70
f 70/70/70 81/81/81 82/82/82
f 70/70/70 82/82/82 71/71/71
f 71/71/71 82/82/82 83/83/83
f 71/71/71 83/83/83 72/72/72
f 72/72/72 83/83/83 84/84/84
f 72/72/72 84/84/84 73/73/73
f 73/73/73 84/84/84 85/85/85
f 73/73/73 85/85/85 74/74/74
f 74/74/74 85/85/85 86/86/86
f 74/74/74 86/86/86 75/75/75
f 75/75/75 86/86/86 87/87/87
f 75/75/75 87/87/87 76/76/76
f 76/76/76 87/87/87 88/88/88
f 76/76/76 88/88/88 77/77/77
f 78/78/78 89/89/89 90/90/90
f 78/78/78 90/90/90 79/79/79
f 79/79/79 90/90/90 91/91/91
f 79/79/79 91/91/91 80/80/80
f 80/80/80 91/91/91 92/92/92
f 80/80/80 92/92/92 81/81/81
f 81/81/81 92/92/92 93/93/93
f 81/81/81 93/93/93 82/82/82
f 82/82/82 93/93/93 94/94/94
f 82/82/82 94/94/94 83/83/83
f 83/83/83 94/94/94 95/95/95
f 83/83/83 95/95/95 84/84/84
f 84/84/84 95/95/95 96/96/96
f 84/84/84 96/96/96 85/85/85
f 85/85/85 96/96/96 97/97/97
f 85/85/85 97/97/97 86/86/86
f 86/86/86 97/97/97 98/98/98
f 86/86/86 98/98/98 87/87/87
f 87/87/87 98/98/98 99/99/99
f 87/87/87 99/99/99 88/88/88
f 89/89/89 100/100/100 101/101/101
f 89/89/89 101/101/101 90/90/90
f 90/90/90 101/101/101 102/102/102
f 90/90/90 102/102/102 91/91/91
f 91/91/91 102/102/102 103/103/103
f 91/91/91 103/103/103 92/92/92
f 92/92/92 103/103/103 104/104/104
f 92/92/92 104/104/104 93/93/93
f 93/93/93 104/104/104 105/105/105
f 93/93/93 105/105/105 94/94/94
f 94/94/94 105/105/105 106/106/106
f 94/94/94 106/106/106 95/95/95
f 95/95/95 106/106/106 107/107/107
f 95/95/95 107/107/107 96/96/96
f 96/96/96 107/107/107 108/108/108
f 96/96/96 108/108/108 97/97/97
f 97/97/97 108/108/108 109/109/109
f 97/97/97 109/109/109 98/98/98
f 98/98/98 109/109/109 110/110/110
f 98/98/98 110/110/110 99/99/99
