# Demon Slayer VFX Pack - SM_VFX_Slash_Arc_360 (unites : cm, +X avant, +Z haut dans Unreal)
o SM_VFX_Slash_Arc_360
v -149.9943 -0.0000 1.3090
v -149.1481 -0.0000 15.9640
v -146.8735 -0.0000 30.4662
v -143.1922 -0.0000 44.6765
v -138.1396 -0.0000 58.4590
v -131.7640 -0.0000 71.6816
v -124.1264 -0.0000 84.2178
v -115.3001 -0.0000 95.9473
v -105.3695 -0.0000 106.7579
v -94.4298 -0.0000 116.5461
v -82.5858 -0.0000 125.2182
v -69.9508 -0.0000 132.6910
v -56.6458 -0.0000 138.8929
v -42.7984 -0.0000 143.7647
v -28.5410 -0.0000 147.2597
v -14.0104 -0.0000 149.3443
v 0.6545 -0.0000 149.9986
v 15.3131 -0.0000 149.2163
v 29.8250 -0.0000 147.0050
v 44.0513 -0.0000 143.3858
v 57.8557 -0.0000 138.3933
v 71.1060 -0.0000 132.0755
v 83.6753 -0.0000 124.4927
v 95.4433 -0.0000 115.7177
v 106.2972 -0.0000 105.8344
v 116.1330 -0.0000 94.9375
v 124.8566 -0.0000 83.1314
v 132.3845 -0.0000 70.5291
v 138.6445 -0.0000 57.2513
v 143.5766 -0.0000 43.4253
v 147.1337 -0.0000 29.1833
v 149.2817 -0.0000 14.6619
v 150.0000 0.0000 -0.0000
v 149.2817 0.0000 -14.6619
v 147.1337 0.0000 -29.1833
v 143.5766 0.0000 -43.4253
v 138.6445 0.0000 -57.2513
v 132.3845 0.0000 -70.5291
v 124.8566 0.0000 -83.1314
v 116.1330 0.0000 -94.9375
v 106.2972 0.0000 -105.8344
v 95.4433 0.0000 -115.7177
v 83.6753 0.0000 -124.4927
v 71.1060 0.0000 -132.0755
v 57.8557 0.0000 -138.3933
v 44.0513 0.0000 -143.3858
v 29.8250 0.0000 -147.0050
v 15.3131 0.0000 -149.2163
v 0.6545 0.0000 -149.9986
v -14.0104 0.0000 -149.3443
v -28.5410 0.0000 -147.2597
v -42.7984 0.0000 -143.7647
v -56.6458 0.0000 -138.8929
v -69.9508 0.0000 -132.6910
v -82.5858 0.0000 -125.2182
v -94.4298 0.0000 -116.5461
v -105.3695 0.0000 -106.7579
v -115.3001 0.0000 -95.9473
v -124.1264 0.0000 -84.2178
v -131.7640 0.0000 -71.6816
v -138.1396 0.0000 -58.4590
v -143.1922 0.0000 -44.6765
v -146.8735 0.0000 -30.4662
v -149.1481 0.0000 -15.9640
v -149.9943 0.0000 -1.3090
v -167.4936 -0.0000 1.4617
v -166.5487 -0.0000 17.8265
v -164.0087 -0.0000 34.0205
v -159.8980 -0.0000 49.8888
v -154.2559 -0.0000 65.2792
v -147.1364 -0.0000 80.0445
v -138.6078 -0.0000 94.0432
v -128.7518 -0.0000 107.1411
v -117.6627 -0.0000 119.2130
v -105.4467 -0.0000 130.1432
v -92.2208 -0.0000 139.8270
v -78.1117 -0.0000 148.1716
v -63.2545 -0.0000 155.0971
v -47.7915 -0.0000 160.5373
v -31.8708 -0.0000 164.4400
v -15.6449 -0.0000 166.7678
v 0.7309 -0.0000 167.4984
v 17.0996 -0.0000 166.6249
v 33.3046 -0.0000 164.1556
v 49.1906 -0.0000 160.1141
v 64.6055 -0.0000 154.5392
v 79.4017 -0.0000 147.4843
v 93.4375 -0.0000 139.0169
v 106.5783 -0.0000 129.2181
v 118.6985 -0.0000 118.1817
v 129.6819 -0.0000 106.0135
v 139.4232 -0.0000 92.8300
v 147.8293 -0.0000 78.7575
v 154.8197 -0.0000 63.9306
v 160.3272 -0.0000 48.4915
v 164.2993 -0.0000 32.5880
v 166.6979 -0.0000 16.3724
v 167.5000 0.0000 -0.0000
v 166.6979 0.0000 -16.3724
v 164.2993 0.0000 -32.5880
v 160.3272 0.0000 -48.4915
v 154.8197 0.0000 -63.9306
v 147.8293 0.0000 -78.7575
v 139.4232 0.0000 -92.8300
v 129.6819 0.0000 -106.0135
v 118.6985 0.0000 -118.1817
v 106.5783 0.0000 -129.2181
v 93.4375 0.0000 -139.0169
v 79.4017 0.0000 -147.4843
v 64.6055 0.0000 -154.5392
v 49.1906 0.0000 -160.1141
v 33.3046 0.0000 -164.1556
v 17.0996 0.0000 -166.6249
v 0.7309 0.0000 -167.4984
v -15.6449 0.0000 -166.7678
v -31.8708 0.0000 -164.4400
v -47.7915 0.0000 -160.5373
v -63.2545 0.0000 -155.0971
v -78.1117 0.0000 -148.1716
v -92.2208 0.0000 -139.8270
v -105.4467 0.0000 -130.1432
v -117.6627 0.0000 -119.2130
v -128.7518 0.0000 -107.1411
v -138.6078 0.0000 -94.0432
v -147.1364 0.0000 -80.0445
v -154.2559 0.0000 -65.2792
v -159.8980 0.0000 -49.8888
v -164.0087 0.0000 -34.0205
v -166.5487 0.0000 -17.8265
v -167.4936 0.0000 -1.4617
v -184.9930 -0.0000 1.6144
v -183.9493 -0.0000 19.6890
v -181.1439 -0.0000 37.5749
v -176.6037 -0.0000 55.1010
v -170.3721 -0.0000 72.0995
v -162.5089 -0.0000 88.4074
v -153.0893 -0.0000 103.8686
v -142.2035 -0.0000 118.3350
v -129.9558 -0.0000 131.6681
v -116.4635 -0.0000 143.7402
v -101.8558 -0.0000 154.4357
v -86.2726 -0.0000 163.6522
v -69.8632 -0.0000 171.3013
v -52.7847 -0.0000 177.3098
v -35.2006 -0.0000 181.6203
v -17.2794 -0.0000 184.1913
v 0.8072 -0.0000 184.9982
v 18.8861 -0.0000 184.0335
v 36.7842 -0.0000 181.3062
v 54.3299 -0.0000 176.8425
v 71.3554 -0.0000 170.6851
v 87.6974 -0.0000 162.8931
v 103.1996 -0.0000 153.5410
v 117.7134 -0.0000 142.7185
v 131.0998 -0.0000 130.5290
v 143.2307 -0.0000 117.0896
v 153.9898 -0.0000 102.5287
v 163.2742 -0.0000 86.9858
v 170.9948 -0.0000 70.6100
v 177.0778 -0.0000 53.5578
v 181.4649 -0.0000 35.9927
v 184.1141 -0.0000 18.0830
v 185.0000 0.0000 -0.0000
v 184.1141 0.0000 -18.0830
v 181.4649 0.0000 -35.9927
v 177.0778 0.0000 -53.5578
v 170.9948 0.0000 -70.6100
v 163.2742 0.0000 -86.9858
v 153.9898 0.0000 -102.5287
v 143.2307 0.0000 -117.0896
v 131.0998 0.0000 -130.5290
v 117.7134 0.0000 -142.7185
v 103.1996 0.0000 -153.5410
v 87.6974 0.0000 -162.8931
v 71.3554 0.0000 -170.6851
v 54.3299 0.0000 -176.8425
v 36.7842 0.0000 -181.3062
v 18.8861 0.0000 -184.0335
v 0.8072 0.0000 -184.9982
v -17.2794 0.0000 -184.1913
v -35.2006 0.0000 -181.6203
v -52.7847 0.0000 -177.3098
v -69.8632 0.0000 -171.3013
v -86.2726 0.0000 -163.6522
v -101.8558 0.0000 -154.4357
v -116.4635 0.0000 -143.7402
v -129.9558 0.0000 -131.6681
v -142.2035 0.0000 -118.3350
v -153.0893 0.0000 -103.8686
v -162.5089 0.0000 -88.4074
v -170.3721 0.0000 -72.0995
v -176.6037 0.0000 -55.1010
v -181.1439 0.0000 -37.5749
v -183.9493 0.0000 -19.6890
v -184.9930 0.0000 -1.6144
v -202.4923 -0.0000 1.7671
v -201.3499 -0.0000 21.5514
v -198.2792 -0.0000 41.1293
v -193.3095 -0.0000 60.3133
v -186.4884 -0.0000 78.9197
v -177.8814 -0.0000 96.7702
v -167.5707 -0.0000 113.6940
v -155.6552 -0.0000 129.5289
v -142.2489 -0.0000 144.1232
v -127.4803 -0.0000 157.3373
v -111.4908 -0.0000 169.0445
v -94.4335 -0.0000 179.1328
v -76.4719 -0.0000 187.5055
v -57.7778 -0.0000 194.0824
v -38.5304 -0.0000 198.8005
v -18.9140 -0.0000 201.6148
v 0.8836 -0.0000 202.4981
v 20.6727 -0.0000 201.4420
v 40.2638 -0.0000 198.4567
v 59.4693 -0.0000 193.5708
v 78.1052 -0.0000 186.8310
v 95.9931 -0.0000 178.3019
v 112.9617 -0.0000 168.0652
v 128.8484 -0.0000 156.2188
v 143.5012 -0.0000 142.8764
v 156.7796 -0.0000 128.1656
v 168.5565 -0.0000 112.2273
v 178.7191 -0.0000 95.2142
v 187.1700 -0.0000 77.2893
v 193.8284 -0.0000 58.6241
v 198.6305 -0.0000 39.3975
v 201.5303 -0.0000 19.7935
v 202.5000 0.0000 -0.0000
v 201.5303 0.0000 -19.7935
v 198.6305 0.0000 -39.3975
v 193.8284 0.0000 -58.6241
v 187.1700 0.0000 -77.2893
v 178.7191 0.0000 -95.2142
v 168.5565 0.0000 -112.2273
v 156.7796 0.0000 -128.1656
v 143.5012 0.0000 -142.8764
v 128.8484 0.0000 -156.2188
v 112.9617 0.0000 -168.0652
v 95.9931 0.0000 -178.3019
v 78.1052 0.0000 -186.8310
v 59.4693 0.0000 -193.5708
v 40.2638 0.0000 -198.4567
v 20.6727 0.0000 -201.4420
v 0.8836 0.0000 -202.4981
v -18.9140 0.0000 -201.6148
v -38.5304 0.0000 -198.8005
v -57.7778 0.0000 -194.0824
v -76.4719 0.0000 -187.5055
v -94.4335 0.0000 -179.1328
v -111.4908 0.0000 -169.0445
v -127.4803 0.0000 -157.3373
v -142.2489 0.0000 -144.1232
v -155.6552 0.0000 -129.5289
v -167.5707 0.0000 -113.6940
v -177.8814 0.0000 -96.7702
v -186.4884 0.0000 -78.9197
v -193.3095 0.0000 -60.3133
v -198.2792 0.0000 -41.1293
v -201.3499 0.0000 -21.5514
v -202.4923 0.0000 -1.7671
v -219.9916 -0.0000 1.9198
v -218.7505 -0.0000 23.4139
v -215.4144 -0.0000 44.6837
v -210.0152 -0.0000 65.5256
v -202.6047 -0.0000 85.7399
v -193.2538 -0.0000 105.1331
v -182.0521 -0.0000 123.5194
v -169.1068 -0.0000 140.7227
v -154.5420 -0.0000 156.5783
v -138.4971 -0.0000 170.9343
v -121.1258 -0.0000 183.6533
v -102.5944 -0.0000 194.6134
v -83.0805 -0.0000 203.7097
v -62.7709 -0.0000 210.8549
v -41.8602 -0.0000 215.9808
v -20.5485 -0.0000 219.0383
v 0.9599 -0.0000 219.9979
v 22.4592 -0.0000 218.8506
v 43.7434 -0.0000 215.6073
v 64.6086 -0.0000 210.2991
v 84.8550 -0.0000 202.9769
v 104.2888 -0.0000 193.7107
v 122.7238 -0.0000 182.5893
v 139.9835 -0.0000 169.7192
v 155.9025 -0.0000 155.2237
v 170.3284 -0.0000 139.2416
v 183.1231 -0.0000 121.9260
v 194.1639 -0.0000 103.4426
v 203.3452 -0.0000 83.9686
v 210.5791 -0.0000 63.6904
v 215.7961 -0.0000 42.8022
v 218.9465 -0.0000 21.5041
v 220.0000 0.0000 -0.0000
v 218.9465 0.0000 -21.5041
v 215.7961 0.0000 -42.8022
v 210.5791 0.0000 -63.6904
v 203.3452 0.0000 -83.9686
v 194.1639 0.0000 -103.4426
v 183.1231 0.0000 -121.9260
v 170.3284 0.0000 -139.2416
v 155.9025 0.0000 -155.2237
v 139.9835 0.0000 -169.7192
v 122.7238 0.0000 -182.5893
v 104.2888 0.0000 -193.7107
v 84.8550 0.0000 -202.9769
v 64.6086 0.0000 -210.2991
v 43.7434 0.0000 -215.6073
v 22.4592 0.0000 -218.8506
v 0.9599 0.0000 -219.9979
v -20.5485 0.0000 -219.0383
v -41.8602 0.0000 -215.9808
v -62.7709 0.0000 -210.8549
v -83.0805 0.0000 -203.7097
v -102.5944 0.0000 -194.6134
v -121.1258 0.0000 -183.6533
v -138.4971 0.0000 -170.9343
v -154.5420 0.0000 -156.5783
v -169.1068 0.0000 -140.7227
v -182.0521 0.0000 -123.5194
v -193.2538 0.0000 -105.1331
v -202.6047 0.0000 -85.7399
v -210.0152 0.0000 -65.5256
v -215.4144 0.0000 -44.6837
v -218.7505 0.0000 -23.4139
v -219.9916 0.0000 -1.9198
v -149.9943 -0.0000 1.3090
v -149.1481 -0.0000 15.9640
v -146.8735 -0.0000 30.4662
v -143.1922 -0.0000 44.6765
v -138.1396 -0.0000 58.4590
v -131.7640 -0.0000 71.6816
v -124.1264 -0.0000 84.2178
v -115.3001 -0.0000 95.9473
v -105.3695 -0.0000 106.7579
v -94.4298 -0.0000 116.5461
v -82.5858 -0.0000 125.2182
v -69.9508 -0.0000 132.6910
v -56.6458 -0.0000 138.8929
v -42.7984 -0.0000 143.7647
v -28.5410 -0.0000 147.2597
v -14.0104 -0.0000 149.3443
v 0.6545 -0.0000 149.9986
v 15.3131 -0.0000 149.2163
v 29.8250 -0.0000 147.0050
v 44.0513 -0.0000 143.3858
v 57.8557 -0.0000 138.3933
v 71.1060 -0.0000 132.0755
v 83.6753 -0.0000 124.4927
v 95.4433 -0.0000 115.7177
v 106.2972 -0.0000 105.8344
v 116.1330 -0.0000 94.9375
v 124.8566 -0.0000 83.1314
v 132.3845 -0.0000 70.5291
v 138.6445 -0.0000 57.2513
v 143.5766 -0.0000 43.4253
v 147.1337 -0.0000 29.1833
v 149.2817 -0.0000 14.6619
v 150.0000 0.0000 -0.0000
v 149.2817 0.0000 -14.6619
v 147.1337 0.0000 -29.1833
v 143.5766 0.0000 -43.4253
v 138.6445 0.0000 -57.2513
v 132.3845 0.0000 -70.5291
v 124.8566 0.0000 -83.1314
v 116.1330 0.0000 -94.9375
v 106.2972 0.0000 -105.8344
v 95.4433 0.0000 -115.7177
v 83.6753 0.0000 -124.4927
v 71.1060 0.0000 -132.0755
v 57.8557 0.0000 -138.3933
v 44.0513 0.0000 -143.3858
v 29.8250 0.0000 -147.0050
v 15.3131 0.0000 -149.2163
v 0.6545 0.0000 -149.9986
v -14.0104 0.0000 -149.3443
v -28.5410 0.0000 -147.2597
v -42.7984 0.0000 -143.7647
v -56.6458 0.0000 -138.8929
v -69.9508 0.0000 -132.6910
v -82.5858 0.0000 -125.2182
v -94.4298 0.0000 -116.5461
v -105.3695 0.0000 -106.7579
v -115.3001 0.0000 -95.9473
v -124.1264 0.0000 -84.2178
v -131.7640 0.0000 -71.6816
v -138.1396 0.0000 -58.4590
v -143.1922 0.0000 -44.6765
v -146.8735 0.0000 -30.4662
v -149.1481 0.0000 -15.9640
v -149.9943 0.0000 -1.3090
v -167.4936 -0.0000 1.4617
v -166.5487 -0.0000 17.8265
v -164.0087 -0.0000 34.0205
v -159.8980 -0.0000 49.8888
v -154.2559 -0.0000 65.2792
v -147.1364 -0.0000 80.0445
v -138.6078 -0.0000 94.0432
v -128.7518 -0.0000 107.1411
v -117.6627 -0.0000 119.2130
v -105.4467 -0.0000 130.1432
v -92.2208 -0.0000 139.8270
v -78.1117 -0.0000 148.1716
v -63.2545 -0.0000 155.0971
v -47.7915 -0.0000 160.5373
v -31.8708 -0.0000 164.4400
v -15.6449 -0.0000 166.7678
v 0.7309 -0.0000 167.4984
v 17.0996 -0.0000 166.6249
v 33.3046 -0.0000 164.1556
v 49.1906 -0.0000 160.1141
v 64.6055 -0.0000 154.5392
v 79.4017 -0.0000 147.4843
v 93.4375 -0.0000 139.0169
v 106.5783 -0.0000 129.2181
v 118.6985 -0.0000 118.1817
v 129.6819 -0.0000 106.0135
v 139.4232 -0.0000 92.8300
v 147.8293 -0.0000 78.7575
v 154.8197 -0.0000 63.9306
v 160.3272 -0.0000 48.4915
v 164.2993 -0.0000 32.5880
v 166.6979 -0.0000 16.3724
v 167.5000 0.0000 -0.0000
v 166.6979 0.0000 -16.3724
v 164.2993 0.0000 -32.5880
v 160.3272 0.0000 -48.4915
v 154.8197 0.0000 -63.9306
v 147.8293 0.0000 -78.7575
v 139.4232 0.0000 -92.8300
v 129.6819 0.0000 -106.0135
v 118.6985 0.0000 -118.1817
v 106.5783 0.0000 -129.2181
v 93.4375 0.0000 -139.0169
v 79.4017 0.0000 -147.4843
v 64.6055 0.0000 -154.5392
v 49.1906 0.0000 -160.1141
v 33.3046 0.0000 -164.1556
v 17.0996 0.0000 -166.6249
v 0.7309 0.0000 -167.4984
v -15.6449 0.0000 -166.7678
v -31.8708 0.0000 -164.4400
v -47.7915 0.0000 -160.5373
v -63.2545 0.0000 -155.0971
v -78.1117 0.0000 -148.1716
v -92.2208 0.0000 -139.8270
v -105.4467 0.0000 -130.1432
v -117.6627 0.0000 -119.2130
v -128.7518 0.0000 -107.1411
v -138.6078 0.0000 -94.0432
v -147.1364 0.0000 -80.0445
v -154.2559 0.0000 -65.2792
v -159.8980 0.0000 -49.8888
v -164.0087 0.0000 -34.0205
v -166.5487 0.0000 -17.8265
v -167.4936 0.0000 -1.4617
v -184.9930 -0.0000 1.6144
v -183.9493 -0.0000 19.6890
v -181.1439 -0.0000 37.5749
v -176.6037 -0.0000 55.1010
v -170.3721 -0.0000 72.0995
v -162.5089 -0.0000 88.4074
v -153.0893 -0.0000 103.8686
v -142.2035 -0.0000 118.3350
v -129.9558 -0.0000 131.6681
v -116.4635 -0.0000 143.7402
v -101.8558 -0.0000 154.4357
v -86.2726 -0.0000 163.6522
v -69.8632 -0.0000 171.3013
v -52.7847 -0.0000 177.3098
v -35.2006 -0.0000 181.6203
v -17.2794 -0.0000 184.1913
v 0.8072 -0.0000 184.9982
v 18.8861 -0.0000 184.0335
v 36.7842 -0.0000 181.3062
v 54.3299 -0.0000 176.8425
v 71.3554 -0.0000 170.6851
v 87.6974 -0.0000 162.8931
v 103.1996 -0.0000 153.5410
v 117.7134 -0.0000 142.7185
v 131.0998 -0.0000 130.5290
v 143.2307 -0.0000 117.0896
v 153.9898 -0.0000 102.5287
v 163.2742 -0.0000 86.9858
v 170.9948 -0.0000 70.6100
v 177.0778 -0.0000 53.5578
v 181.4649 -0.0000 35.9927
v 184.1141 -0.0000 18.0830
v 185.0000 0.0000 -0.0000
v 184.1141 0.0000 -18.0830
v 181.4649 0.0000 -35.9927
v 177.0778 0.0000 -53.5578
v 170.9948 0.0000 -70.6100
v 163.2742 0.0000 -86.9858
v 153.9898 0.0000 -102.5287
v 143.2307 0.0000 -117.0896
v 131.0998 0.0000 -130.5290
v 117.7134 0.0000 -142.7185
v 103.1996 0.0000 -153.5410
v 87.6974 0.0000 -162.8931
v 71.3554 0.0000 -170.6851
v 54.3299 0.0000 -176.8425
v 36.7842 0.0000 -181.3062
v 18.8861 0.0000 -184.0335
v 0.8072 0.0000 -184.9982
v -17.2794 0.0000 -184.1913
v -35.2006 0.0000 -181.6203
v -52.7847 0.0000 -177.3098
v -69.8632 0.0000 -171.3013
v -86.2726 0.0000 -163.6522
v -101.8558 0.0000 -154.4357
v -116.4635 0.0000 -143.7402
v -129.9558 0.0000 -131.6681
v -142.2035 0.0000 -118.3350
v -153.0893 0.0000 -103.8686
v -162.5089 0.0000 -88.4074
v -170.3721 0.0000 -72.0995
v -176.6037 0.0000 -55.1010
v -181.1439 0.0000 -37.5749
v -183.9493 0.0000 -19.6890
v -184.9930 0.0000 -1.6144
v -202.4923 -0.0000 1.7671
v -201.3499 -0.0000 21.5514
v -198.2792 -0.0000 41.1293
v -193.3095 -0.0000 60.3133
v -186.4884 -0.0000 78.9197
v -177.8814 -0.0000 96.7702
v -167.5707 -0.0000 113.6940
v -155.6552 -0.0000 129.5289
v -142.2489 -0.0000 144.1232
v -127.4803 -0.0000 157.3373
v -111.4908 -0.0000 169.0445
v -94.4335 -0.0000 179.1328
v -76.4719 -0.0000 187.5055
v -57.7778 -0.0000 194.0824
v -38.5304 -0.0000 198.8005
v -18.9140 -0.0000 201.6148
v 0.8836 -0.0000 202.4981
v 20.6727 -0.0000 201.4420
v 40.2638 -0.0000 198.4567
v 59.4693 -0.0000 193.5708
v 78.1052 -0.0000 186.8310
v 95.9931 -0.0000 178.3019
v 112.9617 -0.0000 168.0652
v 128.8484 -0.0000 156.2188
v 143.5012 -0.0000 142.8764
v 156.7796 -0.0000 128.1656
v 168.5565 -0.0000 112.2273
v 178.7191 -0.0000 95.2142
v 187.1700 -0.0000 77.2893
v 193.8284 -0.0000 58.6241
v 198.6305 -0.0000 39.3975
v 201.5303 -0.0000 19.7935
v 202.5000 0.0000 -0.0000
v 201.5303 0.0000 -19.7935
v 198.6305 0.0000 -39.3975
v 193.8284 0.0000 -58.6241
v 187.1700 0.0000 -77.2893
v 178.7191 0.0000 -95.2142
v 168.5565 0.0000 -112.2273
v 156.7796 0.0000 -128.1656
v 143.5012 0.0000 -142.8764
v 128.8484 0.0000 -156.2188
v 112.9617 0.0000 -168.0652
v 95.9931 0.0000 -178.3019
v 78.1052 0.0000 -186.8310
v 59.4693 0.0000 -193.5708
v 40.2638 0.0000 -198.4567
v 20.6727 0.0000 -201.4420
v 0.8836 0.0000 -202.4981
v -18.9140 0.0000 -201.6148
v -38.5304 0.0000 -198.8005
v -57.7778 0.0000 -194.0824
v -76.4719 0.0000 -187.5055
v -94.4335 0.0000 -179.1328
v -111.4908 0.0000 -169.0445
v -127.4803 0.0000 -157.3373
v -142.2489 0.0000 -144.1232
v -155.6552 0.0000 -129.5289
v -167.5707 0.0000 -113.6940
v -177.8814 0.0000 -96.7702
v -186.4884 0.0000 -78.9197
v -193.3095 0.0000 -60.3133
v -198.2792 0.0000 -41.1293
v -201.3499 0.0000 -21.5514
v -202.4923 0.0000 -1.7671
v -219.9916 -0.0000 1.9198
v -218.7505 -0.0000 23.4139
v -215.4144 -0.0000 44.6837
v -210.0152 -0.0000 65.5256
v -202.6047 -0.0000 85.7399
v -193.2538 -0.0000 105.1331
v -182.0521 -0.0000 123.5194
v -169.1068 -0.0000 140.7227
v -154.5420 -0.0000 156.5783
v -138.4971 -0.0000 170.9343
v -121.1258 -0.0000 183.6533
v -102.5944 -0.0000 194.6134
v -83.0805 -0.0000 203.7097
v -62.7709 -0.0000 210.8549
v -41.8602 -0.0000 215.9808
v -20.5485 -0.0000 219.0383
v 0.9599 -0.0000 219.9979
v 22.4592 -0.0000 218.8506
v 43.7434 -0.0000 215.6073
v 64.6086 -0.0000 210.2991
v 84.8550 -0.0000 202.9769
v 104.2888 -0.0000 193.7107
v 122.7238 -0.0000 182.5893
v 139.9835 -0.0000 169.7192
v 155.9025 -0.0000 155.2237
v 170.3284 -0.0000 139.2416
v 183.1231 -0.0000 121.9260
v 194.1639 -0.0000 103.4426
v 203.3452 -0.0000 83.9686
v 210.5791 -0.0000 63.6904
v 215.7961 -0.0000 42.8022
v 218.9465 -0.0000 21.5041
v 220.0000 0.0000 -0.0000
v 218.9465 0.0000 -21.5041
v 215.7961 0.0000 -42.8022
v 210.5791 0.0000 -63.6904
v 203.3452 0.0000 -83.9686
v 194.1639 0.0000 -103.4426
v 183.1231 0.0000 -121.9260
v 170.3284 0.0000 -139.2416
v 155.9025 0.0000 -155.2237
v 139.9835 0.0000 -169.7192
v 122.7238 0.0000 -182.5893
v 104.2888 0.0000 -193.7107
v 84.8550 0.0000 -202.9769
v 64.6086 0.0000 -210.2991
v 43.7434 0.0000 -215.6073
v 22.4592 0.0000 -218.8506
v 0.9599 0.0000 -219.9979
v -20.5485 0.0000 -219.0383
v -41.8602 0.0000 -215.9808
v -62.7709 0.0000 -210.8549
v -83.0805 0.0000 -203.7097
v -102.5944 0.0000 -194.6134
v -121.1258 0.0000 -183.6533
v -138.4971 0.0000 -170.9343
v -154.5420 0.0000 -156.5783
v -169.1068 0.0000 -140.7227
v -182.0521 0.0000 -123.5194
v -193.2538 0.0000 -105.1331
v -202.6047 0.0000 -85.7399
v -210.0152 0.0000 -65.5256
v -215.4144 0.0000 -44.6837
v -218.7505 0.0000 -23.4139
v -219.9916 0.0000 -1.9198
vt 0.00000 1.00000
vt 0.01562 1.00000
vt 0.03125 1.00000
vt 0.04688 1.00000
vt 0.06250 1.00000
vt 0.07812 1.00000
vt 0.09375 1.00000
vt 0.10938 1.00000
vt 0.12500 1.00000
vt 0.14062 1.00000
vt 0.15625 1.00000
vt 0.17188 1.00000
vt 0.18750 1.00000
vt 0.20312 1.00000
vt 0.21875 1.00000
vt 0.23438 1.00000
vt 0.25000 1.00000
vt 0.26562 1.00000
vt 0.28125 1.00000
vt 0.29688 1.00000
vt 0.31250 1.00000
vt 0.32812 1.00000
vt 0.34375 1.00000
vt 0.35938 1.00000
vt 0.37500 1.00000
vt 0.39062 1.00000
vt 0.40625 1.00000
vt 0.42188 1.00000
vt 0.43750 1.00000
vt 0.45312 1.00000
vt 0.46875 1.00000
vt 0.48438 1.00000
vt 0.50000 1.00000
vt 0.51562 1.00000
vt 0.53125 1.00000
vt 0.54688 1.00000
vt 0.56250 1.00000
vt 0.57812 1.00000
vt 0.59375 1.00000
vt 0.60938 1.00000
vt 0.62500 1.00000
vt 0.64062 1.00000
vt 0.65625 1.00000
vt 0.67188 1.00000
vt 0.68750 1.00000
vt 0.70312 1.00000
vt 0.71875 1.00000
vt 0.73438 1.00000
vt 0.75000 1.00000
vt 0.76562 1.00000
vt 0.78125 1.00000
vt 0.79688 1.00000
vt 0.81250 1.00000
vt 0.82812 1.00000
vt 0.84375 1.00000
vt 0.85938 1.00000
vt 0.87500 1.00000
vt 0.89062 1.00000
vt 0.90625 1.00000
vt 0.92188 1.00000
vt 0.93750 1.00000
vt 0.95312 1.00000
vt 0.96875 1.00000
vt 0.98438 1.00000
vt 1.00000 1.00000
vt 0.00000 0.75000
vt 0.01562 0.75000
vt 0.03125 0.75000
vt 0.04688 0.75000
vt 0.06250 0.75000
vt 0.07812 0.75000
vt 0.09375 0.75000
vt 0.10938 0.75000
vt 0.12500 0.75000
vt 0.14062 0.75000
vt 0.15625 0.75000
vt 0.17188 0.75000
vt 0.18750 0.75000
vt 0.20312 0.75000
vt 0.21875 0.75000
vt 0.23438 0.75000
vt 0.25000 0.75000
vt 0.26562 0.75000
vt 0.28125 0.75000
vt 0.29688 0.75000
vt 0.31250 0.75000
vt 0.32812 0.75000
vt 0.34375 0.75000
vt 0.35938 0.75000
vt 0.37500 0.75000
vt 0.39062 0.75000
vt 0.40625 0.75000
vt 0.42188 0.75000
vt 0.43750 0.75000
vt 0.45312 0.75000
vt 0.46875 0.75000
vt 0.48438 0.75000
vt 0.50000 0.75000
vt 0.51562 0.75000
vt 0.53125 0.75000
vt 0.54688 0.75000
vt 0.56250 0.75000
vt 0.57812 0.75000
vt 0.59375 0.75000
vt 0.60938 0.75000
vt 0.62500 0.75000
vt 0.64062 0.75000
vt 0.65625 0.75000
vt 0.67188 0.75000
vt 0.68750 0.75000
vt 0.70312 0.75000
vt 0.71875 0.75000
vt 0.73438 0.75000
vt 0.75000 0.75000
vt 0.76562 0.75000
vt 0.78125 0.75000
vt 0.79688 0.75000
vt 0.81250 0.75000
vt 0.82812 0.75000
vt 0.84375 0.75000
vt 0.85938 0.75000
vt 0.87500 0.75000
vt 0.89062 0.75000
vt 0.90625 0.75000
vt 0.92188 0.75000
vt 0.93750 0.75000
vt 0.95312 0.75000
vt 0.96875 0.75000
vt 0.98438 0.75000
vt 1.00000 0.75000
vt 0.00000 0.50000
vt 0.01562 0.50000
vt 0.03125 0.50000
vt 0.04688 0.50000
vt 0.06250 0.50000
vt 0.07812 0.50000
vt 0.09375 0.50000
vt 0.10938 0.50000
vt 0.12500 0.50000
vt 0.14062 0.50000
vt 0.15625 0.50000
vt 0.17188 0.50000
vt 0.18750 0.50000
vt 0.20312 0.50000
vt 0.21875 0.50000
vt 0.23438 0.50000
vt 0.25000 0.50000
vt 0.26562 0.50000
vt 0.28125 0.50000
vt 0.29688 0.50000
vt 0.31250 0.50000
vt 0.32812 0.50000
vt 0.34375 0.50000
vt 0.35938 0.50000
vt 0.37500 0.50000
vt 0.39062 0.50000
vt 0.40625 0.50000
vt 0.42188 0.50000
vt 0.43750 0.50000
vt 0.45312 0.50000
vt 0.46875 0.50000
vt 0.48438 0.50000
vt 0.50000 0.50000
vt 0.51562 0.50000
vt 0.53125 0.50000
vt 0.54688 0.50000
vt 0.56250 0.50000
vt 0.57812 0.50000
vt 0.59375 0.50000
vt 0.60938 0.50000
vt 0.62500 0.50000
vt 0.64062 0.50000
vt 0.65625 0.50000
vt 0.67188 0.50000
vt 0.68750 0.50000
vt 0.70312 0.50000
vt 0.71875 0.50000
vt 0.73438 0.50000
vt 0.75000 0.50000
vt 0.76562 0.50000
vt 0.78125 0.50000
vt 0.79688 0.50000
vt 0.81250 0.50000
vt 0.82812 0.50000
vt 0.84375 0.50000
vt 0.85938 0.50000
vt 0.87500 0.50000
vt 0.89062 0.50000
vt 0.90625 0.50000
vt 0.92188 0.50000
vt 0.93750 0.50000
vt 0.95312 0.50000
vt 0.96875 0.50000
vt 0.98438 0.50000
vt 1.00000 0.50000
vt 0.00000 0.25000
vt 0.01562 0.25000
vt 0.03125 0.25000
vt 0.04688 0.25000
vt 0.06250 0.25000
vt 0.07812 0.25000
vt 0.09375 0.25000
vt 0.10938 0.25000
vt 0.12500 0.25000
vt 0.14062 0.25000
vt 0.15625 0.25000
vt 0.17188 0.25000
vt 0.18750 0.25000
vt 0.20312 0.25000
vt 0.21875 0.25000
vt 0.23438 0.25000
vt 0.25000 0.25000
vt 0.26562 0.25000
vt 0.28125 0.25000
vt 0.29688 0.25000
vt 0.31250 0.25000
vt 0.32812 0.25000
vt 0.34375 0.25000
vt 0.35938 0.25000
vt 0.37500 0.25000
vt 0.39062 0.25000
vt 0.40625 0.25000
vt 0.42188 0.25000
vt 0.43750 0.25000
vt 0.45312 0.25000
vt 0.46875 0.25000
vt 0.48438 0.25000
vt 0.50000 0.25000
vt 0.51562 0.25000
vt 0.53125 0.25000
vt 0.54688 0.25000
vt 0.56250 0.25000
vt 0.57812 0.25000
vt 0.59375 0.25000
vt 0.60938 0.25000
vt 0.62500 0.25000
vt 0.64062 0.25000
vt 0.65625 0.25000
vt 0.67188 0.25000
vt 0.68750 0.25000
vt 0.70312 0.25000
vt 0.71875 0.25000
vt 0.73438 0.25000
vt 0.75000 0.25000
vt 0.76562 0.25000
vt 0.78125 0.25000
vt 0.79688 0.25000
vt 0.81250 0.25000
vt 0.82812 0.25000
vt 0.84375 0.25000
vt 0.85938 0.25000
vt 0.87500 0.25000
vt 0.89062 0.25000
vt 0.90625 0.25000
vt 0.92188 0.25000
vt 0.93750 0.25000
vt 0.95312 0.25000
vt 0.96875 0.25000
vt 0.98438 0.25000
vt 1.00000 0.25000
vt 0.00000 0.00000
vt 0.01562 0.00000
vt 0.03125 0.00000
vt 0.04688 0.00000
vt 0.06250 0.00000
vt 0.07812 0.00000
vt 0.09375 0.00000
vt 0.10938 0.00000
vt 0.12500 0.00000
vt 0.14062 0.00000
vt 0.15625 0.00000
vt 0.17188 0.00000
vt 0.18750 0.00000
vt 0.20312 0.00000
vt 0.21875 0.00000
vt 0.23438 0.00000
vt 0.25000 0.00000
vt 0.26562 0.00000
vt 0.28125 0.00000
vt 0.29688 0.00000
vt 0.31250 0.00000
vt 0.32812 0.00000
vt 0.34375 0.00000
vt 0.35938 0.00000
vt 0.37500 0.00000
vt 0.39062 0.00000
vt 0.40625 0.00000
vt 0.42188 0.00000
vt 0.43750 0.00000
vt 0.45312 0.00000
vt 0.46875 0.00000
vt 0.48438 0.00000
vt 0.50000 0.00000
vt 0.51562 0.00000
vt 0.53125 0.00000
vt 0.54688 0.00000
vt 0.56250 0.00000
vt 0.57812 0.00000
vt 0.59375 0.00000
vt 0.60938 0.00000
vt 0.62500 0.00000
vt 0.64062 0.00000
vt 0.65625 0.00000
vt 0.67188 0.00000
vt 0.68750 0.00000
vt 0.70312 0.00000
vt 0.71875 0.00000
vt 0.73438 0.00000
vt 0.75000 0.00000
vt 0.76562 0.00000
vt 0.78125 0.00000
vt 0.79688 0.00000
vt 0.81250 0.00000
vt 0.82812 0.00000
vt 0.84375 0.00000
vt 0.85938 0.00000
vt 0.87500 0.00000
vt 0.89062 0.00000
vt 0.90625 0.00000
vt 0.92188 0.00000
vt 0.93750 0.00000
vt 0.95312 0.00000
vt 0.96875 0.00000
vt 0.98438 0.00000
vt 1.00000 0.00000
vt 0.00000 1.00000
vt 0.01562 1.00000
vt 0.03125 1.00000
vt 0.04688 1.00000
vt 0.06250 1.00000
vt 0.07812 1.00000
vt 0.09375 1.00000
vt 0.10938 1.00000
vt 0.12500 1.00000
vt 0.14062 1.00000
vt 0.15625 1.00000
vt 0.17188 1.00000
vt 0.18750 1.00000
vt 0.20312 1.00000
vt 0.21875 1.00000
vt 0.23438 1.00000
vt 0.25000 1.00000
vt 0.26562 1.00000
vt 0.28125 1.00000
vt 0.29688 1.00000
vt 0.31250 1.00000
vt 0.32812 1.00000
vt 0.34375 1.00000
vt 0.35938 1.00000
vt 0.37500 1.00000
vt 0.39062 1.00000
vt 0.40625 1.00000
vt 0.42188 1.00000
vt 0.43750 1.00000
vt 0.45312 1.00000
vt 0.46875 1.00000
vt 0.48438 1.00000
vt 0.50000 1.00000
vt 0.51562 1.00000
vt 0.53125 1.00000
vt 0.54688 1.00000
vt 0.56250 1.00000
vt 0.57812 1.00000
vt 0.59375 1.00000
vt 0.60938 1.00000
vt 0.62500 1.00000
vt 0.64062 1.00000
vt 0.65625 1.00000
vt 0.67188 1.00000
vt 0.68750 1.00000
vt 0.70312 1.00000
vt 0.71875 1.00000
vt 0.73438 1.00000
vt 0.75000 1.00000
vt 0.76562 1.00000
vt 0.78125 1.00000
vt 0.79688 1.00000
vt 0.81250 1.00000
vt 0.82812 1.00000
vt 0.84375 1.00000
vt 0.85938 1.00000
vt 0.87500 1.00000
vt 0.89062 1.00000
vt 0.90625 1.00000
vt 0.92188 1.00000
vt 0.93750 1.00000
vt 0.95312 1.00000
vt 0.96875 1.00000
vt 0.98438 1.00000
vt 1.00000 1.00000
vt 0.00000 0.75000
vt 0.01562 0.75000
vt 0.03125 0.75000
vt 0.04688 0.75000
vt 0.06250 0.75000
vt 0.07812 0.75000
vt 0.09375 0.75000
vt 0.10938 0.75000
vt 0.12500 0.75000
vt 0.14062 0.75000
vt 0.15625 0.75000
vt 0.17188 0.75000
vt 0.18750 0.75000
vt 0.20312 0.75000
vt 0.21875 0.75000
vt 0.23438 0.75000
vt 0.25000 0.75000
vt 0.26562 0.75000
vt 0.28125 0.75000
vt 0.29688 0.75000
vt 0.31250 0.75000
vt 0.32812 0.75000
vt 0.34375 0.75000
vt 0.35938 0.75000
vt 0.37500 0.75000
vt 0.39062 0.75000
vt 0.40625 0.75000
vt 0.42188 0.75000
vt 0.43750 0.75000
vt 0.45312 0.75000
vt 0.46875 0.75000
vt 0.48438 0.75000
vt 0.50000 0.75000
vt 0.51562 0.75000
vt 0.53125 0.75000
vt 0.54688 0.75000
vt 0.56250 0.75000
vt 0.57812 0.75000
vt 0.59375 0.75000
vt 0.60938 0.75000
vt 0.62500 0.75000
vt 0.64062 0.75000
vt 0.65625 0.75000
vt 0.67188 0.75000
vt 0.68750 0.75000
vt 0.70312 0.75000
vt 0.71875 0.75000
vt 0.73438 0.75000
vt 0.75000 0.75000
vt 0.76562 0.75000
vt 0.78125 0.75000
vt 0.79688 0.75000
vt 0.81250 0.75000
vt 0.82812 0.75000
vt 0.84375 0.75000
vt 0.85938 0.75000
vt 0.87500 0.75000
vt 0.89062 0.75000
vt 0.90625 0.75000
vt 0.92188 0.75000
vt 0.93750 0.75000
vt 0.95312 0.75000
vt 0.96875 0.75000
vt 0.98438 0.75000
vt 1.00000 0.75000
vt 0.00000 0.50000
vt 0.01562 0.50000
vt 0.03125 0.50000
vt 0.04688 0.50000
vt 0.06250 0.50000
vt 0.07812 0.50000
vt 0.09375 0.50000
vt 0.10938 0.50000
vt 0.12500 0.50000
vt 0.14062 0.50000
vt 0.15625 0.50000
vt 0.17188 0.50000
vt 0.18750 0.50000
vt 0.20312 0.50000
vt 0.21875 0.50000
vt 0.23438 0.50000
vt 0.25000 0.50000
vt 0.26562 0.50000
vt 0.28125 0.50000
vt 0.29688 0.50000
vt 0.31250 0.50000
vt 0.32812 0.50000
vt 0.34375 0.50000
vt 0.35938 0.50000
vt 0.37500 0.50000
vt 0.39062 0.50000
vt 0.40625 0.50000
vt 0.42188 0.50000
vt 0.43750 0.50000
vt 0.45312 0.50000
vt 0.46875 0.50000
vt 0.48438 0.50000
vt 0.50000 0.50000
vt 0.51562 0.50000
vt 0.53125 0.50000
vt 0.54688 0.50000
vt 0.56250 0.50000
vt 0.57812 0.50000
vt 0.59375 0.50000
vt 0.60938 0.50000
vt 0.62500 0.50000
vt 0.64062 0.50000
vt 0.65625 0.50000
vt 0.67188 0.50000
vt 0.68750 0.50000
vt 0.70312 0.50000
vt 0.71875 0.50000
vt 0.73438 0.50000
vt 0.75000 0.50000
vt 0.76562 0.50000
vt 0.78125 0.50000
vt 0.79688 0.50000
vt 0.81250 0.50000
vt 0.82812 0.50000
vt 0.84375 0.50000
vt 0.85938 0.50000
vt 0.87500 0.50000
vt 0.89062 0.50000
vt 0.90625 0.50000
vt 0.92188 0.50000
vt 0.93750 0.50000
vt 0.95312 0.50000
vt 0.96875 0.50000
vt 0.98438 0.50000
vt 1.00000 0.50000
vt 0.00000 0.25000
vt 0.01562 0.25000
vt 0.03125 0.25000
vt 0.04688 0.25000
vt 0.06250 0.25000
vt 0.07812 0.25000
vt 0.09375 0.25000
vt 0.10938 0.25000
vt 0.12500 0.25000
vt 0.14062 0.25000
vt 0.15625 0.25000
vt 0.17188 0.25000
vt 0.18750 0.25000
vt 0.20312 0.25000
vt 0.21875 0.25000
vt 0.23438 0.25000
vt 0.25000 0.25000
vt 0.26562 0.25000
vt 0.28125 0.25000
vt 0.29688 0.25000
vt 0.31250 0.25000
vt 0.32812 0.25000
vt 0.34375 0.25000
vt 0.35938 0.25000
vt 0.37500 0.25000
vt 0.39062 0.25000
vt 0.40625 0.25000
vt 0.42188 0.25000
vt 0.43750 0.25000
vt 0.45312 0.25000
vt 0.46875 0.25000
vt 0.48438 0.25000
vt 0.50000 0.25000
vt 0.51562 0.25000
vt 0.53125 0.25000
vt 0.54688 0.25000
vt 0.56250 0.25000
vt 0.57812 0.25000
vt 0.59375 0.25000
vt 0.60938 0.25000
vt 0.62500 0.25000
vt 0.64062 0.25000
vt 0.65625 0.25000
vt 0.67188 0.25000
vt 0.68750 0.25000
vt 0.70312 0.25000
vt 0.71875 0.25000
vt 0.73438 0.25000
vt 0.75000 0.25000
vt 0.76562 0.25000
vt 0.78125 0.25000
vt 0.79688 0.25000
vt 0.81250 0.25000
vt 0.82812 0.25000
vt 0.84375 0.25000
vt 0.85938 0.25000
vt 0.87500 0.25000
vt 0.89062 0.25000
vt 0.90625 0.25000
vt 0.92188 0.25000
vt 0.93750 0.25000
vt 0.95312 0.25000
vt 0.96875 0.25000
vt 0.98438 0.25000
vt 1.00000 0.25000
vt 0.00000 0.00000
vt 0.01562 0.00000
vt 0.03125 0.00000
vt 0.04688 0.00000
vt 0.06250 0.00000
vt 0.07812 0.00000
vt 0.09375 0.00000
vt 0.10938 0.00000
vt 0.12500 0.00000
vt 0.14062 0.00000
vt 0.15625 0.00000
vt 0.17188 0.00000
vt 0.18750 0.00000
vt 0.20312 0.00000
vt 0.21875 0.00000
vt 0.23438 0.00000
vt 0.25000 0.00000
vt 0.26562 0.00000
vt 0.28125 0.00000
vt 0.29688 0.00000
vt 0.31250 0.00000
vt 0.32812 0.00000
vt 0.34375 0.00000
vt 0.35938 0.00000
vt 0.37500 0.00000
vt 0.39062 0.00000
vt 0.40625 0.00000
vt 0.42188 0.00000
vt 0.43750 0.00000
vt 0.45312 0.00000
vt 0.46875 0.00000
vt 0.48438 0.00000
vt 0.50000 0.00000
vt 0.51562 0.00000
vt 0.53125 0.00000
vt 0.54688 0.00000
vt 0.56250 0.00000
vt 0.57812 0.00000
vt 0.59375 0.00000
vt 0.60938 0.00000
vt 0.62500 0.00000
vt 0.64062 0.00000
vt 0.65625 0.00000
vt 0.67188 0.00000
vt 0.68750 0.00000
vt 0.70312 0.00000
vt 0.71875 0.00000
vt 0.73438 0.00000
vt 0.75000 0.00000
vt 0.76562 0.00000
vt 0.78125 0.00000
vt 0.79688 0.00000
vt 0.81250 0.00000
vt 0.82812 0.00000
vt 0.84375 0.00000
vt 0.85938 0.00000
vt 0.87500 0.00000
vt 0.89062 0.00000
vt 0.90625 0.00000
vt 0.92188 0.00000
vt 0.93750 0.00000
vt 0.95312 0.00000
vt 0.96875 0.00000
vt 0.98438 0.00000
vt 1.00000 0.00000
vn 0.00000 1.00000 0.00000
vn 0.00000 1.00000 0.00000
vn 0.00000 1.00000 0.00000
vn 0.00000 1.00000 0.00000
vn 0.00000 1.00000 0.00000
vn 0.00000 1.00000 0.00000
vn 0.00000 1.00000 0.00000
vn 0.00000 1.00000 0.00000
vn 0.00000 1.00000 0.00000
vn 0.00000 1.00000 0.00000
vn 0.00000 1.00000 0.00000
vn 0.00000 1.00000 0.00000
vn 0.00000 1.00000 0.00000
vn 0.00000 1.00000 0.00000
vn 0.00000 1.00000 0.00000
vn 0.00000 1.00000 0.00000
vn 0.00000 1.00000 0.00000
vn 0.00000 1.00000 0.00000
vn 0.00000 1.00000 0.00000
vn 0.00000 1.00000 0.00000
vn 0.00000 1.00000 0.00000
vn 0.00000 1.00000 0.00000
vn 0.00000 1.00000 0.00000
vn 0.00000 1.00000 0.00000
vn 0.00000 1.00000 0.00000
vn 0.00000 1.00000 0.00000
vn 0.00000 1.00000 0.00000
vn 0.00000 1.00000 0.00000
vn 0.00000 1.00000 0.00000
vn 0.00000 1.00000 0.00000
vn 0.00000 1.00000 0.00000
vn 0.00000 1.00000 0.00000
vn 0.00000 1.00000 0.00000
vn 0.00000 1.00000 0.00000
vn 0.00000 1.00000 0.00000
vn 0.00000 1.00000 0.00000
vn 0.00000 1.00000 0.00000
vn 0.00000 1.00000 0.00000
vn 0.00000 1.00000 0.00000
vn 0.00000 1.00000 0.00000
vn 0.00000 1.00000 0.00000
vn 0.00000 1.00000 0.00000
vn 0.00000 1.00000 0.00000
vn 0.00000 1.00000 0.00000
vn 0.00000 1.00000 0.00000
vn 0.00000 1.00000 0.00000
vn 0.00000 1.00000 0.00000
vn 0.00000 1.00000 0.00000
vn 0.00000 1.00000 0.00000
vn 0.00000 1.00000 0.00000
vn 0.00000 1.00000 0.00000
vn 0.00000 1.00000 0.00000
vn 0.00000 1.00000 0.00000
vn 0.00000 1.00000 0.00000
vn 0.00000 1.00000 0.00000
vn 0.00000 1.00000 0.00000
vn 0.00000 1.00000 0.00000
vn 0.00000 1.00000 0.00000
vn 0.00000 1.00000 0.00000
vn 0.00000 1.00000 0.00000
vn 0.00000 1.00000 0.00000
vn 0.00000 1.00000 0.00000
vn 0.00000 1.00000 0.00000
vn 0.00000 1.00000 0.00000
vn 0.00000 1.00000 0.00000
vn 0.00000 1.00000 0.00000
vn 0.00000 1.00000 0.00000
vn 0.00000 1.00000 0.00000
vn 0.00000 1.00000 0.00000
vn 0.00000 1.00000 0.00000
vn 0.00000 1.00000 0.00000
vn 0.00000 1.00000 0.00000
vn 0.00000 1.00000 0.00000
vn 0.00000 1.00000 0.00000
vn 0.00000 1.00000 0.00000
vn 0.00000 1.00000 0.00000
vn 0.00000 1.00000 0.00000
vn 0.00000 1.00000 0.00000
vn 0.00000 1.00000 0.00000
vn 0.00000 1.00000 0.00000
vn 0.00000 1.00000 0.00000
vn 0.00000 1.00000 0.00000
vn 0.00000 1.00000 0.00000
vn 0.00000 1.00000 0.00000
vn 0.00000 1.00000 0.00000
vn 0.00000 1.00000 0.00000
vn 0.00000 1.00000 0.00000
vn 0.00000 1.00000 0.00000
vn 0.00000 1.00000 0.00000
vn 0.00000 1.00000 0.00000
vn 0.00000 1.00000 0.00000
vn 0.00000 1.00000 0.00000
vn 0.00000 1.00000 0.00000
vn 0.00000 1.00000 0.00000
vn 0.00000 1.00000 0.00000
vn 0.00000 1.00000 0.00000
vn 0.00000 1.00000 0.00000
vn 0.00000 1.00000 0.00000
vn 0.00000 1.00000 0.00000
vn 0.00000 1.00000 0.00000
vn 0.00000 1.00000 0.00000
vn 0.00000 1.00000 0.00000
vn 0.00000 1.00000 0.00000
vn 0.00000 1.00000 0.00000
vn 0.00000 1.00000 0.00000
vn 0.00000 1.00000 0.00000
vn 0.00000 1.00000 0.00000
vn 0.00000 1.00000 0.00000
vn 0.00000 1.00000 0.00000
vn 0.00000 1.00000 0.00000
vn 0.00000 1.00000 0.00000
vn 0.00000 1.00000 0.00000
vn 0.00000 1.00000 0.00000
vn 0.00000 1.00000 0.00000
vn 0.00000 1.00000 0.00000
vn 0.00000 1.00000 0.00000
vn 0.00000 1.00000 0.00000
vn 0.00000 1.00000 0.00000
vn 0.00000 1.00000 0.00000
vn 0.00000 1.00000 0.00000
vn 0.00000 1.00000 0.00000
vn 0.00000 1.00000 0.00000
vn 0.00000 1.00000 0.00000
vn 0.00000 1.00000 0.00000
vn 0.00000 1.00000 0.00000
vn 0.00000 1.00000 0.00000
vn 0.00000 1.00000 0.00000
vn 0.00000 1.00000 0.00000
vn 0.00000 1.00000 0.00000
vn 0.00000 1.00000 0.00000
vn 0.00000 1.00000 0.00000
vn 0.00000 1.00000 0.00000
vn 0.00000 1.00000 0.00000
vn 0.00000 1.00000 0.00000
vn 0.00000 1.00000 0.00000
vn 0.00000 1.00000 0.00000
vn 0.00000 1.00000 0.00000
vn 0.00000 1.00000 0.00000
vn 0.00000 1.00000 0.00000
vn 0.00000 1.00000 0.00000
vn 0.00000 1.00000 0.00000
vn 0.00000 1.00000 0.00000
vn 0.00000 1.00000 0.00000
vn 0.00000 1.00000 0.00000
vn 0.00000 1.00000 0.00000
vn 0.00000 1.00000 0.00000
vn 0.00000 1.00000 0.00000
vn 0.00000 1.00000 0.00000
vn 0.00000 1.00000 0.00000
vn 0.00000 1.00000 0.00000
vn 0.00000 1.00000 0.00000
vn 0.00000 1.00000 0.00000
vn 0.00000 1.00000 0.00000
vn 0.00000 1.00000 0.00000
vn 0.00000 1.00000 0.00000
vn 0.00000 1.00000 0.00000
vn 0.00000 1.00000 0.00000
vn 0.00000 1.00000 0.00000
vn 0.00000 1.00000 0.00000
vn 0.00000 1.00000 0.00000
vn 0.00000 1.00000 0.00000
vn 0.00000 1.00000 0.00000
vn 0.00000 1.00000 0.00000
vn 0.00000 1.00000 0.00000
vn 0.00000 1.00000 0.00000
vn 0.00000 1.00000 0.00000
vn 0.00000 1.00000 0.00000
vn 0.00000 1.00000 0.00000
vn 0.00000 1.00000 0.00000
vn 0.00000 1.00000 0.00000
vn 0.00000 1.00000 0.00000
vn 0.00000 1.00000 0.00000
vn 0.00000 1.00000 0.00000
vn 0.00000 1.00000 0.00000
vn 0.00000 1.00000 0.00000
vn 0.00000 1.00000 0.00000
vn 0.00000 1.00000 0.00000
vn 0.00000 1.00000 0.00000
vn 0.00000 1.00000 0.00000
vn 0.00000 1.00000 0.00000
vn 0.00000 1.00000 0.00000
vn 0.00000 1.00000 0.00000
vn 0.00000 1.00000 0.00000
vn 0.00000 1.00000 0.00000
vn 0.00000 1.00000 0.00000
vn 0.00000 1.00000 0.00000
vn 0.00000 1.00000 0.00000
vn 0.00000 1.00000 0.00000
vn 0.00000 1.00000 0.00000
vn 0.00000 1.00000 0.00000
vn 0.00000 1.00000 0.00000
vn 0.00000 1.00000 0.00000
vn 0.00000 1.00000 0.00000
vn 0.00000 1.00000 0.00000
vn 0.00000 1.00000 0.00000
vn 0.00000 1.00000 0.00000
vn 0.00000 1.00000 0.00000
vn 0.00000 1.00000 0.00000
vn 0.00000 1.00000 0.00000
vn 0.00000 1.00000 0.00000
vn 0.00000 1.00000 0.00000
vn 0.00000 1.00000 0.00000
vn 0.00000 1.00000 0.00000
vn 0.00000 1.00000 0.00000
vn 0.00000 1.00000 0.00000
vn 0.00000 1.00000 0.00000
vn 0.00000 1.00000 0.00000
vn 0.00000 1.00000 0.00000
vn 0.00000 1.00000 0.00000
vn 0.00000 1.00000 0.00000
vn 0.00000 1.00000 0.00000
vn 0.00000 1.00000 0.00000
vn 0.00000 1.00000 0.00000
vn 0.00000 1.00000 0.00000
vn 0.00000 1.00000 0.00000
vn 0.00000 1.00000 0.00000
vn 0.00000 1.00000 0.00000
vn 0.00000 1.00000 0.00000
vn 0.00000 1.00000 0.00000
vn 0.00000 1.00000 0.00000
vn 0.00000 1.00000 0.00000
vn 0.00000 1.00000 0.00000
vn 0.00000 1.00000 0.00000
vn 0.00000 1.00000 0.00000
vn 0.00000 1.00000 0.00000
vn 0.00000 1.00000 0.00000
vn 0.00000 1.00000 0.00000
vn 0.00000 1.00000 0.00000
vn 0.00000 1.00000 0.00000
vn 0.00000 1.00000 0.00000
vn 0.00000 1.00000 0.00000
vn 0.00000 1.00000 0.00000
vn 0.00000 1.00000 0.00000
vn 0.00000 1.00000 0.00000
vn 0.00000 1.00000 0.00000
vn 0.00000 1.00000 0.00000
vn 0.00000 1.00000 0.00000
vn 0.00000 1.00000 0.00000
vn 0.00000 1.00000 0.00000
vn 0.00000 1.00000 0.00000
vn 0.00000 1.00000 0.00000
vn 0.00000 1.00000 0.00000
vn 0.00000 1.00000 0.00000
vn 0.00000 1.00000 0.00000
vn 0.00000 1.00000 0.00000
vn 0.00000 1.00000 0.00000
vn 0.00000 1.00000 0.00000
vn 0.00000 1.00000 0.00000
vn 0.00000 1.00000 0.00000
vn 0.00000 1.00000 0.00000
vn 0.00000 1.00000 0.00000
vn 0.00000 1.00000 0.00000
vn 0.00000 1.00000 0.00000
vn 0.00000 1.00000 0.00000
vn 0.00000 1.00000 0.00000
vn 0.00000 1.00000 0.00000
vn 0.00000 1.00000 0.00000
vn 0.00000 1.00000 0.00000
vn 0.00000 1.00000 0.00000
vn 0.00000 1.00000 0.00000
vn 0.00000 1.00000 0.00000
vn 0.00000 1.00000 0.00000
vn 0.00000 1.00000 0.00000
vn 0.00000 1.00000 0.00000
vn 0.00000 1.00000 0.00000
vn 0.00000 1.00000 0.00000
vn 0.00000 1.00000 0.00000
vn 0.00000 1.00000 0.00000
vn 0.00000 1.00000 0.00000
vn 0.00000 1.00000 0.00000
vn 0.00000 1.00000 0.00000
vn 0.00000 1.00000 0.00000
vn 0.00000 1.00000 0.00000
vn 0.00000 1.00000 0.00000
vn 0.00000 1.00000 0.00000
vn 0.00000 1.00000 0.00000
vn 0.00000 1.00000 0.00000
vn 0.00000 1.00000 0.00000
vn 0.00000 1.00000 0.00000
vn 0.00000 1.00000 0.00000
vn 0.00000 1.00000 0.00000
vn 0.00000 1.00000 0.00000
vn 0.00000 1.00000 0.00000
vn 0.00000 1.00000 0.00000
vn 0.00000 1.00000 0.00000
vn 0.00000 1.00000 0.00000
vn 0.00000 1.00000 0.00000
vn 0.00000 1.00000 0.00000
vn 0.00000 1.00000 0.00000
vn 0.00000 1.00000 0.00000
vn 0.00000 1.00000 0.00000
vn 0.00000 1.00000 0.00000
vn 0.00000 1.00000 0.00000
vn 0.00000 1.00000 0.00000
vn 0.00000 1.00000 0.00000
vn 0.00000 1.00000 0.00000
vn 0.00000 1.00000 0.00000
vn 0.00000 1.00000 0.00000
vn 0.00000 1.00000 0.00000
vn 0.00000 1.00000 0.00000
vn 0.00000 1.00000 0.00000
vn 0.00000 1.00000 0.00000
vn 0.00000 1.00000 0.00000
vn 0.00000 1.00000 0.00000
vn 0.00000 1.00000 0.00000
vn 0.00000 1.00000 0.00000
vn 0.00000 1.00000 0.00000
vn 0.00000 1.00000 0.00000
vn 0.00000 1.00000 0.00000
vn 0.00000 1.00000 0.00000
vn 0.00000 1.00000 0.00000
vn 0.00000 1.00000 0.00000
vn 0.00000 1.00000 0.00000
vn 0.00000 1.00000 0.00000
vn 0.00000 1.00000 0.00000
vn 0.00000 1.00000 0.00000
vn 0.00000 1.00000 0.00000
vn 0.00000 1.00000 0.00000
vn 0.00000 1.00000 0.00000
vn 0.00000 1.00000 0.00000
vn 0.00000 1.00000 0.00000
vn 0.00000 1.00000 0.00000
vn 0.00000 1.00000 0.00000
vn 0.00000 1.00000 0.00000
vn 0.00000 1.00000 0.00000
vn -0.00000 -1.00000 -0.00000
vn -0.00000 -1.00000 -0.00000
vn -0.00000 -1.00000 -0.00000
vn -0.00000 -1.00000 -0.00000
vn -0.00000 -1.00000 -0.00000
vn -0.00000 -1.00000 -0.00000
vn -0.00000 -1.00000 -0.00000
vn -0.00000 -1.00000 -0.00000
vn -0.00000 -1.00000 -0.00000
vn -0.00000 -1.00000 -0.00000
vn -0.00000 -1.00000 -0.00000
vn -0.00000 -1.00000 -0.00000
vn -0.00000 -1.00000 -0.00000
vn -0.00000 -1.00000 -0.00000
vn -0.00000 -1.00000 -0.00000
vn -0.00000 -1.00000 -0.00000
vn -0.00000 -1.00000 -0.00000
vn -0.00000 -1.00000 -0.00000
vn -0.00000 -1.00000 -0.00000
vn -0.00000 -1.00000 -0.00000
vn -0.00000 -1.00000 -0.00000
vn -0.00000 -1.00000 -0.00000
vn -0.00000 -1.00000 -0.00000
vn -0.00000 -1.00000 -0.00000
vn -0.00000 -1.00000 -0.00000
vn -0.00000 -1.00000 -0.00000
vn -0.00000 -1.00000 -0.00000
vn -0.00000 -1.00000 -0.00000
vn -0.00000 -1.00000 -0.00000
vn -0.00000 -1.00000 -0.00000
vn -0.00000 -1.00000 -0.00000
vn -0.00000 -1.00000 -0.00000
vn -0.00000 -1.00000 -0.00000
vn -0.00000 -1.00000 -0.00000
vn -0.00000 -1.00000 -0.00000
vn -0.00000 -1.00000 -0.00000
vn -0.00000 -1.00000 -0.00000
vn -0.00000 -1.00000 -0.00000
vn -0.00000 -1.00000 -0.00000
vn -0.00000 -1.00000 -0.00000
vn -0.00000 -1.00000 -0.00000
vn -0.00000 -1.00000 -0.00000
vn -0.00000 -1.00000 -0.00000
vn -0.00000 -1.00000 -0.00000
vn -0.00000 -1.00000 -0.00000
vn -0.00000 -1.00000 -0.00000
vn -0.00000 -1.00000 -0.00000
vn -0.00000 -1.00000 -0.00000
vn -0.00000 -1.00000 -0.00000
vn -0.00000 -1.00000 -0.00000
vn -0.00000 -1.00000 -0.00000
vn -0.00000 -1.00000 -0.00000
vn -0.00000 -1.00000 -0.00000
vn -0.00000 -1.00000 -0.00000
vn -0.00000 -1.00000 -0.00000
vn -0.00000 -1.00000 -0.00000
vn -0.00000 -1.00000 -0.00000
vn -0.00000 -1.00000 -0.00000
vn -0.00000 -1.00000 -0.00000
vn -0.00000 -1.00000 -0.00000
vn -0.00000 -1.00000 -0.00000
vn -0.00000 -1.00000 -0.00000
vn -0.00000 -1.00000 -0.00000
vn -0.00000 -1.00000 -0.00000
vn -0.00000 -1.00000 -0.00000
vn -0.00000 -1.00000 -0.00000
vn -0.00000 -1.00000 -0.00000
vn -0.00000 -1.00000 -0.00000
vn -0.00000 -1.00000 -0.00000
vn -0.00000 -1.00000 -0.00000
vn -0.00000 -1.00000 -0.00000
vn -0.00000 -1.00000 -0.00000
vn -0.00000 -1.00000 -0.00000
vn -0.00000 -1.00000 -0.00000
vn -0.00000 -1.00000 -0.00000
vn -0.00000 -1.00000 -0.00000
vn -0.00000 -1.00000 -0.00000
vn -0.00000 -1.00000 -0.00000
vn -0.00000 -1.00000 -0.00000
vn -0.00000 -1.00000 -0.00000
vn -0.00000 -1.00000 -0.00000
vn -0.00000 -1.00000 -0.00000
vn -0.00000 -1.00000 -0.00000
vn -0.00000 -1.00000 -0.00000
vn -0.00000 -1.00000 -0.00000
vn -0.00000 -1.00000 -0.00000
vn -0.00000 -1.00000 -0.00000
vn -0.00000 -1.00000 -0.00000
vn -0.00000 -1.00000 -0.00000
vn -0.00000 -1.00000 -0.00000
vn -0.00000 -1.00000 -0.00000
vn -0.00000 -1.00000 -0.00000
vn -0.00000 -1.00000 -0.00000
vn -0.00000 -1.00000 -0.00000
vn -0.00000 -1.00000 -0.00000
vn -0.00000 -1.00000 -0.00000
vn -0.00000 -1.00000 -0.00000
vn -0.00000 -1.00000 -0.00000
vn -0.00000 -1.00000 -0.00000
vn -0.00000 -1.00000 -0.00000
vn -0.00000 -1.00000 -0.00000
vn -0.00000 -1.00000 -0.00000
vn -0.00000 -1.00000 -0.00000
vn -0.00000 -1.00000 -0.00000
vn -0.00000 -1.00000 -0.00000
vn -0.00000 -1.00000 -0.00000
vn -0.00000 -1.00000 -0.00000
vn -0.00000 -1.00000 -0.00000
vn -0.00000 -1.00000 -0.00000
vn -0.00000 -1.00000 -0.00000
vn -0.00000 -1.00000 -0.00000
vn -0.00000 -1.00000 -0.00000
vn -0.00000 -1.00000 -0.00000
vn -0.00000 -1.00000 -0.00000
vn -0.00000 -1.00000 -0.00000
vn -0.00000 -1.00000 -0.00000
vn -0.00000 -1.00000 -0.00000
vn -0.00000 -1.00000 -0.00000
vn -0.00000 -1.00000 -0.00000
vn -0.00000 -1.00000 -0.00000
vn -0.00000 -1.00000 -0.00000
vn -0.00000 -1.00000 -0.00000
vn -0.00000 -1.00000 -0.00000
vn -0.00000 -1.00000 -0.00000
vn -0.00000 -1.00000 -0.00000
vn -0.00000 -1.00000 -0.00000
vn -0.00000 -1.00000 -0.00000
vn -0.00000 -1.00000 -0.00000
vn -0.00000 -1.00000 -0.00000
vn -0.00000 -1.00000 -0.00000
vn -0.00000 -1.00000 -0.00000
vn -0.00000 -1.00000 -0.00000
vn -0.00000 -1.00000 -0.00000
vn -0.00000 -1.00000 -0.00000
vn -0.00000 -1.00000 -0.00000
vn -0.00000 -1.00000 -0.00000
vn -0.00000 -1.00000 -0.00000
vn -0.00000 -1.00000 -0.00000
vn -0.00000 -1.00000 -0.00000
vn -0.00000 -1.00000 -0.00000
vn -0.00000 -1.00000 -0.00000
vn -0.00000 -1.00000 -0.00000
vn -0.00000 -1.00000 -0.00000
vn -0.00000 -1.00000 -0.00000
vn -0.00000 -1.00000 -0.00000
vn -0.00000 -1.00000 -0.00000
vn -0.00000 -1.00000 -0.00000
vn -0.00000 -1.00000 -0.00000
vn -0.00000 -1.00000 -0.00000
vn -0.00000 -1.00000 -0.00000
vn -0.00000 -1.00000 -0.00000
vn -0.00000 -1.00000 -0.00000
vn -0.00000 -1.00000 -0.00000
vn -0.00000 -1.00000 -0.00000
vn -0.00000 -1.00000 -0.00000
vn -0.00000 -1.00000 -0.00000
vn -0.00000 -1.00000 -0.00000
vn -0.00000 -1.00000 -0.00000
vn -0.00000 -1.00000 -0.00000
vn -0.00000 -1.00000 -0.00000
vn -0.00000 -1.00000 -0.00000
vn -0.00000 -1.00000 -0.00000
vn -0.00000 -1.00000 -0.00000
vn -0.00000 -1.00000 -0.00000
vn -0.00000 -1.00000 -0.00000
vn -0.00000 -1.00000 -0.00000
vn -0.00000 -1.00000 -0.00000
vn -0.00000 -1.00000 -0.00000
vn -0.00000 -1.00000 -0.00000
vn -0.00000 -1.00000 -0.00000
vn -0.00000 -1.00000 -0.00000
vn -0.00000 -1.00000 -0.00000
vn -0.00000 -1.00000 -0.00000
vn -0.00000 -1.00000 -0.00000
vn -0.00000 -1.00000 -0.00000
vn -0.00000 -1.00000 -0.00000
vn -0.00000 -1.00000 -0.00000
vn -0.00000 -1.00000 -0.00000
vn -0.00000 -1.00000 -0.00000
vn -0.00000 -1.00000 -0.00000
vn -0.00000 -1.00000 -0.00000
vn -0.00000 -1.00000 -0.00000
vn -0.00000 -1.00000 -0.00000
vn -0.00000 -1.00000 -0.00000
vn -0.00000 -1.00000 -0.00000
vn -0.00000 -1.00000 -0.00000
vn -0.00000 -1.00000 -0.00000
vn -0.00000 -1.00000 -0.00000
vn -0.00000 -1.00000 -0.00000
vn -0.00000 -1.00000 -0.00000
vn -0.00000 -1.00000 -0.00000
vn -0.00000 -1.00000 -0.00000
vn -0.00000 -1.00000 -0.00000
vn -0.00000 -1.00000 -0.00000
vn -0.00000 -1.00000 -0.00000
vn -0.00000 -1.00000 -0.00000
vn -0.00000 -1.00000 -0.00000
vn -0.00000 -1.00000 -0.00000
vn -0.00000 -1.00000 -0.00000
vn -0.00000 -1.00000 -0.00000
vn -0.00000 -1.00000 -0.00000
vn -0.00000 -1.00000 -0.00000
vn -0.00000 -1.00000 -0.00000
vn -0.00000 -1.00000 -0.00000
vn -0.00000 -1.00000 -0.00000
vn -0.00000 -1.00000 -0.00000
vn -0.00000 -1.00000 -0.00000
vn -0.00000 -1.00000 -0.00000
vn -0.00000 -1.00000 -0.00000
vn -0.00000 -1.00000 -0.00000
vn -0.00000 -1.00000 -0.00000
vn -0.00000 -1.00000 -0.00000
vn -0.00000 -1.00000 -0.00000
vn -0.00000 -1.00000 -0.00000
vn -0.00000 -1.00000 -0.00000
vn -0.00000 -1.00000 -0.00000
vn -0.00000 -1.00000 -0.00000
vn -0.00000 -1.00000 -0.00000
vn -0.00000 -1.00000 -0.00000
vn -0.00000 -1.00000 -0.00000
vn -0.00000 -1.00000 -0.00000
vn -0.00000 -1.00000 -0.00000
vn -0.00000 -1.00000 -0.00000
vn -0.00000 -1.00000 -0.00000
vn -0.00000 -1.00000 -0.00000
vn -0.00000 -1.00000 -0.00000
vn -0.00000 -1.00000 -0.00000
vn -0.00000 -1.00000 -0.00000
vn -0.00000 -1.00000 -0.00000
vn -0.00000 -1.00000 -0.00000
vn -0.00000 -1.00000 -0.00000
vn -0.00000 -1.00000 -0.00000
vn -0.00000 -1.00000 -0.00000
vn -0.00000 -1.00000 -0.00000
vn -0.00000 -1.00000 -0.00000
vn -0.00000 -1.00000 -0.00000
vn -0.00000 -1.00000 -0.00000
vn -0.00000 -1.00000 -0.00000
vn -0.00000 -1.00000 -0.00000
vn -0.00000 -1.00000 -0.00000
vn -0.00000 -1.00000 -0.00000
vn -0.00000 -1.00000 -0.00000
vn -0.00000 -1.00000 -0.00000
vn -0.00000 -1.00000 -0.00000
vn -0.00000 -1.00000 -0.00000
vn -0.00000 -1.00000 -0.00000
vn -0.00000 -1.00000 -0.00000
vn -0.00000 -1.00000 -0.00000
vn -0.00000 -1.00000 -0.00000
vn -0.00000 -1.00000 -0.00000
vn -0.00000 -1.00000 -0.00000
vn -0.00000 -1.00000 -0.00000
vn -0.00000 -1.00000 -0.00000
vn -0.00000 -1.00000 -0.00000
vn -0.00000 -1.00000 -0.00000
vn -0.00000 -1.00000 -0.00000
vn -0.00000 -1.00000 -0.00000
vn -0.00000 -1.00000 -0.00000
vn -0.00000 -1.00000 -0.00000
vn -0.00000 -1.00000 -0.00000
vn -0.00000 -1.00000 -0.00000
vn -0.00000 -1.00000 -0.00000
vn -0.00000 -1.00000 -0.00000
vn -0.00000 -1.00000 -0.00000
vn -0.00000 -1.00000 -0.00000
vn -0.00000 -1.00000 -0.00000
vn -0.00000 -1.00000 -0.00000
vn -0.00000 -1.00000 -0.00000
vn -0.00000 -1.00000 -0.00000
vn -0.00000 -1.00000 -0.00000
vn -0.00000 -1.00000 -0.00000
vn -0.00000 -1.00000 -0.00000
vn -0.00000 -1.00000 -0.00000
vn -0.00000 -1.00000 -0.00000
vn -0.00000 -1.00000 -0.00000
vn -0.00000 -1.00000 -0.00000
vn -0.00000 -1.00000 -0.00000
vn -0.00000 -1.00000 -0.00000
vn -0.00000 -1.00000 -0.00000
vn -0.00000 -1.00000 -0.00000
vn -0.00000 -1.00000 -0.00000
vn -0.00000 -1.00000 -0.00000
vn -0.00000 -1.00000 -0.00000
vn -0.00000 -1.00000 -0.00000
vn -0.00000 -1.00000 -0.00000
vn -0.00000 -1.00000 -0.00000
vn -0.00000 -1.00000 -0.00000
vn -0.00000 -1.00000 -0.00000
vn -0.00000 -1.00000 -0.00000
vn -0.00000 -1.00000 -0.00000
vn -0.00000 -1.00000 -0.00000
vn -0.00000 -1.00000 -0.00000
vn -0.00000 -1.00000 -0.00000
vn -0.00000 -1.00000 -0.00000
vn -0.00000 -1.00000 -0.00000
vn -0.00000 -1.00000 -0.00000
vn -0.00000 -1.00000 -0.00000
vn -0.00000 -1.00000 -0.00000
vn -0.00000 -1.00000 -0.00000
vn -0.00000 -1.00000 -0.00000
vn -0.00000 -1.00000 -0.00000
vn -0.00000 -1.00000 -0.00000
vn -0.00000 -1.00000 -0.00000
vn -0.00000 -1.00000 -0.00000
vn -0.00000 -1.00000 -0.00000
vn -0.00000 -1.00000 -0.00000
vn -0.00000 -1.00000 -0.00000
vn -0.00000 -1.00000 -0.00000
vn -0.00000 -1.00000 -0.00000
vn -0.00000 -1.00000 -0.00000
vn -0.00000 -1.00000 -0.00000
vn -0.00000 -1.00000 -0.00000
vn -0.00000 -1.00000 -0.00000
vn -0.00000 -1.00000 -0.00000
vn -0.00000 -1.00000 -0.00000
vn -0.00000 -1.00000 -0.00000
vn -0.00000 -1.00000 -0.00000
vn -0.00000 -1.00000 -0.00000
vn -0.00000 -1.00000 -0.00000
vn -0.00000 -1.00000 -0.00000
vn -0.00000 -1.00000 -0.00000
vn -0.00000 -1.00000 -0.00000
vn -0.00000 -1.00000 -0.00000
vn -0.00000 -1.00000 -0.00000
vn -0.00000 -1.00000 -0.00000
f 1/1/1 2/2/2 67/67/67
f 1/1/1 67/67/67 66/66/66
f 2/2/2 3/3/3 68/68/68
f 2/2/2 68/68/68 67/67/67
f 3/3/3 4/4/4 69/69/69
f 3/3/3 69/69/69 68/68/68
f 4/4/4 5/5/5 70/70/70
f 4/4/4 70/70/70 69/69/69
f 5/5/5 6/6/6 71/71/71
f 5/5/5 71/71/71 70/70/70
f 6/6/6 7/7/7 72/72/72
f 6/6/6 72/72/72 71/71/71
f 7/7/7 8/8/8 73/73/73
f 7/7/7 73/73/73 72/72/72
f 8/8/8 9/9/9 74/74/74
f 8/8/8 74/74/74 73/73/73
f 9/9/9 10/10/10 75/75/75
f 9/9/9 75/75/75 74/74/74
f 10/10/10 11/11/11 76/76/76
f 10/10/10 76/76/76 75/75/75
f 11/11/11 12/12/12 77/77/77
f 11/11/11 77/77/77 76/76/76
f 12/12/12 13/13/13 78/78/78
f 12/12/12 78/78/78 77/77/77
f 13/13/13 14/14/14 79/79/79
f 13/13/13 79/79/79 78/78/78
f 14/14/14 15/15/15 80/80/80
f 14/14/14 80/80/80 79/79/79
f 15/15/15 16/16/16 81/81/81
f 15/15/15 81/81/81 80/80/80
f 16/16/16 17/17/17 82/82/82
f 16/16/16 82/82/82 81/81/81
f 17/17/17 18/18/18 83/83/83
f 17/17/17 83/83/83 82/82/82
f 18/18/18 19/19/19 84/84/84
f 18/18/18 84/84/84 83/83/83
f 19/19/19 20/20/20 85/85/85
f 19/19/19 85/85/85 84/84/84
f 20/20/20 21/21/21 86/86/86
f 20/20/20 86/86/86 85/85/85
f 21/21/21 22/22/22 87/87/87
f 21/21/21 87/87/87 86/86/86
f 22/22/22 23/23/23 88/88/88
f 22/22/22 88/88/88 87/87/87
f 23/23/23 24/24/24 89/89/89
f 23/23/23 89/89/89 88/88/88
f 24/24/24 25/25/25 90/90/90
f 24/24/24 90/90/90 89/89/89
f 25/25/25 26/26/26 91/91/91
f 25/25/25 91/91/91 90/90/90
f 26/26/26 27/27/27 92/92/92
f 26/26/26 92/92/92 91/91/91
f 27/27/27 28/28/28 93/93/93
f 27/27/27 93/93/93 92/92/92
f 28/28/28 29/29/29 94/94/94
f 28/28/28 94/94/94 93/93/93
f 29/29/29 30/30/30 95/95/95
f 29/29/29 95/95/95 94/94/94
f 30/30/30 31/31/31 96/96/96
f 30/30/30 96/96/96 95/95/95
f 31/31/31 32/32/32 97/97/97
f 31/31/31 97/97/97 96/96/96
f 32/32/32 33/33/33 98/98/98
f 32/32/32 98/98/98 97/97/97
f 33/33/33 34/34/34 99/99/99
f 33/33/33 99/99/99 98/98/98
f 34/34/34 35/35/35 100/100/100
f 34/34/34 100/100/100 99/99/99
f 35/35/35 36/36/36 101/101/101
f 35/35/35 101/101/101 100/100/100
f 36/36/36 37/37/37 102/102/102
f 36/36/36 102/102/102 101/101/101
f 37/37/37 38/38/38 103/103/103
f 37/37/37 103/103/103 102/102/102
f 38/38/38 39/39/39 104/104/104
f 38/38/38 104/104/104 103/103/103
f 39/39/39 40/40/40 105/105/105
f 39/39/39 105/105/105 104/104/104
f 40/40/40 41/41/41 106/106/106
f 40/40/40 106/106/106 105/105/105
f 41/41/41 42/42/42 107/107/107
f 41/41/41 107/107/107 106/106/106
f 42/42/42 43/43/43 108/108/108
f 42/42/42 108/108/108 107/107/107
f 43/43/43 44/44/44 109/109/109
f 43/43/43 109/109/109 108/108/108
f 44/44/44 45/45/45 110/110/110
f 44/44/44 110/110/110 109/109/109
f 45/45/45 46/46/46 111/111/111
f 45/45/45 111/111/111 110/110/110
f 46/46/46 47/47/47 112/112/112
f 46/46/46 112/112/112 111/111/111
f 47/47/47 48/48/48 113/113/113
f 47/47/47 113/113/113 112/112/112
f 48/48/48 49/49/49 114/114/114
f 48/48/48 114/114/114 113/113/113
f 49/49/49 50/50/50 115/115/115
f 49/49/49 115/115/115 114/114/114
f 50/50/50 51/51/51 116/116/116
f 50/50/50 116/116/116 115/115/115
f 51/51/51 52/52/52 117/117/117
f 51/51/51 117/117/117 116/116/116
f 52/52/52 53/53/53 118/118/118
f 52/52/52 118/118/118 117/117/117
f 53/53/53 54/54/54 119/119/119
f 53/53/53 119/119/119 118/118/118
f 54/54/54 55/55/55 120/120/120
f 54/54/54 120/120/120 119/119/119
f 55/55/55 56/56/56 121/121/121
f 55/55/55 121/121/121 120/120/120
f 56/56/56 57/57/57 122/122/122
f 56/56/56 122/122/122 121/121/121
f 57/57/57 58/58/58 123/123/123
f 57/57/57 123/123/123 122/122/122
f 58/58/58 59/59/59 124/124/124
f 58/58/58 124/124/124 123/123/123
f 59/59/59 60/60/60 125/125/125
f 59/59/59 125/125/125 124/124/124
f 60/60/60 61/61/61 126/126/126
f 60/60/60 126/126/126 125/125/125
f 61/61/61 62/62/62 127/127/127
f 61/61/61 127/127/127 126/126/126
f 62/62/62 63/63/63 128/128/128
f 62/62/62 128/128/128 127/127/127
f 63/63/63 64/64/64 129/129/129
f 63/63/63 129/129/129 128/128/128
f 64/64/64 65/65/65 130/130/130
f 64/64/64 130/130/130 129/129/129
f 66/66/66 67/67/67 132/132/132
f 66/66/66 132/132/132 131/131/131
f 67/67/67 68/68/68 133/133/133
f 67/67/67 133/133/133 132/132/132
f 68/68/68 69/69/69 134/134/134
f 68/68/68 134/134/134 133/133/133
f 69/69/69 70/70/70 135/135/135
f 69/69/69 135/135/135 134/134/134
f 70/70/70 71/71/71 136/136/136
f 70/70/70 136/136/136 135/135/135
f 71/71/71 72/72/72 137/137/137
f 71/71/71 137/137/137 136/136/136
f 72/72/72 73/73/73 138/138/138
f 72/72/72 138/138/138 137/137/137
f 73/73/73 74/74/74 139/139/139
f 73/73/73 139/139/139 138/138/138
f 74/74/74 75/75/75 140/140/140
f 74/74/74 140/140/140 139/139/139
f 75/75/75 76/76/76 141/141/141
f 75/75/75 141/141/141 140/140/140
f 76/76/76 77/77/77 142/142/142
f 76/76/76 142/142/142 141/141/141
f 77/77/77 78/78/78 143/143/143
f 77/77/77 143/143/143 142/142/142
f 78/78/78 79/79/79 144/144/144
f 78/78/78 144/144/144 143/143/143
f 79/79/79 80/80/80 145/145/145
f 79/79/79 145/145/145 144/144/144
f 80/80/80 81/81/81 146/146/146
f 80/80/80 146/146/146 145/145/145
f 81/81/81 82/82/82 147/147/147
f 81/81/81 147/147/147 146/146/146
f 82/82/82 83/83/83 148/148/148
f 82/82/82 148/148/148 147/147/147
f 83/83/83 84/84/84 149/149/149
f 83/83/83 149/149/149 148/148/148
f 84/84/84 85/85/85 150/150/150
f 84/84/84 150/150/150 149/149/149
f 85/85/85 86/86/86 151/151/151
f 85/85/85 151/151/151 150/150/150
f 86/86/86 87/87/87 152/152/152
f 86/86/86 152/152/152 151/151/151
f 87/87/87 88/88/88 153/153/153
f 87/87/87 153/153/153 152/152/152
f 88/88/88 89/89/89 154/154/154
f 88/88/88 154/154/154 153/153/153
f 89/89/89 90/90/90 155/155/155
f 89/89/89 155/155/155 154/154/154
f 90/90/90 91/91/91 156/156/156
f 90/90/90 156/156/156 155/155/155
f 91/91/91 92/92/92 157/157/157
f 91/91/91 157/157/157 156/156/156
f 92/92/92 93/93/93 158/158/158
f 92/92/92 158/158/158 157/157/157
f 93/93/93 94/94/94 159/159/159
f 93/93/93 159/159/159 158/158/158
f 94/94/94 95/95/95 160/160/160
f 94/94/94 160/160/160 159/159/159
f 95/95/95 96/96/96 161/161/161
f 95/95/95 161/161/161 160/160/160
f 96/96/96 97/97/97 162/162/162
f 96/96/96 162/162/162 161/161/161
f 97/97/97 98/98/98 163/163/163
f 97/97/97 163/163/163 162/162/162
f 98/98/98 99/99/99 164/164/164
f 98/98/98 164/164/164 163/163/163
f 99/99/99 100/100/100 165/165/165
f 99/99/99 165/165/165 164/164/164
f 100/100/100 101/101/101 166/166/166
f 100/100/100 166/166/166 165/165/165
f 101/101/101 102/102/102 167/167/167
f 101/101/101 167/167/167 166/166/166
f 102/102/102 103/103/103 168/168/168
f 102/102/102 168/168/168 167/167/167
f 103/103/103 104/104/104 169/169/169
f 103/103/103 169/169/169 168/168/168
f 104/104/104 105/105/105 170/170/170
f 104/104/104 170/170/170 169/169/169
f 105/105/105 106/106/106 171/171/171
f 105/105/105 171/171/171 170/170/170
f 106/106/106 107/107/107 172/172/172
f 106/106/106 172/172/172 171/171/171
f 107/107/107 108/108/108 173/173/173
f 107/107/107 173/173/173 172/172/172
f 108/108/108 109/109/109 174/174/174
f 108/108/108 174/174/174 173/173/173
f 109/109/109 110/110/110 175/175/175
f 109/109/109 175/175/175 174/174/174
f 110/110/110 111/111/111 176/176/176
f 110/110/110 176/176/176 175/175/175
f 111/111/111 112/112/112 177/177/177
f 111/111/111 177/177/177 176/176/176
f 112/112/112 113/113/113 178/178/178
f 112/112/112 178/178/178 177/177/177
f 113/113/113 114/114/114 179/179/179
f 113/113/113 179/179/179 178/178/178
f 114/114/114 115/115/115 180/180/180
f 114/114/114 180/180/180 179/179/179
f 115/115/115 116/116/116 181/181/181
f 115/115/115 181/181/181 180/180/180
f 116/116/116 117/117/117 182/182/182
f 116/116/116 182/182/182 181/181/181
f 117/117/117 118/118/118 183/183/183
f 117/117/117 183/183/183 182/182/182
f 118/118/118 119/119/119 184/184/184
f 118/118/118 184/184/184 183/183/183
f 119/119/119 120/120/120 185/185/185
f 119/119/119 185/185/185 184/184/184
f 120/120/120 121/121/121 186/186/186
f 120/120/120 186/186/186 185/185/185
f 121/121/121 122/122/122 187/187/187
f 121/121/121 187/187/187 186/186/186
f 122/122/122 123/123/123 188/188/188
f 122/122/122 188/188/188 187/187/187
f 123/123/123 124/124/124 189/189/189
f 123/123/123 189/189/189 188/188/188
f 124/124/124 125/125/125 190/190/190
f 124/124/124 190/190/190 189/189/189
f 125/125/125 126/126/126 191/191/191
f 125/125/125 191/191/191 190/190/190
f 126/126/126 127/127/127 192/192/192
f 126/126/126 192/192/192 191/191/191
f 127/127/127 128/128/128 193/193/193
f 127/127/127 193/193/193 192/192/192
f 128/128/128 129/129/129 194/194/194
f 128/128/128 194/194/194 193/193/193
f 129/129/129 130/130/130 195/195/195
f 129/129/129 195/195/195 194/194/194
f 131/131/131 132/132/132 197/197/197
f 131/131/131 197/197/197 196/196/196
f 132/132/132 133/133/133 198/198/198
f 132/132/132 198/198/198 197/197/197
f 133/133/133 134/134/134 199/199/199
f 133/133/133 199/199/199 198/198/198
f 134/134/134 135/135/135 200/200/200
f 134/134/134 200/200/200 199/199/199
f 135/135/135 136/136/136 201/201/201
f 135/135/135 201/201/201 200/200/200
f 136/136/136 137/137/137 202/202/202
f 136/136/136 202/202/202 201/201/201
f 137/137/137 138/138/138 203/203/203
f 137/137/137 203/203/203 202/202/202
f 138/138/138 139/139/139 204/204/204
f 138/138/138 204/204/204 203/203/203
f 139/139/139 140/140/140 205/205/205
f 139/139/139 205/205/205 204/204/204
f 140/140/140 141/141/141 206/206/206
f 140/140/140 206/206/206 205/205/205
f 141/141/141 142/142/142 207/207/207
f 141/141/141 207/207/207 206/206/206
f 142/142/142 143/143/143 208/208/208
f 142/142/142 208/208/208 207/207/207
f 143/143/143 144/144/144 209/209/209
f 143/143/143 209/209/209 208/208/208
f 144/144/144 145/145/145 210/210/210
f 144/144/144 210/210/210 209/209/209
f 145/145/145 146/146/146 211/211/211
f 145/145/145 211/211/211 210/210/210
f 146/146/146 147/147/147 212/212/212
f 146/146/146 212/212/212 211/211/211
f 147/147/147 148/148/148 213/213/213
f 147/147/147 213/213/213 212/212/212
f 148/148/148 149/149/149 214/214/214
f 148/148/148 214/214/214 213/213/213
f 149/149/149 150/150/150 215/215/215
f 149/149/149 215/215/215 214/214/214
f 150/150/150 151/151/151 216/216/216
f 150/150/150 216/216/216 215/215/215
f 151/151/151 152/152/152 217/217/217
f 151/151/151 217/217/217 216/216/216
f 152/152/152 153/153/153 218/218/218
f 152/152/152 218/218/218 217/217/217
f 153/153/153 154/154/154 219/219/219
f 153/153/153 219/219/219 218/218/218
f 154/154/154 155/155/155 220/220/220
f 154/154/154 220/220/220 219/219/219
f 155/155/155 156/156/156 221/221/221
f 155/155/155 221/221/221 220/220/220
f 156/156/156 157/157/157 222/222/222
f 156/156/156 222/222/222 221/221/221
f 157/157/157 158/158/158 223/223/223
f 157/157/157 223/223/223 222/222/222
f 158/158/158 159/159/159 224/224/224
f 158/158/158 224/224/224 223/223/223
f 159/159/159 160/160/160 225/225/225
f 159/159/159 225/225/225 224/224/224
f 160/160/160 161/161/161 226/226/226
f 160/160/160 226/226/226 225/225/225
f 161/161/161 162/162/162 227/227/227
f 161/161/161 227/227/227 226/226/226
f 162/162/162 163/163/163 228/228/228
f 162/162/162 228/228/228 227/227/227
f 163/163/163 164/164/164 229/229/229
f 163/163/163 229/229/229 228/228/228
f 164/164/164 165/165/165 230/230/230
f 164/164/164 230/230/230 229/229/229
f 165/165/165 166/166/166 231/231/231
f 165/165/165 231/231/231 230/230/230
f 166/166/166 167/167/167 232/232/232
f 166/166/166 232/232/232 231/231/231
f 167/167/167 168/168/168 233/233/233
f 167/167/167 233/233/233 232/232/232
f 168/168/168 169/169/169 234/234/234
f 168/168/168 234/234/234 233/233/233
f 169/169/169 170/170/170 235/235/235
f 169/169/169 235/235/235 234/234/234
f 170/170/170 171/171/171 236/236/236
f 170/170/170 236/236/236 235/235/235
f 171/171/171 172/172/172 237/237/237
f 171/171/171 237/237/237 236/236/236
f 172/172/172 173/173/173 238/238/238
f 172/172/172 238/238/238 237/237/237
f 173/173/173 174/174/174 239/239/239
f 173/173/173 239/239/239 238/238/238
f 174/174/174 175/175/175 240/240/240
f 174/174/174 240/240/240 239/239/239
f 175/175/175 176/176/176 241/241/241
f 175/175/175 241/241/241 240/240/240
f 176/176/176 177/177/177 242/242/242
f 176/176/176 242/242/242 241/241/241
f 177/177/177 178/178/178 243/243/243
f 177/177/177 243/243/243 242/242/242
f 178/178/178 179/179/179 244/244/244
f 178/178/178 244/244/244 243/243/243
f 179/179/179 180/180/180 245/245/245
f 179/179/179 245/245/245 244/244/244
f 180/180/180 181/181/181 246/246/246
f 180/180/180 246/246/246 245/245/245
f 181/181/181 182/182/182 247/247/247
f 181/181/181 247/247/247 246/246/246
f 182/182/182 183/183/183 248/248/248
f 182/182/182 248/248/248 247/247/247
f 183/183/183 184/184/184 249/249/249
f 183/183/183 249/249/249 248/248/248
f 184/184/184 185/185/185 250/250/250
f 184/184/184 250/250/250 249/249/249
f 185/185/185 186/186/186 251/251/251
f 185/185/185 251/251/251 250/250/250
f 186/186/186 187/187/187 252/252/252
f 186/186/186 252/252/252 251/251/251
f 187/187/187 188/188/188 253/253/253
f 187/187/187 253/253/253 252/252/252
f 188/188/188 189/189/189 254/254/254
f 188/188/188 254/254/254 253/253/253
f 189/189/189 190/190/190 255/255/255
f 189/189/189 255/255/255 254/254/254
f 190/190/190 191/191/191 256/256/256
f 190/190/190 256/256/256 255/255/255
f 191/191/191 192/192/192 257/257/257
f 191/191/191 257/257/257 256/256/256
f 192/192/192 193/193/193 258/258/258
f 192/192/192 258/258/258 257/257/257
f 193/193/193 194/194/194 259/259/259
f 193/193/193 259/259/259 258/258/258
f 194/194/194 195/195/195 260/260/260
f 194/194/194 260/260/260 259/259/259
f 196/196/196 197/197/197 262/262/262
f 196/196/196 262/262/262 261/261/261
f 197/197/197 198/198/198 263/263/263
f 197/197/197 263/263/263 262/262/262
f 198/198/198 199/199/199 264/264/264
f 198/198/198 264/264/264 263/263/263
f 199/199/199 200/200/200 265/265/265
f 199/199/199 265/265/265 264/264/264
f 200/200/200 201/201/201 266/266/266
f 200/200/200 266/266/266 265/265/265
f 201/201/201 202/202/202 267/267/267
f 201/201/201 267/267/267 266/266/266
f 202/202/202 203/203/203 268/268/268
f 202/202/202 268/268/268 267/267/267
f 203/203/203 204/204/204 269/269/269
f 203/203/203 269/269/269 268/268/268
f 204/204/204 205/205/205 270/270/270
f 204/204/204 270/270/270 269/269/269
f 205/205/205 206/206/206 271/271/271
f 205/205/205 271/271/271 270/270/270
f 206/206/206 207/207/207 272/272/272
f 206/206/206 272/272/272 271/271/271
f 207/207/207 208/208/208 273/273/273
f 207/207/207 273/273/273 272/272/272
f 208/208/208 209/209/209 274/274/274
f 208/208/208 274/274/274 273/273/273
f 209/209/209 210/210/210 275/275/275
f 209/209/209 275/275/275 274/274/274
f 210/210/210 211/211/211 276/276/276
f 210/210/210 276/276/276 275/275/275
f 211/211/211 212/212/212 277/277/277
f 211/211/211 277/277/277 276/276/276
f 212/212/212 213/213/213 278/278/278
f 212/212/212 278/278/278 277/277/277
f 213/213/213 214/214/214 279/279/279
f 213/213/213 279/279/279 278/278/278
f 214/214/214 215/215/215 280/280/280
f 214/214/214 280/280/280 279/279/279
f 215/215/215 216/216/216 281/281/281
f 215/215/215 281/281/281 280/280/280
f 216/216/216 217/217/217 282/282/282
f 216/216/216 282/282/282 281/281/281
f 217/217/217 218/218/218 283/283/283
f 217/217/217 283/283/283 282/282/282
f 218/218/218 219/219/219 284/284/284
f 218/218/218 284/284/284 283/283/283
f 219/219/219 220/220/220 285/285/285
f 219/219/219 285/285/285 284/284/284
f 220/220/220 221/221/221 286/286/286
f 220/220/220 286/286/286 285/285/285
f 221/221/221 222/222/222 287/287/287
f 221/221/221 287/287/287 286/286/286
f 222/222/222 223/223/223 288/288/288
f 222/222/222 288/288/288 287/287/287
f 223/223/223 224/224/224 289/289/289
f 223/223/223 289/289/289 288/288/288
f 224/224/224 225/225/225 290/290/290
f 224/224/224 290/290/290 289/289/289
f 225/225/225 226/226/226 291/291/291
f 225/225/225 291/291/291 290/290/290
f 226/226/226 227/227/227 292/292/292
f 226/226/226 292/292/292 291/291/291
f 227/227/227 228/228/228 293/293/293
f 227/227/227 293/293/293 292/292/292
f 228/228/228 229/229/229 294/294/294
f 228/228/228 294/294/294 293/293/293
f 229/229/229 230/230/230 295/295/295
f 229/229/229 295/295/295 294/294/294
f 230/230/230 231/231/231 296/296/296
f 230/230/230 296/296/296 295/295/295
f 231/231/231 232/232/232 297/297/297
f 231/231/231 297/297/297 296/296/296
f 232/232/232 233/233/233 298/298/298
f 232/232/232 298/298/298 297/297/297
f 233/233/233 234/234/234 299/299/299
f 233/233/233 299/299/299 298/298/298
f 234/234/234 235/235/235 300/300/300
f 234/234/234 300/300/300 299/299/299
f 235/235/235 236/236/236 301/301/301
f 235/235/235 301/301/301 300/300/300
f 236/236/236 237/237/237 302/302/302
f 236/236/236 302/302/302 301/301/301
f 237/237/237 238/238/238 303/303/303
f 237/237/237 303/303/303 302/302/302
f 238/238/238 239/239/239 304/304/304
f 238/238/238 304/304/304 303/303/303
f 239/239/239 240/240/240 305/305/305
f 239/239/239 305/305/305 304/304/304
f 240/240/240 241/241/241 306/306/306
f 240/240/240 306/306/306 305/305/305
f 241/241/241 242/242/242 307/307/307
f 241/241/241 307/307/307 306/306/306
f 242/242/242 243/243/243 308/308/308
f 242/242/242 308/308/308 307/307/307
f 243/243/243 244/244/244 309/309/309
f 243/243/243 309/309/309 308/308/308
f 244/244/244 245/245/245 310/310/310
f 244/244/244 310/310/310 309/309/309
f 245/245/245 246/246/246 311/311/311
f 245/245/245 311/311/311 310/310/310
f 246/246/246 247/247/247 312/312/312
f 246/246/246 312/312/312 311/311/311
f 247/247/247 248/248/248 313/313/313
f 247/247/247 313/313/313 312/312/312
f 248/248/248 249/249/249 314/314/314
f 248/248/248 314/314/314 313/313/313
f 249/249/249 250/250/250 315/315/315
f 249/249/249 315/315/315 314/314/314
f 250/250/250 251/251/251 316/316/316
f 250/250/250 316/316/316 315/315/315
f 251/251/251 252/252/252 317/317/317
f 251/251/251 317/317/317 316/316/316
f 252/252/252 253/253/253 318/318/318
f 252/252/252 318/318/318 317/317/317
f 253/253/253 254/254/254 319/319/319
f 253/253/253 319/319/319 318/318/318
f 254/254/254 255/255/255 320/320/320
f 254/254/254 320/320/320 319/319/319
f 255/255/255 256/256/256 321/321/321
f 255/255/255 321/321/321 320/320/320
f 256/256/256 257/257/257 322/322/322
f 256/256/256 322/322/322 321/321/321
f 257/257/257 258/258/258 323/323/323
f 257/257/257 323/323/323 322/322/322
f 258/258/258 259/259/259 324/324/324
f 258/258/258 324/324/324 323/323/323
f 259/259/259 260/260/260 325/325/325
f 259/259/259 325/325/325 324/324/324
f 326/326/326 391/391/391 392/392/392
f 326/326/326 392/392/392 327/327/327
f 327/327/327 392/392/392 393/393/393
f 327/327/327 393/393/393 328/328/328
f 328/328/328 393/393/393 394/394/394
f 328/328/328 394/394/394 329/329/329
f 329/329/329 394/394/394 395/395/395
f 329/329/329 395/395/395 330/330/330
f 330/330/330 395/395/395 396/396/396
f 330/330/330 396/396/396 331/331/331
f 331/331/331 396/396/396 397/397/397
f 331/331/331 397/397/397 332/332/332
f 332/332/332 397/397/397 398/398/398
f 332/332/332 398/398/398 333/333/333
f 333/333/333 398/398/398 399/399/399
f 333/333/333 399/399/399 334/334/334
f 334/334/334 399/399/399 400/400/400
f 334/334/334 400/400/400 335/335/335
f 335/335/335 400/400/400 401/401/401
f 335/335/335 401/401/401 336/336/336
f 336/336/336 401/401/401 402/402/402
f 336/336/336 402/402/402 337/337/337
f 337/337/337 402/402/402 403/403/403
f 337/337/337 403/403/403 338/338/338
f 338/338/338 403/403/403 404/404/404
f 338/338/338 404/404/404 339/339/339
f 339/339/339 404/404/404 405/405/405
f 339/339/339 405/405/405 340/340/340
f 340/340/340 405/405/405 406/406/406
f 340/340/340 406/406/406 341/341/341
f 341/341/341 406/406/406 407/407/407
f 341/341/341 407/407/407 342/342/342
f 342/342/342 407/407/407 408/408/408
f 342/342/342 408/408/408 343/343/343
f 343/343/343 408/408/408 409/409/409
f 343/343/343 409/409/409 344/344/344
f 344/344/344 409/409/409 410/410/410
f 344/344/344 410/410/410 345/345/345
f 345/345/345 410/410/410 411/411/411
f 345/345/345 411/411/411 346/346/346
f 346/346/346 411/411/411 412/412/412
f 346/346/346 412/412/412 347/347/347
f 347/347/347 412/412/412 413/413/413
f 347/347/347 413/413/413 348/348/348
f 348/348/348 413/413/413 414/414/414
f 348/348/348 414/414/414 349/349/349
f 349/349/349 414/414/414 415/415/415
f 349/349/349 415/415/415 350/350/350
f 350/350/350 415/415/415 416/416/416
f 350/350/350 416/416/416 351/351/351
f 351/351/351 416/416/416 417/417/417
f 351/351/351 417/417/417 352/352/352
f 352/352/352 417/417/417 418/418/418
f 352/352/352 418/418/418 353/353/353
f 353/353/353 418/418/418 419/419/419
f 353/353/353 419/419/419 354/354/354
f 354/354/354 419/419/419 420/420/420
f 354/354/354 420/420/420 355/355/355
f 355/355/355 420/420/420 421/421/421
f 355/355/355 421/421/421 356/356/356
f 356/356/356 421/421/421 422/422/422
f 356/356/356 422/422/422 357/357/357
f 357/357/357 422/422/422 423/423/423
f 357/357/357 423/423/423 358/358/358
f 358/358/358 423/423/423 424/424/424
f 358/358/358 424/424/424 359/359/359
f 359/359/359 424/424/424 425/425/425
f 359/359/359 425/425/425 360/360/360
f 360/360/360 425/425/425 426/426/426
f 360/360/360 426/426/426 361/361/361
f 361/361/361 426/426/426 427/427/427
f 361/361/361 427/427/427 362/362/362
f 362/362/362 427/427/427 428/428/428
f 362/362/362 428/428/428 363/363/363
f 363/363/363 428/428/428 429/429/429
f 363/363/363 429/429/429 364/364/364
f 364/364/364 429/429/429 430/430/430
f 364/364/364 430/430/430 365/365/365
f 365/365/365 430/430/430 431/431/431
f 365/365/365 431/431/431 366/366/366
f 366/366/366 431/431/431 432/432/432
f 366/366/366 432/432/432 367/367/367
f 367/367/367 432/432/432 433/433/433
f 367/367/367 433/433/433 368/368/368
f 368/368/368 433/433/433 434/434/434
f 368/368/368 434/434/434 369/369/369
f 369/369/369 434/434/434 435/435/435
f 369/369/369 435/435/435 370/370/370
f 370/370/370 435/435/435 436/436/436
f 370/370/370 436/436/436 371/371/371
f 371/371/371 436/436/436 437/437/437
f 371/371/371 437/437/437 372/372/372
f 372/372/372 437/437/437 438/438/438
f 372/372/372 438/438/438 373/373/373
f 373/373/373 438/438/438 439/439/439
f 373/373/373 439/439/439 374/374/374
f 374/374/374 439/439/439 440/440/440
f 374/374/374 440/440/440 375/375/375
f 375/375/375 440/440/440 441/441/441
f 375/375/375 441/441/441 376/376/376
f 376/376/376 441/441/441 442/442/442
f 376/376/376 442/442/442 377/377/377
f 377/377/377 442/442/442 443/443/443
f 377/377/377 443/443/443 378/378/378
f 378/378/378 443/443/443 444/444/444
f 378/378/378 444/444/444 379/379/379
f 379/379/379 444/444/444 445/445/445
f 379/379/379 445/445/445 380/380/380
f 380/380/380 445/445/445 446/446/446
f 380/380/380 446/446/446 381/381/381
f 381/381/381 446/446/446 447/447/447
f 381/381/381 447/447/447 382/382/382
f 382/382/382 447/447/447 448/448/448
f 382/382/382 448/448/448 383/383/383
f 383/383/383 448/448/448 449/449/449
f 383/383/383 449/449/449 384/384/384
f 384/384/384 449/449/449 450/450/450
f 384/384/384 450/450/450 385/385/385
f 385/385/385 450/450/450 451/451/451
f 385/385/385 451/451/451 386/386/386
f 386/386/386 451/451/451 452/452/452
f 386/386/386 452/452/452 387/387/387
f 387/387/387 452/452/452 453/453/453
f 387/387/387 453/453/453 388/388/388
f 388/388/388 453/453/453 454/454/454
f 388/388/388 454/454/454 389/389/389
f 389/389/389 454/454/454 455/455/455
f 389/389/389 455/455/455 390/390/390
f 391/391/391 456/456/456 457/457/457
f 391/391/391 457/457/457 392/392/392
f 392/392/392 457/457/457 458/458/458
f 392/392/392 458/458/458 393/393/393
f 393/393/393 458/458/458 459/459/459
f 393/393/393 459/459/459 394/394/394
f 394/394/394 459/459/459 460/460/460
f 394/394/394 460/460/460 395/395/395
f 395/395/395 460/460/460 461/461/461
f 395/395/395 461/461/461 396/396/396
f 396/396/396 461/461/461 462/462/462
f 396/396/396 462/462/462 397/397/397
f 397/397/397 462/462/462 463/463/463
f 397/397/397 463/463/463 398/398/398
f 398/398/398 463/463/463 464/464/464
f 398/398/398 464/464/464 399/399/399
f 399/399/399 464/464/464 465/465/465
f 399/399/399 465/465/465 400/400/400
f 400/400/400 465/465/465 466/466/466
f 400/400/400 466/466/466 401/401/401
f 401/401/401 466/466/466 467/467/467
f 401/401/401 467/467/467 402/402/402
f 402/402/402 467/467/467 468/468/468
f 402/402/402 468/468/468 403/403/403
f 403/403/403 468/468/468 469/469/469
f 403/403/403 469/469/469 404/404/404
f 404/404/404 469/469/469 470/470/470
f 404/404/404 470/470/470 405/405/405
f 405/405/405 470/470/470 471/471/471
f 405/405/405 471/471/471 406/406/406
f 406/406/406 471/471/471 472/472/472
f 406/406/406 472/472/472 407/407/407
f 407/407/407 472/472/472 473/473/473
f 407/407/407 473/473/473 408/408/408
f 408/408/408 473/473/473 474/474/474
f 408/408/408 474/474/474 409/409/409
f 409/409/409 474/474/474 475/475/475
f 409/409/409 475/475/475 410/410/410
f 410/410/410 475/475/475 476/476/476
f 410/410/410 476/476/476 411/411/411
f 411/411/411 476/476/476 477/477/477
f 411/411/411 477/477/477 412/412/412
f 412/412/412 477/477/477 478/478/478
f 412/412/412 478/478/478 413/413/413
f 413/413/413 478/478/478 479/479/479
f 413/413/413 479/479/479 414/414/414
f 414/414/414 479/479/479 480/480/480
f 414/414/414 480/480/480 415/415/415
f 415/415/415 480/480/480 481/481/481
f 415/415/415 481/481/481 416/416/416
f 416/416/416 481/481/481 482/482/482
f 416/416/416 482/482/482 417/417/417
f 417/417/417 482/482/482 483/483/483
f 417/417/417 483/483/483 418/418/418
f 418/418/418 483/483/483 484/484/484
f 418/418/418 484/484/484 419/419/419
f 419/419/419 484/484/484 485/485/485
f 419/419/419 485/485/485 420/420/420
f 420/420/420 485/485/485 486/486/486
f 420/420/420 486/486/486 421/421/421
f 421/421/421 486/486/486 487/487/487
f 421/421/421 487/487/487 422/422/422
f 422/422/422 487/487/487 488/488/488
f 422/422/422 488/488/488 423/423/423
f 423/423/423 488/488/488 489/489/489
f 423/423/423 489/489/489 424/424/424
f 424/424/424 489/489/489 490/490/490
f 424/424/424 490/490/490 425/425/425
f 425/425/425 490/490/490 491/491/491
f 425/425/425 491/491/491 426/426/426
f 426/426/426 491/491/491 492/492/492
f 426/426/426 492/492/492 427/427/427
f 427/427/427 492/492/492 493/493/493
f 427/427/427 493/493/493 428/428/428
f 428/428/428 493/493/493 494/494/494
f 428/428/428 494/494/494 429/429/429
f 429/429/429 494/494/494 495/495/495
f 429/429/429 495/495/495 430/430/430
f 430/430/430 495/495/495 496/496/496
f 430/430/430 496/496/496 431/431/431
f 431/431/431 496/496/496 497/497/497
f 431/431/431 497/497/497 432/432/432
f 432/432/432 497/497/497 498/498/498
f 432/432/432 498/498/498 433/433/433
f 433/433/433 498/498/498 499/499/499
f 433/433/433 499/499/499 434/434/434
f 434/434/434 499/499/499 500/500/500
f 434/434/434 500/500/500 435/435/435
f 435/435/435 500/500/500 501/501/501
f 435/435/435 501/501/501 436/436/436
f 436/436/436 501/501/501 502/502/502
f 436/436/436 502/502/502 437/437/437
f 437/437/437 502/502/502 503/503/503
f 437/437/437 503/503/503 438/438/438
f 438/438/438 503/503/503 504/504/504
f 438/438/438 504/504/504 439/439/439
f 439/439/439 504/504/504 505/505/505
f 439/439/439 505/505/505 440/440/440
f 440/440/440 505/505/505 506/506/506
f 440/440/440 506/506/506 441/441/441
f 441/441/441 506/506/506 507/507/507
f 441/441/441 507/507/507 442/442/442
f 442/442/442 507/507/507 508/508/508
f 442/442/442 508/508/508 443/443/443
f 443/443/443 508/508/508 509/509/509
f 443/443/443 509/509/509 444/444/444
f 444/444/444 509/509/509 510/510/510
f 444/444/444 510/510/510 445/445/445
f 445/445/445 510/510/510 511/511/511
f 445/445/445 511/511/511 446/446/446
f 446/446/446 511/511/511 512/512/512
f 446/446/446 512/512/512 447/447/447
f 447/447/447 512/512/512 513/513/513
f 447/447/447 513/513/513 448/448/448
f 448/448/448 513/513/513 514/514/514
f 448/448/448 514/514/514 449/449/449
f 449/449/449 514/514/514 515/515/515
f 449/449/449 515/515/515 450/450/450
f 450/450/450 515/515/515 516/516/516
f 450/450/450 516/516/516 451/451/451
f 451/451/451 516/516/516 517/517/517
f 451/451/451 517/517/517 452/452/452
f 452/452/452 517/517/517 518/518/518
f 452/452/452 518/518/518 453/453/453
f 453/453/453 518/518/518 519/519/519
f 453/453/453 519/519/519 454/454/454
f 454/454/454 519/519/519 520/520/520
f 454/454/454 520/520/520 455/455/455
f 456/456/456 521/521/521 522/522/522
f 456/456/456 522/522/522 457/457/457
f 457/457/457 522/522/522 523/523/523
f 457/457/457 523/523/523 458/458/458
f 458/458/458 523/523/523 524/524/524
f 458/458/458 524/524/524 459/459/459
f 459/459/459 524/524/524 525/525/525
f 459/459/459 525/525/525 460/460/460
f 460/460/460 525/525/525 526/526/526
f 460/460/460 526/526/526 461/461/461
f 461/461/461 526/526/526 527/527/527
f 461/461/461 527/527/527 462/462/462
f 462/462/462 527/527/527 528/528/528
f 462/462/462 528/528/528 463/463/463
f 463/463/463 528/528/528 529/529/529
f 463/463/463 529/529/529 464/464/464
f 464/464/464 529/529/529 530/530/530
f 464/464/464 530/530/530 465/465/465
f 465/465/465 530/530/530 531/531/531
f 465/465/465 531/531/531 466/466/466
f 466/466/466 531/531/531 532/532/532
f 466/466/466 532/532/532 467/467/467
f 467/467/467 532/532/532 533/533/533
f 467/467/467 533/533/533 468/468/468
f 468/468/468 533/533/533 534/534/534
f 468/468/468 534/534/534 469/469/469
f 469/469/469 534/534/534 535/535/535
f 469/469/469 535/535/535 470/470/470
f 470/470/470 535/535/535 536/536/536
f 470/470/470 536/536/536 471/471/471
f 471/471/471 536/536/536 537/537/537
f 471/471/471 537/537/537 472/472/472
f 472/472/472 537/537/537 538/538/538
f 472/472/472 538/538/538 473/473/473
f 473/473/473 538/538/538 539/539/539
f 473/473/473 539/539/539 474/474/474
f 474/474/474 539/539/539 540/540/540
f 474/474/474 540/540/540 475/475/475
f 475/475/475 540/540/540 541/541/541
f 475/475/475 541/541/541 476/476/476
f 476/476/476 541/541/541 542/542/542
f 476/476/476 542/542/542 477/477/477
f 477/477/477 542/542/542 543/543/543
f 477/477/477 543/543/543 478/478/478
f 478/478/478 543/543/543 544/544/544
f 478/478/478 544/544/544 479/479/479
f 479/479/479 544/544/544 545/545/545
f 479/479/479 545/545/545 480/480/480
f 480/480/480 545/545/545 546/546/546
f 480/480/480 546/546/546 481/481/481
f 481/481/481 546/546/546 547/547/547
f 481/481/481 547/547/547 482/482/482
f 482/482/482 547/547/547 548/548/548
f 482/482/482 548/548/548 483/483/483
f 483/483/483 548/548/548 549/549/549
f 483/483/483 549/549/549 484/484/484
f 484/484/484 549/549/549 550/550/550
f 484/484/484 550/550/550 485/485/485
f 485/485/485 550/550/550 551/551/551
f 485/485/485 551/551/551 486/486/486
f 486/486/486 551/551/551 552/552/552
f 486/486/486 552/552/552 487/487/487
f 487/487/487 552/552/552 553/553/553
f 487/487/487 553/553/553 488/488/488
f 488/488/488 553/553/553 554/554/554
f 488/488/488 554/554/554 489/489/489
f 489/489/489 554/554/554 555/555/555
f 489/489/489 555/555/555 490/490/490
f 490/490/490 555/555/555 556/556/556
f 490/490/490 556/556/556 491/491/491
f 491/491/491 556/556/556 557/557/557
f 491/491/491 557/557/557 492/492/492
f 492/492/492 557/557/557 558/558/558
f 492/492/492 558/558/558 493/493/493
f 493/493/493 558/558/558 559/559/559
f 493/493/493 559/559/559 494/494/494
f 494/494/494 559/559/559 560/560/560
f 494/494/494 560/560/560 495/495/495
f 495/495/495 560/560/560 561/561/561
f 495/495/495 561/561/561 496/496/496
f 496/496/496 561/561/561 562/562/562
f 496/496/496 562/562/562 497/497/497
f 497/497/497 562/562/562 563/563/563
f 497/497/497 563/563/563 498/498/498
f 498/498/498 563/563/563 564/564/564
f 498/498/498 564/564/564 499/499/499
f 499/499/499 564/564/564 565/565/565
f 499/499/499 565/565/565 500/500/500
f 500/500/500 565/565/565 566/566/566
f 500/500/500 566/566/566 501/501/501
f 501/501/501 566/566/566 567/567/567
f 501/501/501 567/567/567 502/502/502
f 502/502/502 567/567/567 568/568/568
f 502/502/502 568/568/568 503/503/503
f 503/503/503 568/568/568 569/569/569
f 503/503/503 569/569/569 504/504/504
f 504/504/504 569/569/569 570/570/570
f 504/504/504 570/570/570 505/505/505
f 505/505/505 570/570/570 571/571/571
f 505/505/505 571/571/571 506/506/506
f 506/506/506 571/571/571 572/572/572
f 506/506/506 572/572/572 507/507/507
f 507/507/507 572/572/572 573/573/573
f 507/507/507 573/573/573 508/508/508
f 508/508/508 573/573/573 574/574/574
f 508/508/508 574/574/574 509/509/509
f 509/509/509 574/574/574 575/575/575
f 509/509/509 575/575/575 510/510/510
f 510/510/510 575/575/575 576/576/576
f 510/510/510 576/576/576 511/511/511
f 511/511/511 576/576/576 577/577/577
f 511/511/511 577/577/577 512/512/512
f 512/512/512 577/577/577 578/578/578
f 512/512/512 578/578/578 513/513/513
f 513/513/513 578/578/578 579/579/579
f 513/513/513 579/579/579 514/514/514
f 514/514/514 579/579/579 580/580/580
f 514/514/514 580/580/580 515/515/515
f 515/515/515 580/580/580 581/581/581
f 515/515/515 581/581/581 516/516/516
f 516/516/516 581/581/581 582/582/582
f 516/516/516 582/582/582 517/517/517
f 517/517/517 582/582/582 583/583/583
f 517/517/517 583/583/583 518/518/518
f 518/518/518 583/583/583 584/584/584
f 518/518/518 584/584/584 519/519/519
f 519/519/519 584/584/584 585/585/585
f 519/519/519 585/585/585 520/520/520
f 521/521/521 586/586/586 587/587/587
f 521/521/521 587/587/587 522/522/522
f 522/522/522 587/587/587 588/588/588
f 522/522/522 588/588/588 523/523/523
f 523/523/523 588/588/588 589/589/589
f 523/523/523 589/589/589 524/524/524
f 524/524/524 589/589/589 590/590/590
f 524/524/524 590/590/590 525/525/525
f 525/525/525 590/590/590 591/591/591
f 525/525/525 591/591/591 526/526/526
f 526/526/526 591/591/591 592/592/592
f 526/526/526 592/592/592 527/527/527
f 527/527/527 592/592/592 593/593/593
f 527/527/527 593/593/593 528/528/528
f 528/528/528 593/593/593 594/594/594
f 528/528/528 594/594/594 529/529/529
f 529/529/529 594/594/594 595/595/595
f 529/529/529 595/595/595 530/530/530
f 530/530/530 595/595/595 596/596/596
f 530/530/530 596/596/596 531/531/531
f 531/531/531 596/596/596 597/597/597
f 531/531/531 597/597/597 532/532/532
f 532/532/532 597/597/597 598/598/598
f 532/532/532 598/598/598 533/533/533
f 533/533/533 598/598/598 599/599/599
f 533/533/533 599/599/599 534/534/534
f 534/534/534 599/599/599 600/600/600
f 534/534/534 600/600/600 535/535/535
f 535/535/535 600/600/600 601/601/601
f 535/535/535 601/601/601 536/536/536
f 536/536/536 601/601/601 602/602/602
f 536/536/536 602/602/602 537/537/537
f 537/537/537 602/602/602 603/603/603
f 537/537/537 603/603/603 538/538/538
f 538/538/538 603/603/603 604/604/604
f 538/538/538 604/604/604 539/539/539
f 539/539/539 604/604/604 605/605/605
f 539/539/539 605/605/605 540/540/540
f 540/540/540 605/605/605 606/606/606
f 540/540/540 606/606/606 541/541/541
f 541/541/541 606/606/606 607/607/607
f 541/541/541 607/607/607 542/542/542
f 542/542/542 607/607/607 608/608/608
f 542/542/542 608/608/608 543/543/543
f 543/543/543 608/608/608 609/609/609
f 543/543/543 609/609/609 544/544/544
f 544/544/544 609/609/609 610/610/610
f 544/544/544 610/610/610 545/545/545
f 545/545/545 610/610/610 611/611/611
f 545/545/545 611/611/611 546/546/546
f 546/546/546 611/611/611 612/612/612
f 546/546/546 612/612/612 547/547/547
f 547/547/547 612/612/612 613/613/613
f 547/547/547 613/613/613 548/548/548
f 548/548/548 613/613/613 614/614/614
f 548/548/548 614/614/614 549/549/549
f 549/549/549 614/614/614 615/615/615
f 549/549/549 615/615/615 550/550/550
f 550/550/550 615/615/615 616/616/616
f 550/550/550 616/616/616 551/551/551
f 551/551/551 616/616/616 617/617/617
f 551/551/551 617/617/617 552/552/552
f 552/552/552 617/617/617 618/618/618
f 552/552/552 618/618/618 553/553/553
f 553/553/553 618/618/618 619/619/619
f 553/553/553 619/619/619 554/554/554
f 554/554/554 619/619/619 620/620/620
f 554/554/554 620/620/620 555/555/555
f 555/555/555 620/620/620 621/621/621
f 555/555/555 621/621/621 556/556/556
f 556/556/556 621/621/621 622/622/622
f 556/556/556 622/622/622 557/557/557
f 557/557/557 622/622/622 623/623/623
f 557/557/557 623/623/623 558/558/558
f 558/558/558 623/623/623 624/624/624
f 558/558/558 624/624/624 559/559/559
f 559/559/559 624/624/624 625/625/625
f 559/559/559 625/625/625 560/560/560
f 560/560/560 625/625/625 626/626/626
f 560/560/560 626/626/626 561/561/561
f 561/561/561 626/626/626 627/627/627
f 561/561/561 627/627/627 562/562/562
f 562/562/562 627/627/627 628/628/628
f 562/562/562 628/628/628 563/563/563
f 563/563/563 628/628/628 629/629/629
f 563/563/563 629/629/629 564/564/564
f 564/564/564 629/629/629 630/630/630
f 564/564/564 630/630/630 565/565/565
f 565/565/565 630/630/630 631/631/631
f 565/565/565 631/631/631 566/566/566
f 566/566/566 631/631/631 632/632/632
f 566/566/566 632/632/632 567/567/567
f 567/567/567 632/632/632 633/633/633
f 567/567/567 633/633/633 568/568/568
f 568/568/568 633/633/633 634/634/634
f 568/568/568 634/634/634 569/569/569
f 569/569/569 634/634/634 635/635/635
f 569/569/569 635/635/635 570/570/570
f 570/570/570 635/635/635 636/636/636
f 570/570/570 636/636/636 571/571/571
f 571/571/571 636/636/636 637/637/637
f 571/571/571 637/637/637 572/572/572
f 572/572/572 637/637/637 638/638/638
f 572/572/572 638/638/638 573/573/573
f 573/573/573 638/638/638 639/639/639
f 573/573/573 639/639/639 574/574/574
f 574/574/574 639/639/639 640/640/640
f 574/574/574 640/640/640 575/575/575
f 575/575/575 640/640/640 641/641/641
f 575/575/575 641/641/641 576/576/576
f 576/576/576 641/641/641 642/642/642
f 576/576/576 642/642/642 577/577/577
f 577/577/577 642/642/642 643/643/643
f 577/577/577 643/643/643 578/578/578
f 578/578/578 643/643/643 644/644/644
f 578/578/578 644/644/644 579/579/579
f 579/579/579 644/644/644 645/645/645
f 579/579/579 645/645/645 580/580/580
f 580/580/580 645/645/645 646/646/646
f 580/580/580 646/646/646 581/581/581
f 581/581/581 646/646/646 647/647/647
f 581/581/581 647/647/647 582/582/582
f 582/582/582 647/647/647 648/648/648
f 582/582/582 648/648/648 583/583/583
f 583/583/583 648/648/648 649/649/649
f 583/583/583 649/649/649 584/584/584
f 584/584/584 649/649/649 650/650/650
f 584/584/584 650/650/650 585/585/585
