# Demon Slayer VFX Pack - SM_VFX_Sphere (unites : cm, +X avant, +Z haut dans Unreal)
o SM_VFX_Sphere
v 0.0000 50.0000 -0.0000
v 0.0000 50.0000 -0.0000
v 0.0000 50.0000 -0.0000
v 0.0000 50.0000 -0.0000
v 0.0000 50.0000 -0.0000
v 0.0000 50.0000 -0.0000
v 0.0000 50.0000 -0.0000
v -0.0000 50.0000 -0.0000
v -0.0000 50.0000 -0.0000
v -0.0000 50.0000 -0.0000
v -0.0000 50.0000 -0.0000
v -0.0000 50.0000 -0.0000
v -0.0000 50.0000 -0.0000
v -0.0000 50.0000 0.0000
v -0.0000 50.0000 0.0000
v -0.0000 50.0000 0.0000
v -0.0000 50.0000 0.0000
v -0.0000 50.0000 0.0000
v -0.0000 50.0000 0.0000
v 0.0000 50.0000 0.0000
v 0.0000 50.0000 0.0000
v 0.0000 50.0000 0.0000
v 0.0000 50.0000 0.0000
v 0.0000 50.0000 0.0000
v 0.0000 50.0000 0.0000
v 9.7545 49.0393 -0.0000
v 9.4221 49.0393 -2.5247
v 8.4477 49.0393 -4.8773
v 6.8975 49.0393 -6.8975
v 4.8773 49.0393 -8.4477
v 2.5247 49.0393 -9.4221
v 0.0000 49.0393 -9.7545
v -2.5247 49.0393 -9.4221
v -4.8773 49.0393 -8.4477
v -6.8975 49.0393 -6.8975
v -8.4477 49.0393 -4.8773
v -9.4221 49.0393 -2.5247
v -9.7545 49.0393 -0.0000
v -9.4221 49.0393 2.5247
v -8.4477 49.0393 4.8773
v -6.8975 49.0393 6.8975
v -4.8773 49.0393 8.4477
v -2.5247 49.0393 9.4221
v -0.0000 49.0393 9.7545
v 2.5247 49.0393 9.4221
v 4.8773 49.0393 8.4477
v 6.8975 49.0393 6.8975
v 8.4477 49.0393 4.8773
v 9.4221 49.0393 2.5247
v 9.7545 49.0393 0.0000
v 19.1342 46.1940 -0.0000
v 18.4822 46.1940 -4.9523
v 16.5707 46.1940 -9.5671
v 13.5299 46.1940 -13.5299
v 9.5671 46.1940 -16.5707
v 4.9523 46.1940 -18.4822
v 0.0000 46.1940 -19.1342
v -4.9523 46.1940 -18.4822
v -9.5671 46.1940 -16.5707
v -13.5299 46.1940 -13.5299
v -16.5707 46.1940 -9.5671
v -18.4822 46.1940 -4.9523
v -19.1342 46.1940 -0.0000
v -18.4822 46.1940 4.9523
v -16.5707 46.1940 9.5671
v -13.5299 46.1940 13.5299
v -9.5671 46.1940 16.5707
v -4.9523 46.1940 18.4822
v -0.0000 46.1940 19.1342
v 4.9523 46.1940 18.4822
v 9.5671 46.1940 16.5707
v 13.5299 46.1940 13.5299
v 16.5707 46.1940 9.5671
v 18.4822 46.1940 4.9523
v 19.1342 46.1940 0.0000
v 27.7785 41.5735 -0.0000
v 26.8320 41.5735 -7.1896
v 24.0569 41.5735 -13.8893
v 19.6424 41.5735 -19.6424
v 13.8893 41.5735 -24.0569
v 7.1896 41.5735 -26.8320
v 0.0000 41.5735 -27.7785
v -7.1896 41.5735 -26.8320
v -13.8893 41.5735 -24.0569
v -19.6424 41.5735 -19.6424
v -24.0569 41.5735 -13.8893
v -26.8320 41.5735 -7.1896
v -27.7785 41.5735 -0.0000
v -26.8320 41.5735 7.1896
v -24.0569 41.5735 13.8893
v -19.6424 41.5735 19.6424
v -13.8893 41.5735 24.0569
v -7.1896 41.5735 26.8320
v -0.0000 41.5735 27.7785
v 7.1896 41.5735 26.8320
v 13.8893 41.5735 24.0569
v 19.6424 41.5735 19.6424
v 24.0569 41.5735 13.8893
v 26.8320 41.5735 7.1896
v 27.7785 41.5735 0.0000
v 35.3553 35.3553 -0.0000
v 34.1506 35.3553 -9.1506
v 30.6186 35.3553 -17.6777
v 25.0000 35.3553 -25.0000
v 17.6777 35.3553 -30.6186
v 9.1506 35.3553 -34.1506
v 0.0000 35.3553 -35.3553
v -9.1506 35.3553 -34.1506
v -17.6777 35.3553 -30.6186
v -25.0000 35.3553 -25.0000
v -30.6186 35.3553 -17.6777
v -34.1506 35.3553 -9.1506
v -35.3553 35.3553 -0.0000
v -34.1506 35.3553 9.1506
v -30.6186 35.3553 17.6777
v -25.0000 35.3553 25.0000
v -17.6777 35.3553 30.6186
v -9.1506 35.3553 34.1506
v -0.0000 35.3553 35.3553
v 9.1506 35.3553 34.1506
v 17.6777 35.3553 30.6186
v 25.0000 35.3553 25.0000
v 30.6186 35.3553 17.6777
v 34.1506 35.3553 9.1506
v 35.3553 35.3553 0.0000
v 41.5735 27.7785 -0.0000
v 40.1569 27.7785 -10.7600
v 36.0037 27.7785 -20.7867
v 29.3969 27.7785 -29.3969
v 20.7867 27.7785 -36.0037
v 10.7600 27.7785 -40.1569
v 0.0000 27.7785 -41.5735
v -10.7600 27.7785 -40.1569
v -20.7867 27.7785 -36.0037
v -29.3969 27.7785 -29.3969
v -36.0037 27.7785 -20.7867
v -40.1569 27.7785 -10.7600
v -41.5735 27.7785 -0.0000
v -40.1569 27.7785 10.7600
v -36.0037 27.7785 20.7867
v -29.3969 27.7785 29.3969
v -20.7867 27.7785 36.0037
v -10.7600 27.7785 40.1569
v -0.0000 27.7785 41.5735
v 10.7600 27.7785 40.1569
v 20.7867 27.7785 36.0037
v 29.3969 27.7785 29.3969
v 36.0037 27.7785 20.7867
v 40.1569 27.7785 10.7600
v 41.5735 27.7785 0.0000
v 46.1940 19.1342 -0.0000
v 44.6200 19.1342 -11.9559
v 40.0052 19.1342 -23.0970
v 32.6641 19.1342 -32.6641
v 23.0970 19.1342 -40.0052
v 11.9559 19.1342 -44.6200
v 0.0000 19.1342 -46.1940
v -11.9559 19.1342 -44.6200
v -23.0970 19.1342 -40.0052
v -32.6641 19.1342 -32.6641
v -40.0052 19.1342 -23.0970
v -44.6200 19.1342 -11.9559
v -46.1940 19.1342 -0.0000
v -44.6200 19.1342 11.9559
v -40.0052 19.1342 23.0970
v -32.6641 19.1342 32.6641
v -23.0970 19.1342 40.0052
v -11.9559 19.1342 44.6200
v -0.0000 19.1342 46.1940
v 11.9559 19.1342 44.6200
v 23.0970 19.1342 40.0052
v 32.6641 19.1342 32.6641
v 40.0052 19.1342 23.0970
v 44.6200 19.1342 11.9559
v 46.1940 19.1342 0.0000
v 49.0393 9.7545 -0.0000
v 47.3683 9.7545 -12.6923
v 42.4692 9.7545 -24.5196
v 34.6760 9.7545 -34.6760
v 24.5196 9.7545 -42.4692
v 12.6923 9.7545 -47.3683
v 0.0000 9.7545 -49.0393
v -12.6923 9.7545 -47.3683
v -24.5196 9.7545 -42.4692
v -34.6760 9.7545 -34.6760
v -42.4692 9.7545 -24.5196
v -47.3683 9.7545 -12.6923
v -49.0393 9.7545 -0.0000
v -47.3683 9.7545 12.6923
v -42.4692 9.7545 24.5196
v -34.6760 9.7545 34.6760
v -24.5196 9.7545 42.4692
v -12.6923 9.7545 47.3683
v -0.0000 9.7545 49.0393
v 12.6923 9.7545 47.3683
v 24.5196 9.7545 42.4692
v 34.6760 9.7545 34.6760
v 42.4692 9.7545 24.5196
v 47.3683 9.7545 12.6923
v 49.0393 9.7545 0.0000
v 50.0000 0.0000 -0.0000
v 48.2963 0.0000 -12.9410
v 43.3013 0.0000 -25.0000
v 35.3553 0.0000 -35.3553
v 25.0000 0.0000 -43.3013
v 12.9410 0.0000 -48.2963
v 0.0000 0.0000 -50.0000
v -12.9410 0.0000 -48.2963
v -25.0000 0.0000 -43.3013
v -35.3553 0.0000 -35.3553
v -43.3013 0.0000 -25.0000
v -48.2963 0.0000 -12.9410
v -50.0000 0.0000 -0.0000
v -48.2963 0.0000 12.9410
v -43.3013 0.0000 25.0000
v -35.3553 0.0000 35.3553
v -25.0000 0.0000 43.3013
v -12.9410 0.0000 48.2963
v -0.0000 0.0000 50.0000
v 12.9410 0.0000 48.2963
v 25.0000 0.0000 43.3013
v 35.3553 0.0000 35.3553
v 43.3013 0.0000 25.0000
v 48.2963 0.0000 12.9410
v 50.0000 0.0000 0.0000
v 49.0393 -9.7545 -0.0000
v 47.3683 -9.7545 -12.6923
v 42.4692 -9.7545 -24.5196
v 34.6760 -9.7545 -34.6760
v 24.5196 -9.7545 -42.4692
v 12.6923 -9.7545 -47.3683
v 0.0000 -9.7545 -49.0393
v -12.6923 -9.7545 -47.3683
v -24.5196 -9.7545 -42.4692
v -34.6760 -9.7545 -34.6760
v -42.4692 -9.7545 -24.5196
v -47.3683 -9.7545 -12.6923
v -49.0393 -9.7545 -0.0000
v -47.3683 -9.7545 12.6923
v -42.4692 -9.7545 24.5196
v -34.6760 -9.7545 34.6760
v -24.5196 -9.7545 42.4692
v -12.6923 -9.7545 47.3683
v -0.0000 -9.7545 49.0393
v 12.6923 -9.7545 47.3683
v 24.5196 -9.7545 42.4692
v 34.6760 -9.7545 34.6760
v 42.4692 -9.7545 24.5196
v 47.3683 -9.7545 12.6923
v 49.0393 -9.7545 0.0000
v 46.1940 -19.1342 -0.0000
v 44.6200 -19.1342 -11.9559
v 40.0052 -19.1342 -23.0970
v 32.6641 -19.1342 -32.6641
v 23.0970 -19.1342 -40.0052
v 11.9559 -19.1342 -44.6200
v 0.0000 -19.1342 -46.1940
v -11.9559 -19.1342 -44.6200
v -23.0970 -19.1342 -40.0052
v -32.6641 -19.1342 -32.6641
v -40.0052 -19.1342 -23.0970
v -44.6200 -19.1342 -11.9559
v -46.1940 -19.1342 -0.0000
v -44.6200 -19.1342 11.9559
v -40.0052 -19.1342 23.0970
v -32.6641 -19.1342 32.6641
v -23.0970 -19.1342 40.0052
v -11.9559 -19.1342 44.6200
v -0.0000 -19.1342 46.1940
v 11.9559 -19.1342 44.6200
v 23.0970 -19.1342 40.0052
v 32.6641 -19.1342 32.6641
v 40.0052 -19.1342 23.0970
v 44.6200 -19.1342 11.9559
v 46.1940 -19.1342 0.0000
v 41.5735 -27.7785 -0.0000
v 40.1569 -27.7785 -10.7600
v 36.0037 -27.7785 -20.7867
v 29.3969 -27.7785 -29.3969
v 20.7867 -27.7785 -36.0037
v 10.7600 -27.7785 -40.1569
v 0.0000 -27.7785 -41.5735
v -10.7600 -27.7785 -40.1569
v -20.7867 -27.7785 -36.0037
v -29.3969 -27.7785 -29.3969
v -36.0037 -27.7785 -20.7867
v -40.1569 -27.7785 -10.7600
v -41.5735 -27.7785 -0.0000
v -40.1569 -27.7785 10.7600
v -36.0037 -27.7785 20.7867
v -29.3969 -27.7785 29.3969
v -20.7867 -27.7785 36.0037
v -10.7600 -27.7785 40.1569
v -0.0000 -27.7785 41.5735
v 10.7600 -27.7785 40.1569
v 20.7867 -27.7785 36.0037
v 29.3969 -27.7785 29.3969
v 36.0037 -27.7785 20.7867
v 40.1569 -27.7785 10.7600
v 41.5735 -27.7785 0.0000
v 35.3553 -35.3553 -0.0000
v 34.1506 -35.3553 -9.1506
v 30.6186 -35.3553 -17.6777
v 25.0000 -35.3553 -25.0000
v 17.6777 -35.3553 -30.6186
v 9.1506 -35.3553 -34.1506
v 0.0000 -35.3553 -35.3553
v -9.1506 -35.3553 -34.1506
v -17.6777 -35.3553 -30.6186
v -25.0000 -35.3553 -25.0000
v -30.6186 -35.3553 -17.6777
v -34.1506 -35.3553 -9.1506
v -35.3553 -35.3553 -0.0000
v -34.1506 -35.3553 9.1506
v -30.6186 -35.3553 17.6777
v -25.0000 -35.3553 25.0000
v -17.6777 -35.3553 30.6186
v -9.1506 -35.3553 34.1506
v -0.0000 -35.3553 35.3553
v 9.1506 -35.3553 34.1506
v 17.6777 -35.3553 30.6186
v 25.0000 -35.3553 25.0000
v 30.6186 -35.3553 17.6777
v 34.1506 -35.3553 9.1506
v 35.3553 -35.3553 0.0000
v 27.7785 -41.5735 -0.0000
v 26.8320 -41.5735 -7.1896
v 24.0569 -41.5735 -13.8893
v 19.6424 -41.5735 -19.6424
v 13.8893 -41.5735 -24.0569
v 7.1896 -41.5735 -26.8320
v 0.0000 -41.5735 -27.7785
v -7.1896 -41.5735 -26.8320
v -13.8893 -41.5735 -24.0569
v -19.6424 -41.5735 -19.6424
v -24.0569 -41.5735 -13.8893
v -26.8320 -41.5735 -7.1896
v -27.7785 -41.5735 -0.0000
v -26.8320 -41.5735 7.1896
v -24.0569 -41.5735 13.8893
v -19.6424 -41.5735 19.6424
v -13.8893 -41.5735 24.0569
v -7.1896 -41.5735 26.8320
v -0.0000 -41.5735 27.7785
v 7.1896 -41.5735 26.8320
v 13.8893 -41.5735 24.0569
v 19.6424 -41.5735 19.6424
v 24.0569 -41.5735 13.8893
v 26.8320 -41.5735 7.1896
v 27.7785 -41.5735 0.0000
v 19.1342 -46.1940 -0.0000
v 18.4822 -46.1940 -4.9523
v 16.5707 -46.1940 -9.5671
v 13.5299 -46.1940 -13.5299
v 9.5671 -46.1940 -16.5707
v 4.9523 -46.1940 -18.4822
v 0.0000 -46.1940 -19.1342
v -4.9523 -46.1940 -18.4822
v -9.5671 -46.1940 -16.5707
v -13.5299 -46.1940 -13.5299
v -16.5707 -46.1940 -9.5671
v -18.4822 -46.1940 -4.9523
v -19.1342 -46.1940 -0.0000
v -18.4822 -46.1940 4.9523
v -16.5707 -46.1940 9.5671
v -13.5299 -46.1940 13.5299
v -9.5671 -46.1940 16.5707
v -4.9523 -46.1940 18.4822
v -0.0000 -46.1940 19.1342
v 4.9523 -46.1940 18.4822
v 9.5671 -46.1940 16.5707
v 13.5299 -46.1940 13.5299
v 16.5707 -46.1940 9.5671
v 18.4822 -46.1940 4.9523
v 19.1342 -46.1940 0.0000
v 9.7545 -49.0393 -0.0000
v 9.4221 -49.0393 -2.5247
v 8.4477 -49.0393 -4.8773
v 6.8975 -49.0393 -6.8975
v 4.8773 -49.0393 -8.4477
v 2.5247 -49.0393 -9.4221
v 0.0000 -49.0393 -9.7545
v -2.5247 -49.0393 -9.4221
v -4.8773 -49.0393 -8.4477
v -6.8975 -49.0393 -6.8975
v -8.4477 -49.0393 -4.8773
v -9.4221 -49.0393 -2.5247
v -9.7545 -49.0393 -0.0000
v -9.4221 -49.0393 2.5247
v -8.4477 -49.0393 4.8773
v -6.8975 -49.0393 6.8975
v -4.8773 -49.0393 8.4477
v -2.5247 -49.0393 9.4221
v -0.0000 -49.0393 9.7545
v 2.5247 -49.0393 9.4221
v 4.8773 -49.0393 8.4477
v 6.8975 -49.0393 6.8975
v 8.4477 -49.0393 4.8773
v 9.4221 -49.0393 2.5247
v 9.7545 -49.0393 0.0000
v 0.0000 -50.0000 -0.0000
v 0.0000 -50.0000 -0.0000
v 0.0000 -50.0000 -0.0000
v 0.0000 -50.0000 -0.0000
v 0.0000 -50.0000 -0.0000
v 0.0000 -50.0000 -0.0000
v 0.0000 -50.0000 -0.0000
v -0.0000 -50.0000 -0.0000
v -0.0000 -50.0000 -0.0000
v -0.0000 -50.0000 -0.0000
v -0.0000 -50.0000 -0.0000
v -0.0000 -50.0000 -0.0000
v -0.0000 -50.0000 -0.0000
v -0.0000 -50.0000 0.0000
v -0.0000 -50.0000 0.0000
v -0.0000 -50.0000 0.0000
v -0.0000 -50.0000 0.0000
v -0.0000 -50.0000 0.0000
v -0.0000 -50.0000 0.0000
v 0.0000 -50.0000 0.0000
v 0.0000 -50.0000 0.0000
v 0.0000 -50.0000 0.0000
v 0.0000 -50.0000 0.0000
v 0.0000 -50.0000 0.0000
v 0.0000 -50.0000 0.0000
vt 0.00000 1.00000
vt 0.04167 1.00000
vt 0.08333 1.00000
vt 0.12500 1.00000
vt 0.16667 1.00000
vt 0.20833 1.00000
vt 0.25000 1.00000
vt 0.29167 1.00000
vt 0.33333 1.00000
vt 0.37500 1.00000
vt 0.41667 1.00000
vt 0.45833 1.00000
vt 0.50000 1.00000
vt 0.54167 1.00000
vt 0.58333 1.00000
vt 0.62500 1.00000
vt 0.66667 1.00000
vt 0.70833 1.00000
vt 0.75000 1.00000
vt 0.79167 1.00000
vt 0.83333 1.00000
vt 0.87500 1.00000
vt 0.91667 1.00000
vt 0.95833 1.00000
vt 1.00000 1.00000
vt 0.00000 0.93750
vt 0.04167 0.93750
vt 0.08333 0.93750
vt 0.12500 0.93750
vt 0.16667 0.93750
vt 0.20833 0.93750
vt 0.25000 0.93750
vt 0.29167 0.93750
vt 0.33333 0.93750
vt 0.37500 0.93750
vt 0.41667 0.93750
vt 0.45833 0.93750
vt 0.50000 0.93750
vt 0.54167 0.93750
vt 0.58333 0.93750
vt 0.62500 0.93750
vt 0.66667 0.93750
vt 0.70833 0.93750
vt 0.75000 0.93750
vt 0.79167 0.93750
vt 0.83333 0.93750
vt 0.87500 0.93750
vt 0.91667 0.93750
vt 0.95833 0.93750
vt 1.00000 0.93750
vt 0.00000 0.87500
vt 0.04167 0.87500
vt 0.08333 0.87500
vt 0.12500 0.87500
vt 0.16667 0.87500
vt 0.20833 0.87500
vt 0.25000 0.87500
vt 0.29167 0.87500
vt 0.33333 0.87500
vt 0.37500 0.87500
vt 0.41667 0.87500
vt 0.45833 0.87500
vt 0.50000 0.87500
vt 0.54167 0.87500
vt 0.58333 0.87500
vt 0.62500 0.87500
vt 0.66667 0.87500
vt 0.70833 0.87500
vt 0.75000 0.87500
vt 0.79167 0.87500
vt 0.83333 0.87500
vt 0.87500 0.87500
vt 0.91667 0.87500
vt 0.95833 0.87500
vt 1.00000 0.87500
vt 0.00000 0.81250
vt 0.04167 0.81250
vt 0.08333 0.81250
vt 0.12500 0.81250
vt 0.16667 0.81250
vt 0.20833 0.81250
vt 0.25000 0.81250
vt 0.29167 0.81250
vt 0.33333 0.81250
vt 0.37500 0.81250
vt 0.41667 0.81250
vt 0.45833 0.81250
vt 0.50000 0.81250
vt 0.54167 0.81250
vt 0.58333 0.81250
vt 0.62500 0.81250
vt 0.66667 0.81250
vt 0.70833 0.81250
vt 0.75000 0.81250
vt 0.79167 0.81250
vt 0.83333 0.81250
vt 0.87500 0.81250
vt 0.91667 0.81250
vt 0.95833 0.81250
vt 1.00000 0.81250
vt 0.00000 0.75000
vt 0.04167 0.75000
vt 0.08333 0.75000
vt 0.12500 0.75000
vt 0.16667 0.75000
vt 0.20833 0.75000
vt 0.25000 0.75000
vt 0.29167 0.75000
vt 0.33333 0.75000
vt 0.37500 0.75000
vt 0.41667 0.75000
vt 0.45833 0.75000
vt 0.50000 0.75000
vt 0.54167 0.75000
vt 0.58333 0.75000
vt 0.62500 0.75000
vt 0.66667 0.75000
vt 0.70833 0.75000
vt 0.75000 0.75000
vt 0.79167 0.75000
vt 0.83333 0.75000
vt 0.87500 0.75000
vt 0.91667 0.75000
vt 0.95833 0.75000
vt 1.00000 0.75000
vt 0.00000 0.68750
vt 0.04167 0.68750
vt 0.08333 0.68750
vt 0.12500 0.68750
vt 0.16667 0.68750
vt 0.20833 0.68750
vt 0.25000 0.68750
vt 0.29167 0.68750
vt 0.33333 0.68750
vt 0.37500 0.68750
vt 0.41667 0.68750
vt 0.45833 0.68750
vt 0.50000 0.68750
vt 0.54167 0.68750
vt 0.58333 0.68750
vt 0.62500 0.68750
vt 0.66667 0.68750
vt 0.70833 0.68750
vt 0.75000 0.68750
vt 0.79167 0.68750
vt 0.83333 0.68750
vt 0.87500 0.68750
vt 0.91667 0.68750
vt 0.95833 0.68750
vt 1.00000 0.68750
vt 0.00000 0.62500
vt 0.04167 0.62500
vt 0.08333 0.62500
vt 0.12500 0.62500
vt 0.16667 0.62500
vt 0.20833 0.62500
vt 0.25000 0.62500
vt 0.29167 0.62500
vt 0.33333 0.62500
vt 0.37500 0.62500
vt 0.41667 0.62500
vt 0.45833 0.62500
vt 0.50000 0.62500
vt 0.54167 0.62500
vt 0.58333 0.62500
vt 0.62500 0.62500
vt 0.66667 0.62500
vt 0.70833 0.62500
vt 0.75000 0.62500
vt 0.79167 0.62500
vt 0.83333 0.62500
vt 0.87500 0.62500
vt 0.91667 0.62500
vt 0.95833 0.62500
vt 1.00000 0.62500
vt 0.00000 0.56250
vt 0.04167 0.56250
vt 0.08333 0.56250
vt 0.12500 0.56250
vt 0.16667 0.56250
vt 0.20833 0.56250
vt 0.25000 0.56250
vt 0.29167 0.56250
vt 0.33333 0.56250
vt 0.37500 0.56250
vt 0.41667 0.56250
vt 0.45833 0.56250
vt 0.50000 0.56250
vt 0.54167 0.56250
vt 0.58333 0.56250
vt 0.62500 0.56250
vt 0.66667 0.56250
vt 0.70833 0.56250
vt 0.75000 0.56250
vt 0.79167 0.56250
vt 0.83333 0.56250
vt 0.87500 0.56250
vt 0.91667 0.56250
vt 0.95833 0.56250
vt 1.00000 0.56250
vt 0.00000 0.50000
vt 0.04167 0.50000
vt 0.08333 0.50000
vt 0.12500 0.50000
vt 0.16667 0.50000
vt 0.20833 0.50000
vt 0.25000 0.50000
vt 0.29167 0.50000
vt 0.33333 0.50000
vt 0.37500 0.50000
vt 0.41667 0.50000
vt 0.45833 0.50000
vt 0.50000 0.50000
vt 0.54167 0.50000
vt 0.58333 0.50000
vt 0.62500 0.50000
vt 0.66667 0.50000
vt 0.70833 0.50000
vt 0.75000 0.50000
vt 0.79167 0.50000
vt 0.83333 0.50000
vt 0.87500 0.50000
vt 0.91667 0.50000
vt 0.95833 0.50000
vt 1.00000 0.50000
vt 0.00000 0.43750
vt 0.04167 0.43750
vt 0.08333 0.43750
vt 0.12500 0.43750
vt 0.16667 0.43750
vt 0.20833 0.43750
vt 0.25000 0.43750
vt 0.29167 0.43750
vt 0.33333 0.43750
vt 0.37500 0.43750
vt 0.41667 0.43750
vt 0.45833 0.43750
vt 0.50000 0.43750
vt 0.54167 0.43750
vt 0.58333 0.43750
vt 0.62500 0.43750
vt 0.66667 0.43750
vt 0.70833 0.43750
vt 0.75000 0.43750
vt 0.79167 0.43750
vt 0.83333 0.43750
vt 0.87500 0.43750
vt 0.91667 0.43750
vt 0.95833 0.43750
vt 1.00000 0.43750
vt 0.00000 0.37500
vt 0.04167 0.37500
vt 0.08333 0.37500
vt 0.12500 0.37500
vt 0.16667 0.37500
vt 0.20833 0.37500
vt 0.25000 0.37500
vt 0.29167 0.37500
vt 0.33333 0.37500
vt 0.37500 0.37500
vt 0.41667 0.37500
vt 0.45833 0.37500
vt 0.50000 0.37500
vt 0.54167 0.37500
vt 0.58333 0.37500
vt 0.62500 0.37500
vt 0.66667 0.37500
vt 0.70833 0.37500
vt 0.75000 0.37500
vt 0.79167 0.37500
vt 0.83333 0.37500
vt 0.87500 0.37500
vt 0.91667 0.37500
vt 0.95833 0.37500
vt 1.00000 0.37500
vt 0.00000 0.31250
vt 0.04167 0.31250
vt 0.08333 0.31250
vt 0.12500 0.31250
vt 0.16667 0.31250
vt 0.20833 0.31250
vt 0.25000 0.31250
vt 0.29167 0.31250
vt 0.33333 0.31250
vt 0.37500 0.31250
vt 0.41667 0.31250
vt 0.45833 0.31250
vt 0.50000 0.31250
vt 0.54167 0.31250
vt 0.58333 0.31250
vt 0.62500 0.31250
vt 0.66667 0.31250
vt 0.70833 0.31250
vt 0.75000 0.31250
vt 0.79167 0.31250
vt 0.83333 0.31250
vt 0.87500 0.31250
vt 0.91667 0.31250
vt 0.95833 0.31250
vt 1.00000 0.31250
vt 0.00000 0.25000
vt 0.04167 0.25000
vt 0.08333 0.25000
vt 0.12500 0.25000
vt 0.16667 0.25000
vt 0.20833 0.25000
vt 0.25000 0.25000
vt 0.29167 0.25000
vt 0.33333 0.25000
vt 0.37500 0.25000
vt 0.41667 0.25000
vt 0.45833 0.25000
vt 0.50000 0.25000
vt 0.54167 0.25000
vt 0.58333 0.25000
vt 0.62500 0.25000
vt 0.66667 0.25000
vt 0.70833 0.25000
vt 0.75000 0.25000
vt 0.79167 0.25000
vt 0.83333 0.25000
vt 0.87500 0.25000
vt 0.91667 0.25000
vt 0.95833 0.25000
vt 1.00000 0.25000
vt 0.00000 0.18750
vt 0.04167 0.18750
vt 0.08333 0.18750
vt 0.12500 0.18750
vt 0.16667 0.18750
vt 0.20833 0.18750
vt 0.25000 0.18750
vt 0.29167 0.18750
vt 0.33333 0.18750
vt 0.37500 0.18750
vt 0.41667 0.18750
vt 0.45833 0.18750
vt 0.50000 0.18750
vt 0.54167 0.18750
vt 0.58333 0.18750
vt 0.62500 0.18750
vt 0.66667 0.18750
vt 0.70833 0.18750
vt 0.75000 0.18750
vt 0.79167 0.18750
vt 0.83333 0.18750
vt 0.87500 0.18750
vt 0.91667 0.18750
vt 0.95833 0.18750
vt 1.00000 0.18750
vt 0.00000 0.12500
vt 0.04167 0.12500
vt 0.08333 0.12500
vt 0.12500 0.12500
vt 0.16667 0.12500
vt 0.20833 0.12500
vt 0.25000 0.12500
vt 0.29167 0.12500
vt 0.33333 0.12500
vt 0.37500 0.12500
vt 0.41667 0.12500
vt 0.45833 0.12500
vt 0.50000 0.12500
vt 0.54167 0.12500
vt 0.58333 0.12500
vt 0.62500 0.12500
vt 0.66667 0.12500
vt 0.70833 0.12500
vt 0.75000 0.12500
vt 0.79167 0.12500
vt 0.83333 0.12500
vt 0.87500 0.12500
vt 0.91667 0.12500
vt 0.95833 0.12500
vt 1.00000 0.12500
vt 0.00000 0.06250
vt 0.04167 0.06250
vt 0.08333 0.06250
vt 0.12500 0.06250
vt 0.16667 0.06250
vt 0.20833 0.06250
vt 0.25000 0.06250
vt 0.29167 0.06250
vt 0.33333 0.06250
vt 0.37500 0.06250
vt 0.41667 0.06250
vt 0.45833 0.06250
vt 0.50000 0.06250
vt 0.54167 0.06250
vt 0.58333 0.06250
vt 0.62500 0.06250
vt 0.66667 0.06250
vt 0.70833 0.06250
vt 0.75000 0.06250
vt 0.79167 0.06250
vt 0.83333 0.06250
vt 0.87500 0.06250
vt 0.91667 0.06250
vt 0.95833 0.06250
vt 1.00000 0.06250
vt 0.00000 0.00000
vt 0.04167 0.00000
vt 0.08333 0.00000
vt 0.12500 0.00000
vt 0.16667 0.00000
vt 0.20833 0.00000
vt 0.25000 0.00000
vt 0.29167 0.00000
vt 0.33333 0.00000
vt 0.37500 0.00000
vt 0.41667 0.00000
vt 0.45833 0.00000
vt 0.50000 0.00000
vt 0.54167 0.00000
vt 0.58333 0.00000
vt 0.62500 0.00000
vt 0.66667 0.00000
vt 0.70833 0.00000
vt 0.75000 0.00000
vt 0.79167 0.00000
vt 0.83333 0.00000
vt 0.87500 0.00000
vt 0.91667 0.00000
vt 0.95833 0.00000
vt 1.00000 0.00000
vn 0.00000 1.00000 -0.00000
vn 0.00000 1.00000 -0.00000
vn 0.00000 1.00000 -0.00000
vn 0.00000 1.00000 -0.00000
vn 0.00000 1.00000 -0.00000
vn 0.00000 1.00000 -0.00000
vn 0.00000 1.00000 -0.00000
vn -0.00000 1.00000 -0.00000
vn -0.00000 1.00000 -0.00000
vn -0.00000 1.00000 -0.00000
vn -0.00000 1.00000 -0.00000
vn -0.00000 1.00000 -0.00000
vn -0.00000 1.00000 -0.00000
vn -0.00000 1.00000 0.00000
vn -0.00000 1.00000 0.00000
vn -0.00000 1.00000 0.00000
vn -0.00000 1.00000 0.00000
vn -0.00000 1.00000 0.00000
vn -0.00000 1.00000 0.00000
vn 0.00000 1.00000 0.00000
vn 0.00000 1.00000 0.00000
vn 0.00000 1.00000 0.00000
vn 0.00000 1.00000 0.00000
vn 0.00000 1.00000 0.00000
vn 0.00000 1.00000 0.00000
vn 0.19509 0.98079 -0.00000
vn 0.18844 0.98079 -0.05049
vn 0.16895 0.98079 -0.09755
vn 0.13795 0.98079 -0.13795
vn 0.09755 0.98079 -0.16895
vn 0.05049 0.98079 -0.18844
vn 0.00000 0.98079 -0.19509
vn -0.05049 0.98079 -0.18844
vn -0.09755 0.98079 -0.16895
vn -0.13795 0.98079 -0.13795
vn -0.16895 0.98079 -0.09755
vn -0.18844 0.98079 -0.05049
vn -0.19509 0.98079 -0.00000
vn -0.18844 0.98079 0.05049
vn -0.16895 0.98079 0.09755
vn -0.13795 0.98079 0.13795
vn -0.09755 0.98079 0.16895
vn -0.05049 0.98079 0.18844
vn -0.00000 0.98079 0.19509
vn 0.05049 0.98079 0.18844
vn 0.09755 0.98079 0.16895
vn 0.13795 0.98079 0.13795
vn 0.16895 0.98079 0.09755
vn 0.18844 0.98079 0.05049
vn 0.19509 0.98079 0.00000
vn 0.38268 0.92388 -0.00000
vn 0.36964 0.92388 -0.09905
vn 0.33141 0.92388 -0.19134
vn 0.27060 0.92388 -0.27060
vn 0.19134 0.92388 -0.33141
vn 0.09905 0.92388 -0.36964
vn 0.00000 0.92388 -0.38268
vn -0.09905 0.92388 -0.36964
vn -0.19134 0.92388 -0.33141
vn -0.27060 0.92388 -0.27060
vn -0.33141 0.92388 -0.19134
vn -0.36964 0.92388 -0.09905
vn -0.38268 0.92388 -0.00000
vn -0.36964 0.92388 0.09905
vn -0.33141 0.92388 0.19134
vn -0.27060 0.92388 0.27060
vn -0.19134 0.92388 0.33141
vn -0.09905 0.92388 0.36964
vn -0.00000 0.92388 0.38268
vn 0.09905 0.92388 0.36964
vn 0.19134 0.92388 0.33141
vn 0.27060 0.92388 0.27060
vn 0.33141 0.92388 0.19134
vn 0.36964 0.92388 0.09905
vn 0.38268 0.92388 0.00000
vn 0.55557 0.83147 -0.00000
vn 0.53664 0.83147 -0.14379
vn 0.48114 0.83147 -0.27779
vn 0.39285 0.83147 -0.39285
vn 0.27779 0.83147 -0.48114
vn 0.14379 0.83147 -0.53664
vn 0.00000 0.83147 -0.55557
vn -0.14379 0.83147 -0.53664
vn -0.27779 0.83147 -0.48114
vn -0.39285 0.83147 -0.39285
vn -0.48114 0.83147 -0.27779
vn -0.53664 0.83147 -0.14379
vn -0.55557 0.83147 -0.00000
vn -0.53664 0.83147 0.14379
vn -0.48114 0.83147 0.27779
vn -0.39285 0.83147 0.39285
vn -0.27779 0.83147 0.48114
vn -0.14379 0.83147 0.53664
vn -0.00000 0.83147 0.55557
vn 0.14379 0.83147 0.53664
vn 0.27779 0.83147 0.48114
vn 0.39285 0.83147 0.39285
vn 0.48114 0.83147 0.27779
vn 0.53664 0.83147 0.14379
vn 0.55557 0.83147 0.00000
vn 0.70711 0.70711 -0.00000
vn 0.68301 0.70711 -0.18301
vn 0.61237 0.70711 -0.35355
vn 0.50000 0.70711 -0.50000
vn 0.35355 0.70711 -0.61237
vn 0.18301 0.70711 -0.68301
vn 0.00000 0.70711 -0.70711
vn -0.18301 0.70711 -0.68301
vn -0.35355 0.70711 -0.61237
vn -0.50000 0.70711 -0.50000
vn -0.61237 0.70711 -0.35355
vn -0.68301 0.70711 -0.18301
vn -0.70711 0.70711 -0.00000
vn -0.68301 0.70711 0.18301
vn -0.61237 0.70711 0.35355
vn -0.50000 0.70711 0.50000
vn -0.35355 0.70711 0.61237
vn -0.18301 0.70711 0.68301
vn -0.00000 0.70711 0.70711
vn 0.18301 0.70711 0.68301
vn 0.35355 0.70711 0.61237
vn 0.50000 0.70711 0.50000
vn 0.61237 0.70711 0.35355
vn 0.68301 0.70711 0.18301
vn 0.70711 0.70711 0.00000
vn 0.83147 0.55557 -0.00000
vn 0.80314 0.55557 -0.21520
vn 0.72007 0.55557 -0.41573
vn 0.58794 0.55557 -0.58794
vn 0.41573 0.55557 -0.72007
vn 0.21520 0.55557 -0.80314
vn 0.00000 0.55557 -0.83147
vn -0.21520 0.55557 -0.80314
vn -0.41573 0.55557 -0.72007
vn -0.58794 0.55557 -0.58794
vn -0.72007 0.55557 -0.41573
vn -0.80314 0.55557 -0.21520
vn -0.83147 0.55557 -0.00000
vn -0.80314 0.55557 0.21520
vn -0.72007 0.55557 0.41573
vn -0.58794 0.55557 0.58794
vn -0.41573 0.55557 0.72007
vn -0.21520 0.55557 0.80314
vn -0.00000 0.55557 0.83147
vn 0.21520 0.55557 0.80314
vn 0.41573 0.55557 0.72007
vn 0.58794 0.55557 0.58794
vn 0.72007 0.55557 0.41573
vn 0.80314 0.55557 0.21520
vn 0.83147 0.55557 0.00000
vn 0.92388 0.38268 -0.00000
vn 0.89240 0.38268 -0.23912
vn 0.80010 0.38268 -0.46194
vn 0.65328 0.38268 -0.65328
vn 0.46194 0.38268 -0.80010
vn 0.23912 0.38268 -0.89240
vn 0.00000 0.38268 -0.92388
vn -0.23912 0.38268 -0.89240
vn -0.46194 0.38268 -0.80010
vn -0.65328 0.38268 -0.65328
vn -0.80010 0.38268 -0.46194
vn -0.89240 0.38268 -0.23912
vn -0.92388 0.38268 -0.00000
vn -0.89240 0.38268 0.23912
vn -0.80010 0.38268 0.46194
vn -0.65328 0.38268 0.65328
vn -0.46194 0.38268 0.80010
vn -0.23912 0.38268 0.89240
vn -0.00000 0.38268 0.92388
vn 0.23912 0.38268 0.89240
vn 0.46194 0.38268 0.80010
vn 0.65328 0.38268 0.65328
vn 0.80010 0.38268 0.46194
vn 0.89240 0.38268 0.23912
vn 0.92388 0.38268 0.00000
vn 0.98079 0.19509 -0.00000
vn 0.94737 0.19509 -0.25385
vn 0.84938 0.19509 -0.49039
vn 0.69352 0.19509 -0.69352
vn 0.49039 0.19509 -0.84938
vn 0.25385 0.19509 -0.94737
vn 0.00000 0.19509 -0.98079
vn -0.25385 0.19509 -0.94737
vn -0.49039 0.19509 -0.84938
vn -0.69352 0.19509 -0.69352
vn -0.84938 0.19509 -0.49039
vn -0.94737 0.19509 -0.25385
vn -0.98079 0.19509 -0.00000
vn -0.94737 0.19509 0.25385
vn -0.84938 0.19509 0.49039
vn -0.69352 0.19509 0.69352
vn -0.49039 0.19509 0.84938
vn -0.25385 0.19509 0.94737
vn -0.00000 0.19509 0.98079
vn 0.25385 0.19509 0.94737
vn 0.49039 0.19509 0.84938
vn 0.69352 0.19509 0.69352
vn 0.84938 0.19509 0.49039
vn 0.94737 0.19509 0.25385
vn 0.98079 0.19509 0.00000
vn 1.00000 0.00000 -0.00000
vn 0.96593 0.00000 -0.25882
vn 0.86603 0.00000 -0.50000
vn 0.70711 0.00000 -0.70711
vn 0.50000 0.00000 -0.86603
vn 0.25882 0.00000 -0.96593
vn 0.00000 0.00000 -1.00000
vn -0.25882 0.00000 -0.96593
vn -0.50000 0.00000 -0.86603
vn -0.70711 0.00000 -0.70711
vn -0.86603 0.00000 -0.50000
vn -0.96593 0.00000 -0.25882
vn -1.00000 0.00000 -0.00000
vn -0.96593 0.00000 0.25882
vn -0.86603 0.00000 0.50000
vn -0.70711 0.00000 0.70711
vn -0.50000 0.00000 0.86603
vn -0.25882 0.00000 0.96593
vn -0.00000 0.00000 1.00000
vn 0.25882 0.00000 0.96593
vn 0.50000 0.00000 0.86603
vn 0.70711 0.00000 0.70711
vn 0.86603 0.00000 0.50000
vn 0.96593 0.00000 0.25882
vn 1.00000 0.00000 0.00000
vn 0.98079 -0.19509 -0.00000
vn 0.94737 -0.19509 -0.25385
vn 0.84938 -0.19509 -0.49039
vn 0.69352 -0.19509 -0.69352
vn 0.49039 -0.19509 -0.84938
vn 0.25385 -0.19509 -0.94737
vn 0.00000 -0.19509 -0.98079
vn -0.25385 -0.19509 -0.94737
vn -0.49039 -0.19509 -0.84938
vn -0.69352 -0.19509 -0.69352
vn -0.84938 -0.19509 -0.49039
vn -0.94737 -0.19509 -0.25385
vn -0.98079 -0.19509 -0.00000
vn -0.94737 -0.19509 0.25385
vn -0.84938 -0.19509 0.49039
vn -0.69352 -0.19509 0.69352
vn -0.49039 -0.19509 0.84938
vn -0.25385 -0.19509 0.94737
vn -0.00000 -0.19509 0.98079
vn 0.25385 -0.19509 0.94737
vn 0.49039 -0.19509 0.84938
vn 0.69352 -0.19509 0.69352
vn 0.84938 -0.19509 0.49039
vn 0.94737 -0.19509 0.25385
vn 0.98079 -0.19509 0.00000
vn 0.92388 -0.38268 -0.00000
vn 0.89240 -0.38268 -0.23912
vn 0.80010 -0.38268 -0.46194
vn 0.65328 -0.38268 -0.65328
vn 0.46194 -0.38268 -0.80010
vn 0.23912 -0.38268 -0.89240
vn 0.00000 -0.38268 -0.92388
vn -0.23912 -0.38268 -0.89240
vn -0.46194 -0.38268 -0.80010
vn -0.65328 -0.38268 -0.65328
vn -0.80010 -0.38268 -0.46194
vn -0.89240 -0.38268 -0.23912
vn -0.92388 -0.38268 -0.00000
vn -0.89240 -0.38268 0.23912
vn -0.80010 -0.38268 0.46194
vn -0.65328 -0.38268 0.65328
vn -0.46194 -0.38268 0.80010
vn -0.23912 -0.38268 0.89240
vn -0.00000 -0.38268 0.92388
vn 0.23912 -0.38268 0.89240
vn 0.46194 -0.38268 0.80010
vn 0.65328 -0.38268 0.65328
vn 0.80010 -0.38268 0.46194
vn 0.89240 -0.38268 0.23912
vn 0.92388 -0.38268 0.00000
vn 0.83147 -0.55557 -0.00000
vn 0.80314 -0.55557 -0.21520
vn 0.72007 -0.55557 -0.41573
vn 0.58794 -0.55557 -0.58794
vn 0.41573 -0.55557 -0.72007
vn 0.21520 -0.55557 -0.80314
vn 0.00000 -0.55557 -0.83147
vn -0.21520 -0.55557 -0.80314
vn -0.41573 -0.55557 -0.72007
vn -0.58794 -0.55557 -0.58794
vn -0.72007 -0.55557 -0.41573
vn -0.80314 -0.55557 -0.21520
vn -0.83147 -0.55557 -0.00000
vn -0.80314 -0.55557 0.21520
vn -0.72007 -0.55557 0.41573
vn -0.58794 -0.55557 0.58794
vn -0.41573 -0.55557 0.72007
vn -0.21520 -0.55557 0.80314
vn -0.00000 -0.55557 0.83147
vn 0.21520 -0.55557 0.80314
vn 0.41573 -0.55557 0.72007
vn 0.58794 -0.55557 0.58794
vn 0.72007 -0.55557 0.41573
vn 0.80314 -0.55557 0.21520
vn 0.83147 -0.55557 0.00000
vn 0.70711 -0.70711 -0.00000
vn 0.68301 -0.70711 -0.18301
vn 0.61237 -0.70711 -0.35355
vn 0.50000 -0.70711 -0.50000
vn 0.35355 -0.70711 -0.61237
vn 0.18301 -0.70711 -0.68301
vn 0.00000 -0.70711 -0.70711
vn -0.18301 -0.70711 -0.68301
vn -0.35355 -0.70711 -0.61237
vn -0.50000 -0.70711 -0.50000
vn -0.61237 -0.70711 -0.35355
vn -0.68301 -0.70711 -0.18301
vn -0.70711 -0.70711 -0.00000
vn -0.68301 -0.70711 0.18301
vn -0.61237 -0.70711 0.35355
vn -0.50000 -0.70711 0.50000
vn -0.35355 -0.70711 0.61237
vn -0.18301 -0.70711 0.68301
vn -0.00000 -0.70711 0.70711
vn 0.18301 -0.70711 0.68301
vn 0.35355 -0.70711 0.61237
vn 0.50000 -0.70711 0.50000
vn 0.61237 -0.70711 0.35355
vn 0.68301 -0.70711 0.18301
vn 0.70711 -0.70711 0.00000
vn 0.55557 -0.83147 -0.00000
vn 0.53664 -0.83147 -0.14379
vn 0.48114 -0.83147 -0.27779
vn 0.39285 -0.83147 -0.39285
vn 0.27779 -0.83147 -0.48114
vn 0.14379 -0.83147 -0.53664
vn 0.00000 -0.83147 -0.55557
vn -0.14379 -0.83147 -0.53664
vn -0.27779 -0.83147 -0.48114
vn -0.39285 -0.83147 -0.39285
vn -0.48114 -0.83147 -0.27779
vn -0.53664 -0.83147 -0.14379
vn -0.55557 -0.83147 -0.00000
vn -0.53664 -0.83147 0.14379
vn -0.48114 -0.83147 0.27779
vn -0.39285 -0.83147 0.39285
vn -0.27779 -0.83147 0.48114
vn -0.14379 -0.83147 0.53664
vn -0.00000 -0.83147 0.55557
vn 0.14379 -0.83147 0.53664
vn 0.27779 -0.83147 0.48114
vn 0.39285 -0.83147 0.39285
vn 0.48114 -0.83147 0.27779
vn 0.53664 -0.83147 0.14379
vn 0.55557 -0.83147 0.00000
vn 0.38268 -0.92388 -0.00000
vn 0.36964 -0.92388 -0.09905
vn 0.33141 -0.92388 -0.19134
vn 0.27060 -0.92388 -0.27060
vn 0.19134 -0.92388 -0.33141
vn 0.09905 -0.92388 -0.36964
vn 0.00000 -0.92388 -0.38268
vn -0.09905 -0.92388 -0.36964
vn -0.19134 -0.92388 -0.33141
vn -0.27060 -0.92388 -0.27060
vn -0.33141 -0.92388 -0.19134
vn -0.36964 -0.92388 -0.09905
vn -0.38268 -0.92388 -0.00000
vn -0.36964 -0.92388 0.09905
vn -0.33141 -0.92388 0.19134
vn -0.27060 -0.92388 0.27060
vn -0.19134 -0.92388 0.33141
vn -0.09905 -0.92388 0.36964
vn -0.00000 -0.92388 0.38268
vn 0.09905 -0.92388 0.36964
vn 0.19134 -0.92388 0.33141
vn 0.27060 -0.92388 0.27060
vn 0.33141 -0.92388 0.19134
vn 0.36964 -0.92388 0.09905
vn 0.38268 -0.92388 0.00000
vn 0.19509 -0.98079 -0.00000
vn 0.18844 -0.98079 -0.05049
vn 0.16895 -0.98079 -0.09755
vn 0.13795 -0.98079 -0.13795
vn 0.09755 -0.98079 -0.16895
vn 0.05049 -0.98079 -0.18844
vn 0.00000 -0.98079 -0.19509
vn -0.05049 -0.98079 -0.18844
vn -0.09755 -0.98079 -0.16895
vn -0.13795 -0.98079 -0.13795
vn -0.16895 -0.98079 -0.09755
vn -0.18844 -0.98079 -0.05049
vn -0.19509 -0.98079 -0.00000
vn -0.18844 -0.98079 0.05049
vn -0.16895 -0.98079 0.09755
vn -0.13795 -0.98079 0.13795
vn -0.09755 -0.98079 0.16895
vn -0.05049 -0.98079 0.18844
vn -0.00000 -0.98079 0.19509
vn 0.05049 -0.98079 0.18844
vn 0.09755 -0.98079 0.16895
vn 0.13795 -0.98079 0.13795
vn 0.16895 -0.98079 0.09755
vn 0.18844 -0.98079 0.05049
vn 0.19509 -0.98079 0.00000
vn 0.00000 -1.00000 -0.00000
vn 0.00000 -1.00000 -0.00000
vn 0.00000 -1.00000 -0.00000
vn 0.00000 -1.00000 -0.00000
vn 0.00000 -1.00000 -0.00000
vn 0.00000 -1.00000 -0.00000
vn 0.00000 -1.00000 -0.00000
vn -0.00000 -1.00000 -0.00000
vn -0.00000 -1.00000 -0.00000
vn -0.00000 -1.00000 -0.00000
vn -0.00000 -1.00000 -0.00000
vn -0.00000 -1.00000 -0.00000
vn -0.00000 -1.00000 -0.00000
vn -0.00000 -1.00000 0.00000
vn -0.00000 -1.00000 0.00000
vn -0.00000 -1.00000 0.00000
vn -0.00000 -1.00000 0.00000
vn -0.00000 -1.00000 0.00000
vn -0.00000 -1.00000 0.00000
vn 0.00000 -1.00000 0.00000
vn 0.00000 -1.00000 0.00000
vn 0.00000 -1.00000 0.00000
vn 0.00000 -1.00000 0.00000
vn 0.00000 -1.00000 0.00000
vn 0.00000 -1.00000 0.00000
f 1/1/1 2/2/2 27/27/27
f 1/1/1 27/27/27 26/26/26
f 2/2/2 3/3/3 28/28/28
f 2/2/2 28/28/28 27/27/27
f 3/3/3 4/4/4 29/29/29
f 3/3/3 29/29/29 28/28/28
f 4/4/4 5/5/5 30/30/30
f 4/4/4 30/30/30 29/29/29
f 5/5/5 6/6/6 31/31/31
f 5/5/5 31/31/31 30/30/30
f 6/6/6 7/7/7 32/32/32
f 6/6/6 32/32/32 31/31/31
f 7/7/7 8/8/8 33/33/33
f 7/7/7 33/33/33 32/32/32
f 8/8/8 9/9/9 34/34/34
f 8/8/8 34/34/34 33/33/33
f 9/9/9 10/10/10 35/35/35
f 9/9/9 35/35/35 34/34/34
f 10/10/10 11/11/11 36/36/36
f 10/10/10 36/36/36 35/35/35
f 11/11/11 12/12/12 37/37/37
f 11/11/11 37/37/37 36/36/36
f 12/12/12 13/13/13 38/38/38
f 12/12/12 38/38/38 37/37/37
f 13/13/13 14/14/14 39/39/39
f 13/13/13 39/39/39 38/38/38
f 14/14/14 15/15/15 40/40/40
f 14/14/14 40/40/40 39/39/39
f 15/15/15 16/16/16 41/41/41
f 15/15/15 41/41/41 40/40/40
f 16/16/16 17/17/17 42/42/42
f 16/16/16 42/42/42 41/41/41
f 17/17/17 18/18/18 43/43/43
f 17/17/17 43/43/43 42/42/42
f 18/18/18 19/19/19 44/44/44
f 18/18/18 44/44/44 43/43/43
f 19/19/19 20/20/20 45/45/45
f 19/19/19 45/45/45 44/44/44
f 20/20/20 21/21/21 46/46/46
f 20/20/20 46/46/46 45/45/45
f 21/21/21 22/22/22 47/47/47
f 21/21/21 47/47/47 46/46/46
f 22/22/22 23/23/23 48/48/48
f 22/22/22 48/48/48 47/47/47
f 23/23/23 24/24/24 49/49/49
f 23/23/23 49/49/49 48/48/48
f 24/24/24 25/25/25 50/50/50
f 24/24/24 50/50/50 49/49/49
f 26/26/26 27/27/27 52/52/52
f 26/26/26 52/52/52 51/51/51
f 27/27/27 28/28/28 53/53/53
f 27/27/27 53/53/53 52/52/52
f 28/28/28 29/29/29 54/54/54
f 28/28/28 54/54/54 53/53/53
f 29/29/29 30/30/30 55/55/55
f 29/29/29 55/55/55 54/54/54
f 30/30/30 31/31/31 56/56/56
f 30/30/30 56/56/56 55/55/55
f 31/31/31 32/32/32 57/57/57
f 31/31/31 57/57/57 56/56/56
f 32/32/32 33/33/33 58/58/58
f 32/32/32 58/58/58 57/57/57
f 33/33/33 34/34/34 59/59/59
f 33/33/33 59/59/59 58/58/58
f 34/34/34 35/35/35 60/60/60
f 34/34/34 60/60/60 59/59/59
f 35/35/35 36/36/36 61/61/61
f 35/35/35 61/61/61 60/60/60
f 36/36/36 37/37/37 62/62/62
f 36/36/36 62/62/62 61/61/61
f 37/37/37 38/38/38 63/63/63
f 37/37/37 63/63/63 62/62/62
f 38/38/38 39/39/39 64/64/64
f 38/38/38 64/64/64 63/63/63
f 39/39/39 40/40/40 65/65/65
f 39/39/39 65/65/65 64/64/64
f 40/40/40 41/41/41 66/66/66
f 40/40/40 66/66/66 65/65/65
f 41/41/41 42/42/42 67/67/67
f 41/41/41 67/67/67 66/66/66
f 42/42/42 43/43/43 68/68/68
f 42/42/42 68/68/68 67/67/67
f 43/43/43 44/44/44 69/69/69
f 43/43/43 69/69/69 68/68/68
f 44/44/44 45/45/45 70/70/70
f 44/44/44 70/70/70 69/69/69
f 45/45/45 46/46/46 71/71/71
f 45/45/45 71/71/71 70/70/70
f 46/46/46 47/47/47 72/72/72
f 46/46/46 72/72/72 71/71/71
f 47/47/47 48/48/48 73/73/73
f 47/47/47 73/73/73 72/72/72
f 48/48/48 49/49/49 74/74/74
f 48/48/48 74/74/74 73/73/73
f 49/49/49 50/50/50 75/75/75
f 49/49/49 75/75/75 74/74/74
f 51/51/51 52/52/52 77/77/77
f 51/51/51 77/77/77 76/76/76
f 52/52/52 53/53/53 78/78/78
f 52/52/52 78/78/78 77/77/77
f 53/53/53 54/54/54 79/79/79
f 53/53/53 79/79/79 78/78/78
f 54/54/54 55/55/55 80/80/80
f 54/54/54 80/80/80 79/79/79
f 55/55/55 56/56/56 81/81/81
f 55/55/55 81/81/81 80/80/80
f 56/56/56 57/57/57 82/82/82
f 56/56/56 82/82/82 81/81/81
f 57/57/57 58/58/58 83/83/83
f 57/57/57 83/83/83 82/82/82
f 58/58/58 59/59/59 84/84/84
f 58/58/58 84/84/84 83/83/83
f 59/59/59 60/60/60 85/85/85
f 59/59/59 85/85/85 84/84/84
f 60/60/60 61/61/61 86/86/86
f 60/60/60 86/86/86 85/85/85
f 61/61/61 62/62/62 87/87/87
f 61/61/61 87/87/87 86/86/86
f 62/62/62 63/63/63 88/88/88
f 62/62/62 88/88/88 87/87/87
f 63/63/63 64/64/64 89/89/89
f 63/63/63 89/89/89 88/88/88
f 64/64/64 65/65/65 90/90/90
f 64/64/64 90/90/90 89/89/89
f 65/65/65 66/66/66 91/91/91
f 65/65/65 91/91/91 90/90/90
f 66/66/66 67/67/67 92/92/92
f 66/66/66 92/92/92 91/91/91
f 67/67/67 68/68/68 93/93/93
f 67/67/67 93/93/93 92/92/92
f 68/68/68 69/69/69 94/94/94
f 68/68/68 94/94/94 93/93/93
f 69/69/69 70/70/70 95/95/95
f 69/69/69 95/95/95 94/94/94
f 70/70/70 71/71/71 96/96/96
f 70/70/70 96/96/96 95/95/95
f 71/71/71 72/72/72 97/97/97
f 71/71/71 97/97/97 96/96/96
f 72/72/72 73/73/73 98/98/98
f 72/72/72 98/98/98 97/97/97
f 73/73/73 74/74/74 99/99/99
f 73/73/73 99/99/99 98/98/98
f 74/74/74 75/75/75 100/100/100
f 74/74/74 100/100/100 99/99/99
f 76/76/76 77/77/77 102/102/102
f 76/76/76 102/102/102 101/101/101
f 77/77/77 78/78/78 103/103/103
f 77/77/77 103/103/103 102/102/102
f 78/78/78 79/79/79 104/104/104
f 78/78/78 104/104/104 103/103/103
f 79/79/79 80/80/80 105/105/105
f 79/79/79 105/105/105 104/104/104
f 80/80/80 81/81/81 106/106/106
f 80/80/80 106/106/106 105/105/105
f 81/81/81 82/82/82 107/107/107
f 81/81/81 107/107/107 106/106/106
f 82/82/82 83/83/83 108/108/108
f 82/82/82 108/108/108 107/107/107
f 83/83/83 84/84/84 109/109/109
f 83/83/83 109/109/109 108/108/108
f 84/84/84 85/85/85 110/110/110
f 84/84/84 110/110/110 109/109/109
f 85/85/85 86/86/86 111/111/111
f 85/85/85 111/111/111 110/110/110
f 86/86/86 87/87/87 112/112/112
f 86/86/86 112/112/112 111/111/111
f 87/87/87 88/88/88 113/113/113
f 87/87/87 113/113/113 112/112/112
f 88/88/88 89/89/89 114/114/114
f 88/88/88 114/114/114 113/113/113
f 89/89/89 90/90/90 115/115/115
f 89/89/89 115/115/115 114/114/114
f 90/90/90 91/91/91 116/116/116
f 90/90/90 116/116/116 115/115/115
f 91/91/91 92/92/92 117/117/117
f 91/91/91 117/117/117 116/116/116
f 92/92/92 93/93/93 118/118/118
f 92/92/92 118/118/118 117/117/117
f 93/93/93 94/94/94 119/119/119
f 93/93/93 119/119/119 118/118/118
f 94/94/94 95/95/95 120/120/120
f 94/94/94 120/120/120 119/119/119
f 95/95/95 96/96/96 121/121/121
f 95/95/95 121/121/121 120/120/120
f 96/96/96 97/97/97 122/122/122
f 96/96/96 122/122/122 121/121/121
f 97/97/97 98/98/98 123/123/123
f 97/97/97 123/123/123 122/122/122
f 98/98/98 99/99/99 124/124/124
f 98/98/98 124/124/124 123/123/123
f 99/99/99 100/100/100 125/125/125
f 99/99/99 125/125/125 124/124/124
f 101/101/101 102/102/102 127/127/127
f 101/101/101 127/127/127 126/126/126
f 102/102/102 103/103/103 128/128/128
f 102/102/102 128/128/128 127/127/127
f 103/103/103 104/104/104 129/129/129
f 103/103/103 129/129/129 128/128/128
f 104/104/104 105/105/105 130/130/130
f 104/104/104 130/130/130 129/129/129
f 105/105/105 106/106/106 131/131/131
f 105/105/105 131/131/131 130/130/130
f 106/106/106 107/107/107 132/132/132
f 106/106/106 132/132/132 131/131/131
f 107/107/107 108/108/108 133/133/133
f 107/107/107 133/133/133 132/132/132
f 108/108/108 109/109/109 134/134/134
f 108/108/108 134/134/134 133/133/133
f 109/109/109 110/110/110 135/135/135
f 109/109/109 135/135/135 134/134/134
f 110/110/110 111/111/111 136/136/136
f 110/110/110 136/136/136 135/135/135
f 111/111/111 112/112/112 137/137/137
f 111/111/111 137/137/137 136/136/136
f 112/112/112 113/113/113 138/138/138
f 112/112/112 138/138/138 137/137/137
f 113/113/113 114/114/114 139/139/139
f 113/113/113 139/139/139 138/138/138
f 114/114/114 115/115/115 140/140/140
f 114/114/114 140/140/140 139/139/139
f 115/115/115 116/116/116 141/141/141
f 115/115/115 141/141/141 140/140/140
f 116/116/116 117/117/117 142/142/142
f 116/116/116 142/142/142 141/141/141
f 117/117/117 118/118/118 143/143/143
f 117/117/117 143/143/143 142/142/142
f 118/118/118 119/119/119 144/144/144
f 118/118/118 144/144/144 143/143/143
f 119/119/119 120/120/120 145/145/145
f 119/119/119 145/145/145 144/144/144
f 120/120/120 121/121/121 146/146/146
f 120/120/120 146/146/146 145/145/145
f 121/121/121 122/122/122 147/147/147
f 121/121/121 147/147/147 146/146/146
f 122/122/122 123/123/123 148/148/148
f 122/122/122 148/148/148 147/147/147
f 123/123/123 124/124/124 149/149/149
f 123/123/123 149/149/149 148/148/148
f 124/124/124 125/125/125 150/150/150
f 124/124/124 150/150/150 149/149/149
f 126/126/126 127/127/127 152/152/152
f 126/126/126 152/152/152 151/151/151
f 127/127/127 128/128/128 153/153/153
f 127/127/127 153/153/153 152/152/152
f 128/128/128 129/129/129 154/154/154
f 128/128/128 154/154/154 153/153/153
f 129/129/129 130/130/130 155/155/155
f 129/129/129 155/155/155 154/154/154
f 130/130/130 131/131/131 156/156/156
f 130/130/130 156/156/156 155/155/155
f 131/131/131 132/132/132 157/157/157
f 131/131/131 157/157/157 156/156/156
f 132/132/132 133/133/133 158/158/158
f 132/132/132 158/158/158 157/157/157
f 133/133/133 134/134/134 159/159/159
f 133/133/133 159/159/159 158/158/158
f 134/134/134 135/135/135 160/160/160
f 134/134/134 160/160/160 159/159/159
f 135/135/135 136/136/136 161/161/161
f 135/135/135 161/161/161 160/160/160
f 136/136/136 137/137/137 162/162/162
f 136/136/136 162/162/162 161/161/161
f 137/137/137 138/138/138 163/163/163
f 137/137/137 163/163/163 162/162/162
f 138/138/138 139/139/139 164/164/164
f 138/138/138 164/164/164 163/163/163
f 139/139/139 140/140/140 165/165/165
f 139/139/139 165/165/165 164/164/164
f 140/140/140 141/141/141 166/166/166
f 140/140/140 166/166/166 165/165/165
f 141/141/141 142/142/142 167/167/167
f 141/141/141 167/167/167 166/166/166
f 142/142/142 143/143/143 168/168/168
f 142/142/142 168/168/168 167/167/167
f 143/143/143 144/144/144 169/169/169
f 143/143/143 169/169/169 168/168/168
f 144/144/144 145/145/145 170/170/170
f 144/144/144 170/170/170 169/169/169
f 145/145/145 146/146/146 171/171/171
f 145/145/145 171/171/171 170/170/170
f 146/146/146 147/147/147 172/172/172
f 146/146/146 172/172/172 171/171/171
f 147/147/147 148/148/148 173/173/173
f 147/147/147 173/173/173 172/172/172
f 148/148/148 149/149/149 174/174/174
f 148/148/148 174/174/174 173/173/173
f 149/149/149 150/150/150 175/175/175
f 149/149/149 175/175/175 174/174/174
f 151/151/151 152/152/152 177/177/177
f 151/151/151 177/177/177 176/176/176
f 152/152/152 153/153/153 178/178/178
f 152/152/152 178/178/178 177/177/177
f 153/153/153 154/154/154 179/179/179
f 153/153/153 179/179/179 178/178/178
f 154/154/154 155/155/155 180/180/180
f 154/154/154 180/180/180 179/179/179
f 155/155/155 156/156/156 181/181/181
f 155/155/155 181/181/181 180/180/180
f 156/156/156 157/157/157 182/182/182
f 156/156/156 182/182/182 181/181/181
f 157/157/157 158/158/158 183/183/183
f 157/157/157 183/183/183 182/182/182
f 158/158/158 159/159/159 184/184/184
f 158/158/158 184/184/184 183/183/183
f 159/159/159 160/160/160 185/185/185
f 159/159/159 185/185/185 184/184/184
f 160/160/160 161/161/161 186/186/186
f 160/160/160 186/186/186 185/185/185
f 161/161/161 162/162/162 187/187/187
f 161/161/161 187/187/187 186/186/186
f 162/162/162 163/163/163 188/188/188
f 162/162/162 188/188/188 187/187/187
f 163/163/163 164/164/164 189/189/189
f 163/163/163 189/189/189 188/188/188
f 164/164/164 165/165/165 190/190/190
f 164/164/164 190/190/190 189/189/189
f 165/165/165 166/166/166 191/191/191
f 165/165/165 191/191/191 190/190/190
f 166/166/166 167/167/167 192/192/192
f 166/166/166 192/192/192 191/191/191
f 167/167/167 168/168/168 193/193/193
f 167/167/167 193/193/193 192/192/192
f 168/168/168 169/169/169 194/194/194
f 168/168/168 194/194/194 193/193/193
f 169/169/169 170/170/170 195/195/195
f 169/169/169 195/195/195 194/194/194
f 170/170/170 171/171/171 196/196/196
f 170/170/170 196/196/196 195/195/195
f 171/171/171 172/172/172 197/197/197
f 171/171/171 197/197/197 196/196/196
f 172/172/172 173/173/173 198/198/198
f 172/172/172 198/198/198 197/197/197
f 173/173/173 174/174/174 199/199/199
f 173/173/173 199/199/199 198/198/198
f 174/174/174 175/175/175 200/200/200
f 174/174/174 200/200/200 199/199/199
f 176/176/176 177/177/177 202/202/202
f 176/176/176 202/202/202 201/201/201
f 177/177/177 178/178/178 203/203/203
f 177/177/177 203/203/203 202/202/202
f 178/178/178 179/179/179 204/204/204
f 178/178/178 204/204/204 203/203/203
f 179/179/179 180/180/180 205/205/205
f 179/179/179 205/205/205 204/204/204
f 180/180/180 181/181/181 206/206/206
f 180/180/180 206/206/206 205/205/205
f 181/181/181 182/182/182 207/207/207
f 181/181/181 207/207/207 206/206/206
f 182/182/182 183/183/183 208/208/208
f 182/182/182 208/208/208 207/207/207
f 183/183/183 184/184/184 209/209/209
f 183/183/183 209/209/209 208/208/208
f 184/184/184 185/185/185 210/210/210
f 184/184/184 210/210/210 209/209/209
f 185/185/185 186/186/186 211/211/211
f 185/185/185 211/211/211 210/210/210
f 186/186/186 187/187/187 212/212/212
f 186/186/186 212/212/212 211/211/211
f 187/187/187 188/188/188 213/213/213
f 187/187/187 213/213/213 212/212/212
f 188/188/188 189/189/189 214/214/214
f 188/188/188 214/214/214 213/213/213
f 189/189/189 190/190/190 215/215/215
f 189/189/189 215/215/215 214/214/214
f 190/190/190 191/191/191 216/216/216
f 190/190/190 216/216/216 215/215/215
f 191/191/191 192/192/192 217/217/217
f 191/191/191 217/217/217 216/216/216
f 192/192/192 193/193/193 218/218/218
f 192/192/192 218/218/218 217/217/217
f 193/193/193 194/194/194 219/219/219
f 193/193/193 219/219/219 218/218/218
f 194/194/194 195/195/195 220/220/220
f 194/194/194 220/220/220 219/219/219
f 195/195/195 196/196/196 221/221/221
f 195/195/195 221/221/221 220/220/220
f 196/196/196 197/197/197 222/222/222
f 196/196/196 222/222/222 221/221/221
f 197/197/197 198/198/198 223/223/223
f 197/197/197 223/223/223 222/222/222
f 198/198/198 199/199/199 224/224/224
f 198/198/198 224/224/224 223/223/223
f 199/199/199 200/200/200 225/225/225
f 199/199/199 225/225/225 224/224/224
f 201/201/201 202/202/202 227/227/227
f 201/201/201 227/227/227 226/226/226
f 202/202/202 203/203/203 228/228/228
f 202/202/202 228/228/228 227/227/227
f 203/203/203 204/204/204 229/229/229
f 203/203/203 229/229/229 228/228/228
f 204/204/204 205/205/205 230/230/230
f 204/204/204 230/230/230 229/229/229
f 205/205/205 206/206/206 231/231/231
f 205/205/205 231/231/231 230/230/230
f 206/206/206 207/207/207 232/232/232
f 206/206/206 232/232/232 231/231/231
f 207/207/207 208/208/208 233/233/233
f 207/207/207 233/233/233 232/232/232
f 208/208/208 209/209/209 234/234/234
f 208/208/208 234/234/234 233/233/233
f 209/209/209 210/210/210 235/235/235
f 209/209/209 235/235/235 234/234/234
f 210/210/210 211/211/211 236/236/236
f 210/210/210 236/236/236 235/235/235
f 211/211/211 212/212/212 237/237/237
f 211/211/211 237/237/237 236/236/236
f 212/212/212 213/213/213 238/238/238
f 212/212/212 238/238/238 237/237/237
f 213/213/213 214/214/214 239/239/239
f 213/213/213 239/239/239 238/238/238
f 214/214/214 215/215/215 240/240/240
f 214/214/214 240/240/240 239/239/239
f 215/215/215 216/216/216 241/241/241
f 215/215/215 241/241/241 240/240/240
f 216/216/216 217/217/217 242/242/242
f 216/216/216 242/242/242 241/241/241
f 217/217/217 218/218/218 243/243/243
f 217/217/217 243/243/243 242/242/242
f 218/218/218 219/219/219 244/244/244
f 218/218/218 244/244/244 243/243/243
f 219/219/219 220/220/220 245/245/245
f 219/219/219 245/245/245 244/244/244
f 220/220/220 221/221/221 246/246/246
f 220/220/220 246/246/246 245/245/245
f 221/221/221 222/222/222 247/247/247
f 221/221/221 247/247/247 246/246/246
f 222/222/222 223/223/223 248/248/248
f 222/222/222 248/248/248 247/247/247
f 223/223/223 224/224/224 249/249/249
f 223/223/223 249/249/249 248/248/248
f 224/224/224 225/225/225 250/250/250
f 224/224/224 250/250/250 249/249/249
f 226/226/226 227/227/227 252/252/252
f 226/226/226 252/252/252 251/251/251
f 227/227/227 228/228/228 253/253/253
f 227/227/227 253/253/253 252/252/252
f 228/228/228 229/229/229 254/254/254
f 228/228/228 254/254/254 253/253/253
f 229/229/229 230/230/230 255/255/255
f 229/229/229 255/255/255 254/254/254
f 230/230/230 231/231/231 256/256/256
f 230/230/230 256/256/256 255/255/255
f 231/231/231 232/232/232 257/257/257
f 231/231/231 257/257/257 256/256/256
f 232/232/232 233/233/233 258/258/258
f 232/232/232 258/258/258 257/257/257
f 233/233/233 234/234/234 259/259/259
f 233/233/233 259/259/259 258/258/258
f 234/234/234 235/235/235 260/260/260
f 234/234/234 260/260/260 259/259/259
f 235/235/235 236/236/236 261/261/261
f 235/235/235 261/261/261 260/260/260
f 236/236/236 237/237/237 262/262/262
f 236/236/236 262/262/262 261/261/261
f 237/237/237 238/238/238 263/263/263
f 237/237/237 263/263/263 262/262/262
f 238/238/238 239/239/239 264/264/264
f 238/238/238 264/264/264 263/263/263
f 239/239/239 240/240/240 265/265/265
f 239/239/239 265/265/265 264/264/264
f 240/240/240 241/241/241 266/266/266
f 240/240/240 266/266/266 265/265/265
f 241/241/241 242/242/242 267/267/267
f 241/241/241 267/267/267 266/266/266
f 242/242/242 243/243/243 268/268/268
f 242/242/242 268/268/268 267/267/267
f 243/243/243 244/244/244 269/269/269
f 243/243/243 269/269/269 268/268/268
f 244/244/244 245/245/245 270/270/270
f 244/244/244 270/270/270 269/269/269
f 245/245/245 246/246/246 271/271/271
f 245/245/245 271/271/271 270/270/270
f 246/246/246 247/247/247 272/272/272
f 246/246/246 272/272/272 271/271/271
f 247/247/247 248/248/248 273/273/273
f 247/247/247 273/273/273 272/272/272
f 248/248/248 249/249/249 274/274/274
f 248/248/248 274/274/274 273/273/273
f 249/249/249 250/250/250 275/275/275
f 249/249/249 275/275/275 274/274/274
f 251/251/251 252/252/252 277/277/277
f 251/251/251 277/277/277 276/276/276
f 252/252/252 253/253/253 278/278/278
f 252/252/252 278/278/278 277/277/277
f 253/253/253 254/254/254 279/279/279
f 253/253/253 279/279/279 278/278/278
f 254/254/254 255/255/255 280/280/280
f 254/254/254 280/280/280 279/279/279
f 255/255/255 256/256/256 281/281/281
f 255/255/255 281/281/281 280/280/280
f 256/256/256 257/257/257 282/282/282
f 256/256/256 282/282/282 281/281/281
f 257/257/257 258/258/258 283/283/283
f 257/257/257 283/283/283 282/282/282
f 258/258/258 259/259/259 284/284/284
f 258/258/258 284/284/284 283/283/283
f 259/259/259 260/260/260 285/285/285
f 259/259/259 285/285/285 284/284/284
f 260/260/260 261/261/261 286/286/286
f 260/260/260 286/286/286 285/285/285
f 261/261/261 262/262/262 287/287/287
f 261/261/261 287/287/287 286/286/286
f 262/262/262 263/263/263 288/288/288
f 262/262/262 288/288/288 287/287/287
f 263/263/263 264/264/264 289/289/289
f 263/263/263 289/289/289 288/288/288
f 264/264/264 265/265/265 290/290/290
f 264/264/264 290/290/290 289/289/289
f 265/265/265 266/266/266 291/291/291
f 265/265/265 291/291/291 290/290/290
f 266/266/266 267/267/267 292/292/292
f 266/266/266 292/292/292 291/291/291
f 267/267/267 268/268/268 293/293/293
f 267/267/267 293/293/293 292/292/292
f 268/268/268 269/269/269 294/294/294
f 268/268/268 294/294/294 293/293/293
f 269/269/269 270/270/270 295/295/295
f 269/269/269 295/295/295 294/294/294
f 270/270/270 271/271/271 296/296/296
f 270/270/270 296/296/296 295/295/295
f 271/271/271 272/272/272 297/297/297
f 271/271/271 297/297/297 296/296/296
f 272/272/272 273/273/273 298/298/298
f 272/272/272 298/298/298 297/297/297
f 273/273/273 274/274/274 299/299/299
f 273/273/273 299/299/299 298/298/298
f 274/274/274 275/275/275 300/300/300
f 274/274/274 300/300/300 299/299/299
f 276/276/276 277/277/277 302/302/302
f 276/276/276 302/302/302 301/301/301
f 277/277/277 278/278/278 303/303/303
f 277/277/277 303/303/303 302/302/302
f 278/278/278 279/279/279 304/304/304
f 278/278/278 304/304/304 303/303/303
f 279/279/279 280/280/280 305/305/305
f 279/279/279 305/305/305 304/304/304
f 280/280/280 281/281/281 306/306/306
f 280/280/280 306/306/306 305/305/305
f 281/281/281 282/282/282 307/307/307
f 281/281/281 307/307/307 306/306/306
f 282/282/282 283/283/283 308/308/308
f 282/282/282 308/308/308 307/307/307
f 283/283/283 284/284/284 309/309/309
f 283/283/283 309/309/309 308/308/308
f 284/284/284 285/285/285 310/310/310
f 284/284/284 310/310/310 309/309/309
f 285/285/285 286/286/286 311/311/311
f 285/285/285 311/311/311 310/310/310
f 286/286/286 287/287/287 312/312/312
f 286/286/286 312/312/312 311/311/311
f 287/287/287 288/288/288 313/313/313
f 287/287/287 313/313/313 312/312/312
f 288/288/288 289/289/289 314/314/314
f 288/288/288 314/314/314 313/313/313
f 289/289/289 290/290/290 315/315/315
f 289/289/289 315/315/315 314/314/314
f 290/290/290 291/291/291 316/316/316
f 290/290/290 316/316/316 315/315/315
f 291/291/291 292/292/292 317/317/317
f 291/291/291 317/317/317 316/316/316
f 292/292/292 293/293/293 318/318/318
f 292/292/292 318/318/318 317/317/317
f 293/293/293 294/294/294 319/319/319
f 293/293/293 319/319/319 318/318/318
f 294/294/294 295/295/295 320/320/320
f 294/294/294 320/320/320 319/319/319
f 295/295/295 296/296/296 321/321/321
f 295/295/295 321/321/321 320/320/320
f 296/296/296 297/297/297 322/322/322
f 296/296/296 322/322/322 321/321/321
f 297/297/297 298/298/298 323/323/323
f 297/297/297 323/323/323 322/322/322
f 298/298/298 299/299/299 324/324/324
f 298/298/298 324/324/324 323/323/323
f 299/299/299 300/300/300 325/325/325
f 299/299/299 325/325/325 324/324/324
f 301/301/301 302/302/302 327/327/327
f 301/301/301 327/327/327 326/326/326
f 302/302/302 303/303/303 328/328/328
f 302/302/302 328/328/328 327/327/327
f 303/303/303 304/304/304 329/329/329
f 303/303/303 329/329/329 328/328/328
f 304/304/304 305/305/305 330/330/330
f 304/304/304 330/330/330 329/329/329
f 305/305/305 306/306/306 331/331/331
f 305/305/305 331/331/331 330/330/330
f 306/306/306 307/307/307 332/332/332
f 306/306/306 332/332/332 331/331/331
f 307/307/307 308/308/308 333/333/333
f 307/307/307 333/333/333 332/332/332
f 308/308/308 309/309/309 334/334/334
f 308/308/308 334/334/334 333/333/333
f 309/309/309 310/310/310 335/335/335
f 309/309/309 335/335/335 334/334/334
f 310/310/310 311/311/311 336/336/336
f 310/310/310 336/336/336 335/335/335
f 311/311/311 312/312/312 337/337/337
f 311/311/311 337/337/337 336/336/336
f 312/312/312 313/313/313 338/338/338
f 312/312/312 338/338/338 337/337/337
f 313/313/313 314/314/314 339/339/339
f 313/313/313 339/339/339 338/338/338
f 314/314/314 315/315/315 340/340/340
f 314/314/314 340/340/340 339/339/339
f 315/315/315 316/316/316 341/341/341
f 315/315/315 341/341/341 340/340/340
f 316/316/316 317/317/317 342/342/342
f 316/316/316 342/342/342 341/341/341
f 317/317/317 318/318/318 343/343/343
f 317/317/317 343/343/343 342/342/342
f 318/318/318 319/319/319 344/344/344
f 318/318/318 344/344/344 343/343/343
f 319/319/319 320/320/320 345/345/345
f 319/319/319 345/345/345 344/344/344
f 320/320/320 321/321/321 346/346/346
f 320/320/320 346/346/346 345/345/345
f 321/321/321 322/322/322 347/347/347
f 321/321/321 347/347/347 346/346/346
f 322/322/322 323/323/323 348/348/348
f 322/322/322 348/348/348 347/347/347
f 323/323/323 324/324/324 349/349/349
f 323/323/323 349/349/349 348/348/348
f 324/324/324 325/325/325 350/350/350
f 324/324/324 350/350/350 349/349/349
f 326/326/326 327/327/327 352/352/352
f 326/326/326 352/352/352 351/351/351
f 327/327/327 328/328/328 353/353/353
f 327/327/327 353/353/353 352/352/352
f 328/328/328 329/329/329 354/354/354
f 328/328/328 354/354/354 353/353/353
f 329/329/329 330/330/330 355/355/355
f 329/329/329 355/355/355 354/354/354
f 330/330/330 331/331/331 356/356/356
f 330/330/330 356/356/356 355/355/355
f 331/331/331 332/332/332 357/357/357
f 331/331/331 357/357/357 356/356/356
f 332/332/332 333/333/333 358/358/358
f 332/332/332 358/358/358 357/357/357
f 333/333/333 334/334/334 359/359/359
f 333/333/333 359/359/359 358/358/358
f 334/334/334 335/335/335 360/360/360
f 334/334/334 360/360/360 359/359/359
f 335/335/335 336/336/336 361/361/361
f 335/335/335 361/361/361 360/360/360
f 336/336/336 337/337/337 362/362/362
f 336/336/336 362/362/362 361/361/361
f 337/337/337 338/338/338 363/363/363
f 337/337/337 363/363/363 362/362/362
f 338/338/338 339/339/339 364/364/364
f 338/338/338 364/364/364 363/363/363
f 339/339/339 340/340/340 365/365/365
f 339/339/339 365/365/365 364/364/364
f 340/340/340 341/341/341 366/366/366
f 340/340/340 366/366/366 365/365/365
f 341/341/341 342/342/342 367/367/367
f 341/341/341 367/367/367 366/366/366
f 342/342/342 343/343/343 368/368/368
f 342/342/342 368/368/368 367/367/367
f 343/343/343 344/344/344 369/369/369
f 343/343/343 369/369/369 368/368/368
f 344/344/344 345/345/345 370/370/370
f 344/344/344 370/370/370 369/369/369
f 345/345/345 346/346/346 371/371/371
f 345/345/345 371/371/371 370/370/370
f 346/346/346 347/347/347 372/372/372
f 346/346/346 372/372/372 371/371/371
f 347/347/347 348/348/348 373/373/373
f 347/347/347 373/373/373 372/372/372
f 348/348/348 349/349/349 374/374/374
f 348/348/348 374/374/374 373/373/373
f 349/349/349 350/350/350 375/375/375
f 349/349/349 375/375/375 374/374/374
f 351/351/351 352/352/352 377/377/377
f 351/351/351 377/377/377 376/376/376
f 352/352/352 353/353/353 378/378/378
f 352/352/352 378/378/378 377/377/377
f 353/353/353 354/354/354 379/379/379
f 353/353/353 379/379/379 378/378/378
f 354/354/354 355/355/355 380/380/380
f 354/354/354 380/380/380 379/379/379
f 355/355/355 356/356/356 381/381/381
f 355/355/355 381/381/381 380/380/380
f 356/356/356 357/357/357 382/382/382
f 356/356/356 382/382/382 381/381/381
f 357/357/357 358/358/358 383/383/383
f 357/357/357 383/383/383 382/382/382
f 358/358/358 359/359/359 384/384/384
f 358/358/358 384/384/384 383/383/383
f 359/359/359 360/360/360 385/385/385
f 359/359/359 385/385/385 384/384/384
f 360/360/360 361/361/361 386/386/386
f 360/360/360 386/386/386 385/385/385
f 361/361/361 362/362/362 387/387/387
f 361/361/361 387/387/387 386/386/386
f 362/362/362 363/363/363 388/388/388
f 362/362/362 388/388/388 387/387/387
f 363/363/363 364/364/364 389/389/389
f 363/363/363 389/389/389 388/388/388
f 364/364/364 365/365/365 390/390/390
f 364/364/364 390/390/390 389/389/389
f 365/365/365 366/366/366 391/391/391
f 365/365/365 391/391/391 390/390/390
f 366/366/366 367/367/367 392/392/392
f 366/366/366 392/392/392 391/391/391
f 367/367/367 368/368/368 393/393/393
f 367/367/367 393/393/393 392/392/392
f 368/368/368 369/369/369 394/394/394
f 368/368/368 394/394/394 393/393/393
f 369/369/369 370/370/370 395/395/395
f 369/369/369 395/395/395 394/394/394
f 370/370/370 371/371/371 396/396/396
f 370/370/370 396/396/396 395/395/395
f 371/371/371 372/372/372 397/397/397
f 371/371/371 397/397/397 396/396/396
f 372/372/372 373/373/373 398/398/398
f 372/372/372 398/398/398 397/397/397
f 373/373/373 374/374/374 399/399/399
f 373/373/373 399/399/399 398/398/398
f 374/374/374 375/375/375 400/400/400
f 374/374/374 400/400/400 399/399/399
f 376/376/376 377/377/377 402/402/402
f 376/376/376 402/402/402 401/401/401
f 377/377/377 378/378/378 403/403/403
f 377/377/377 403/403/403 402/402/402
f 378/378/378 379/379/379 404/404/404
f 378/378/378 404/404/404 403/403/403
f 379/379/379 380/380/380 405/405/405
f 379/379/379 405/405/405 404/404/404
f 380/380/380 381/381/381 406/406/406
f 380/380/380 406/406/406 405/405/405
f 381/381/381 382/382/382 407/407/407
f 381/381/381 407/407/407 406/406/406
f 382/382/382 383/383/383 408/408/408
f 382/382/382 408/408/408 407/407/407
f 383/383/383 384/384/384 409/409/409
f 383/383/383 409/409/409 408/408/408
f 384/384/384 385/385/385 410/410/410
f 384/384/384 410/410/410 409/409/409
f 385/385/385 386/386/386 411/411/411
f 385/385/385 411/411/411 410/410/410
f 386/386/386 387/387/387 412/412/412
f 386/386/386 412/412/412 411/411/411
f 387/387/387 388/388/388 413/413/413
f 387/387/387 413/413/413 412/412/412
f 388/388/388 389/389/389 414/414/414
f 388/388/388 414/414/414 413/413/413
f 389/389/389 390/390/390 415/415/415
f 389/389/389 415/415/415 414/414/414
f 390/390/390 391/391/391 416/416/416
f 390/390/390 416/416/416 415/415/415
f 391/391/391 392/392/392 417/417/417
f 391/391/391 417/417/417 416/416/416
f 392/392/392 393/393/393 418/418/418
f 392/392/392 418/418/418 417/417/417
f 393/393/393 394/394/394 419/419/419
f 393/393/393 419/419/419 418/418/418
f 394/394/394 395/395/395 420/420/420
f 394/394/394 420/420/420 419/419/419
f 395/395/395 396/396/396 421/421/421
f 395/395/395 421/421/421 420/420/420
f 396/396/396 397/397/397 422/422/422
f 396/396/396 422/422/422 421/421/421
f 397/397/397 398/398/398 423/423/423
f 397/397/397 423/423/423 422/422/422
f 398/398/398 399/399/399 424/424/424
f 398/398/398 424/424/424 423/423/423
f 399/399/399 400/400/400 425/425/425
f 399/399/399 425/425/425 424/424/424
