# Demon Slayer VFX Pack - SM_VFX_Slash_Arc_180 (unites : cm, +X avant, +Z haut dans Unreal)
o SM_VFX_Slash_Arc_180
v 0.0000 -0.0000 168.0000
v 10.5647 -0.0000 161.1862
v 20.5170 -0.0000 155.8421
v 29.9862 -0.0000 150.7507
v 39.0069 -0.0000 145.5756
v 47.5925 -0.0000 140.2030
v 55.7486 -0.0000 134.5891
v 63.4774 -0.0000 128.7194
v 70.7798 -0.0000 122.5941
v 77.6564 -0.0000 116.2210
v 84.1080 -0.0000 109.6117
v 90.1359 -0.0000 102.7803
v 95.7416 -0.0000 95.7416
v 100.9271 -0.0000 88.5107
v 105.6943 -0.0000 81.1021
v 110.0455 -0.0000 73.5301
v 113.9827 -0.0000 65.8080
v 117.5078 -0.0000 57.9484
v 120.6219 -0.0000 49.9632
v 123.3260 -0.0000 41.8635
v 125.6200 -0.0000 33.6598
v 127.5032 -0.0000 25.3620
v 128.9740 -0.0000 16.9797
v 130.0297 -0.0000 8.5226
v 130.6668 0.0000 -0.0000
v 130.8810 0.0000 -8.5784
v 130.6667 0.0000 -17.2026
v 130.0179 0.0000 -25.8622
v 128.9278 0.0000 -34.5461
v 127.3891 0.0000 -43.2428
v 125.3940 0.0000 -51.9399
v 122.9348 0.0000 -60.6247
v 120.0038 0.0000 -69.2842
v 116.5937 0.0000 -77.9054
v 112.6983 0.0000 -86.4765
v 108.3125 0.0000 -94.9875
v 103.4332 0.0000 -103.4332
v 98.0604 0.0000 -111.8165
v 92.1997 0.0000 -120.1570
v 85.8670 0.0000 -128.5091
v 79.1055 0.0000 -137.0147
v 72.0642 0.0000 -146.1318
v 64.2908 0.0000 -155.2118
v 54.0018 0.0000 -159.0843
v 43.4816 0.0000 -162.2755
v 32.7752 0.0000 -164.7719
v 21.9284 0.0000 -166.5627
v 10.9877 0.0000 -167.6403
v 0.0000 0.0000 -168.0000
v 0.0000 -0.0000 169.0000
v 10.8416 -0.0000 165.4111
v 21.3532 -0.0000 162.1938
v 31.5758 -0.0000 158.7421
v 41.5030 -0.0000 154.8915
v 51.1186 -0.0000 150.5906
v 60.4024 -0.0000 145.8243
v 69.3332 -0.0000 140.5939
v 77.8899 -0.0000 134.9092
v 86.0517 -0.0000 128.7854
v 93.7987 -0.0000 122.2409
v 101.1124 -0.0000 115.2965
v 107.9749 -0.0000 107.9749
v 114.3699 -0.0000 100.2997
v 120.2822 -0.0000 92.2958
v 125.6977 -0.0000 83.9885
v 130.6035 -0.0000 75.4040
v 134.9881 -0.0000 66.5687
v 138.8407 -0.0000 57.5097
v 142.1521 -0.0000 48.2541
v 144.9137 -0.0000 38.8295
v 147.1184 -0.0000 29.2637
v 148.7598 -0.0000 19.5846
v 149.8329 -0.0000 9.8206
v 150.3334 0.0000 -0.0000
v 150.2585 0.0000 -9.8485
v 149.6062 0.0000 -19.6960
v 148.3757 0.0000 -29.5138
v 146.5676 0.0000 -39.2727
v 144.1836 0.0000 -48.9437
v 141.2268 0.0000 -58.4980
v 137.7016 0.0000 -67.9069
v 133.6140 0.0000 -77.1421
v 128.9718 0.0000 -86.1762
v 123.7842 0.0000 -94.9830
v 118.0626 0.0000 -103.5382
v 111.8207 0.0000 -111.8207
v 105.0746 0.0000 -119.8146
v 97.8446 0.0000 -127.5135
v 90.1570 0.0000 -134.9295
v 82.0527 0.0000 -142.1195
v 73.6267 0.0000 -149.3001
v 64.6735 0.0000 -156.1356
v 54.3233 0.0000 -160.0312
v 43.7404 0.0000 -163.2415
v 32.9703 0.0000 -165.7527
v 22.0589 0.0000 -167.5542
v 11.0531 0.0000 -168.6382
v 0.0000 0.0000 -169.0000
v 0.0000 -0.0000 170.0000
v 11.1185 -0.0000 169.6360
v 22.1895 -0.0000 168.5456
v 33.1654 -0.0000 166.7335
v 43.9992 -0.0000 164.2074
v 54.6447 -0.0000 160.9781
v 65.0562 -0.0000 157.0595
v 75.1891 -0.0000 152.4684
v 85.0000 -0.0000 147.2243
v 94.4469 -0.0000 141.3498
v 103.4894 -0.0000 134.8701
v 112.0888 -0.0000 127.8128
v 120.2082 -0.0000 120.2082
v 127.8128 -0.0000 112.0888
v 134.8701 -0.0000 103.4894
v 141.3498 -0.0000 94.4469
v 147.2243 -0.0000 85.0000
v 152.4684 -0.0000 75.1891
v 157.0595 -0.0000 65.0562
v 160.9781 -0.0000 54.6447
v 164.2074 -0.0000 43.9992
v 166.7335 -0.0000 33.1654
v 168.5456 -0.0000 22.1895
v 169.6360 -0.0000 11.1185
v 170.0000 0.0000 -0.0000
v 169.6360 0.0000 -11.1185
v 168.5456 0.0000 -22.1895
v 166.7335 0.0000 -33.1654
v 164.2074 0.0000 -43.9992
v 160.9781 0.0000 -54.6447
v 157.0595 0.0000 -65.0562
v 152.4684 0.0000 -75.1891
v 147.2243 0.0000 -85.0000
v 141.3498 0.0000 -94.4469
v 134.8701 0.0000 -103.4894
v 127.8128 0.0000 -112.0888
v 120.2082 0.0000 -120.2082
v 112.0888 0.0000 -127.8128
v 103.4894 0.0000 -134.8701
v 94.4469 0.0000 -141.3498
v 85.0000 0.0000 -147.2243
v 75.1891 0.0000 -152.4684
v 65.0562 0.0000 -157.0595
v 54.6447 0.0000 -160.9781
v 43.9992 0.0000 -164.2074
v 33.1654 0.0000 -166.7335
v 22.1895 0.0000 -168.5456
v 11.1185 0.0000 -169.6360
v 0.0000 0.0000 -170.0000
v 0.0000 -0.0000 171.0000
v 11.3954 -0.0000 173.8609
v 23.0257 -0.0000 174.8974
v 34.7549 -0.0000 174.7249
v 46.4954 -0.0000 173.5233
v 58.1708 -0.0000 171.3657
v 69.7100 -0.0000 168.2947
v 81.0449 -0.0000 164.3428
v 92.1101 -0.0000 159.5394
v 102.8422 -0.0000 153.9143
v 113.1801 -0.0000 147.4992
v 123.0652 -0.0000 140.3290
v 132.4414 -0.0000 132.4414
v 141.2556 -0.0000 123.8779
v 149.4580 -0.0000 114.6831
v 157.0020 -0.0000 104.9054
v 163.8451 -0.0000 94.5960
v 169.9487 -0.0000 83.8094
v 175.2783 -0.0000 72.6027
v 179.8042 -0.0000 61.0353
v 183.5011 -0.0000 49.1690
v 186.3486 -0.0000 37.0670
v 188.3315 -0.0000 24.7943
v 189.4392 -0.0000 12.4165
v 189.6666 0.0000 -0.0000
v 189.0135 0.0000 -12.3886
v 187.4851 0.0000 -24.6829
v 185.0913 0.0000 -36.8169
v 181.8472 0.0000 -48.7258
v 177.7726 0.0000 -60.3457
v 172.8923 0.0000 -71.6143
v 167.2352 0.0000 -82.4713
v 160.8346 0.0000 -92.8579
v 153.7279 0.0000 -102.7177
v 145.9559 0.0000 -111.9959
v 137.5629 0.0000 -120.6394
v 128.5956 0.0000 -128.5956
v 119.1030 0.0000 -135.8109
v 109.1343 0.0000 -142.2266
v 98.7369 0.0000 -147.7702
v 87.9473 0.0000 -152.3291
v 76.7515 0.0000 -155.6366
v 65.4389 0.0000 -157.9834
v 54.9661 0.0000 -161.9251
v 44.2581 0.0000 -165.1733
v 33.3604 0.0000 -167.7143
v 22.3200 0.0000 -169.5371
v 11.1839 0.0000 -170.6339
v 0.0000 0.0000 -171.0000
v 0.0000 -0.0000 172.0000
v 11.6724 -0.0000 178.0858
v 23.8619 -0.0000 181.2492
v 36.3445 -0.0000 182.7163
v 48.9916 -0.0000 182.8392
v 61.6969 -0.0000 181.7532
v 74.3637 -0.0000 179.5300
v 86.9008 -0.0000 176.2173
v 99.2202 -0.0000 171.8545
v 111.2375 -0.0000 166.4787
v 122.8709 -0.0000 160.1284
v 134.0416 -0.0000 152.8452
v 144.6747 -0.0000 144.6747
v 154.6985 -0.0000 135.6669
v 164.0458 -0.0000 125.8768
v 172.6542 -0.0000 115.3638
v 180.4659 -0.0000 104.1920
v 187.4290 -0.0000 92.4297
v 193.4971 -0.0000 80.1491
v 198.6302 -0.0000 67.4259
v 202.7948 -0.0000 54.3387
v 205.9638 -0.0000 40.9687
v 208.1173 -0.0000 27.3992
v 209.2423 -0.0000 13.7145
v 209.3332 0.0000 -0.0000
v 208.3911 0.0000 -13.6587
v 206.4246 0.0000 -27.1763
v 203.4491 0.0000 -40.4685
v 199.4869 0.0000 -53.4524
v 194.5671 0.0000 -66.0466
v 188.7250 0.0000 -78.1725
v 182.0020 0.0000 -89.7534
v 174.4449 0.0000 -100.7158
v 166.1059 0.0000 -110.9884
v 157.0418 0.0000 -120.5024
v 147.3130 0.0000 -129.1900
v 136.9831 0.0000 -136.9831
v 126.1171 0.0000 -143.8090
v 114.7792 0.0000 -149.5832
v 103.0268 0.0000 -154.1906
v 90.8945 0.0000 -157.4339
v 78.3139 0.0000 -158.8049
v 65.8216 0.0000 -158.9073
v 55.2876 0.0000 -162.8720
v 44.5169 0.0000 -166.1392
v 33.5555 0.0000 -168.6951
v 22.4505 0.0000 -170.5285
v 11.2493 0.0000 -171.6317
v 0.0000 0.0000 -172.0000
v 0.0000 -0.0000 168.0000
v 10.5647 -0.0000 161.1862
v 20.5170 -0.0000 155.8421
v 29.9862 -0.0000 150.7507
v 39.0069 -0.0000 145.5756
v 47.5925 -0.0000 140.2030
v 55.7486 -0.0000 134.5891
v 63.4774 -0.0000 128.7194
v 70.7798 -0.0000 122.5941
v 77.6564 -0.0000 116.2210
v 84.1080 -0.0000 109.6117
v 90.1359 -0.0000 102.7803
v 95.7416 -0.0000 95.7416
v 100.9271 -0.0000 88.5107
v 105.6943 -0.0000 81.1021
v 110.0455 -0.0000 73.5301
v 113.9827 -0.0000 65.8080
v 117.5078 -0.0000 57.9484
v 120.6219 -0.0000 49.9632
v 123.3260 -0.0000 41.8635
v 125.6200 -0.0000 33.6598
v 127.5032 -0.0000 25.3620
v 128.9740 -0.0000 16.9797
v 130.0297 -0.0000 8.5226
v 130.6668 0.0000 -0.0000
v 130.8810 0.0000 -8.5784
v 130.6667 0.0000 -17.2026
v 130.0179 0.0000 -25.8622
v 128.9278 0.0000 -34.5461
v 127.3891 0.0000 -43.2428
v 125.3940 0.0000 -51.9399
v 122.9348 0.0000 -60.6247
v 120.0038 0.0000 -69.2842
v 116.5937 0.0000 -77.9054
v 112.6983 0.0000 -86.4765
v 108.3125 0.0000 -94.9875
v 103.4332 0.0000 -103.4332
v 98.0604 0.0000 -111.8165
v 92.1997 0.0000 -120.1570
v 85.8670 0.0000 -128.5091
v 79.1055 0.0000 -137.0147
v 72.0642 0.0000 -146.1318
v 64.2908 0.0000 -155.2118
v 54.0018 0.0000 -159.0843
v 43.4816 0.0000 -162.2755
v 32.7752 0.0000 -164.7719
v 21.9284 0.0000 -166.5627
v 10.9877 0.0000 -167.6403
v 0.0000 0.0000 -168.0000
v 0.0000 -0.0000 169.0000
v 10.8416 -0.0000 165.4111
v 21.3532 -0.0000 162.1938
v 31.5758 -0.0000 158.7421
v 41.5030 -0.0000 154.8915
v 51.1186 -0.0000 150.5906
v 60.4024 -0.0000 145.8243
v 69.3332 -0.0000 140.5939
v 77.8899 -0.0000 134.9092
v 86.0517 -0.0000 128.7854
v 93.7987 -0.0000 122.2409
v 101.1124 -0.0000 115.2965
v 107.9749 -0.0000 107.9749
v 114.3699 -0.0000 100.2997
v 120.2822 -0.0000 92.2958
v 125.6977 -0.0000 83.9885
v 130.6035 -0.0000 75.4040
v 134.9881 -0.0000 66.5687
v 138.8407 -0.0000 57.5097
v 142.1521 -0.0000 48.2541
v 144.9137 -0.0000 38.8295
v 147.1184 -0.0000 29.2637
v 148.7598 -0.0000 19.5846
v 149.8329 -0.0000 9.8206
v 150.3334 0.0000 -0.0000
v 150.2585 0.0000 -9.8485
v 149.6062 0.0000 -19.6960
v 148.3757 0.0000 -29.5138
v 146.5676 0.0000 -39.2727
v 144.1836 0.0000 -48.9437
v 141.2268 0.0000 -58.4980
v 137.7016 0.0000 -67.9069
v 133.6140 0.0000 -77.1421
v 128.9718 0.0000 -86.1762
v 123.7842 0.0000 -94.9830
v 118.0626 0.0000 -103.5382
v 111.8207 0.0000 -111.8207
v 105.0746 0.0000 -119.8146
v 97.8446 0.0000 -127.5135
v 90.1570 0.0000 -134.9295
v 82.0527 0.0000 -142.1195
v 73.6267 0.0000 -149.3001
v 64.6735 0.0000 -156.1356
v 54.3233 0.0000 -160.0312
v 43.7404 0.0000 -163.2415
v 32.9703 0.0000 -165.7527
v 22.0589 0.0000 -167.5542
v 11.0531 0.0000 -168.6382
v 0.0000 0.0000 -169.0000
v 0.0000 -0.0000 170.0000
v 11.1185 -0.0000 169.6360
v 22.1895 -0.0000 168.5456
v 33.1654 -0.0000 166.7335
v 43.9992 -0.0000 164.2074
v 54.6447 -0.0000 160.9781
v 65.0562 -0.0000 157.0595
v 75.1891 -0.0000 152.4684
v 85.0000 -0.0000 147.2243
v 94.4469 -0.0000 141.3498
v 103.4894 -0.0000 134.8701
v 112.0888 -0.0000 127.8128
v 120.2082 -0.0000 120.2082
v 127.8128 -0.0000 112.0888
v 134.8701 -0.0000 103.4894
v 141.3498 -0.0000 94.4469
v 147.2243 -0.0000 85.0000
v 152.4684 -0.0000 75.1891
v 157.0595 -0.0000 65.0562
v 160.9781 -0.0000 54.6447
v 164.2074 -0.0000 43.9992
v 166.7335 -0.0000 33.1654
v 168.5456 -0.0000 22.1895
v 169.6360 -0.0000 11.1185
v 170.0000 0.0000 -0.0000
v 169.6360 0.0000 -11.1185
v 168.5456 0.0000 -22.1895
v 166.7335 0.0000 -33.1654
v 164.2074 0.0000 -43.9992
v 160.9781 0.0000 -54.6447
v 157.0595 0.0000 -65.0562
v 152.4684 0.0000 -75.1891
v 147.2243 0.0000 -85.0000
v 141.3498 0.0000 -94.4469
v 134.8701 0.0000 -103.4894
v 127.8128 0.0000 -112.0888
v 120.2082 0.0000 -120.2082
v 112.0888 0.0000 -127.8128
v 103.4894 0.0000 -134.8701
v 94.4469 0.0000 -141.3498
v 85.0000 0.0000 -147.2243
v 75.1891 0.0000 -152.4684
v 65.0562 0.0000 -157.0595
v 54.6447 0.0000 -160.9781
v 43.9992 0.0000 -164.2074
v 33.1654 0.0000 -166.7335
v 22.1895 0.0000 -168.5456
v 11.1185 0.0000 -169.6360
v 0.0000 0.0000 -170.0000
v 0.0000 -0.0000 171.0000
v 11.3954 -0.0000 173.8609
v 23.0257 -0.0000 174.8974
v 34.7549 -0.0000 174.7249
v 46.4954 -0.0000 173.5233
v 58.1708 -0.0000 171.3657
v 69.7100 -0.0000 168.2947
v 81.0449 -0.0000 164.3428
v 92.1101 -0.0000 159.5394
v 102.8422 -0.0000 153.9143
v 113.1801 -0.0000 147.4992
v 123.0652 -0.0000 140.3290
v 132.4414 -0.0000 132.4414
v 141.2556 -0.0000 123.8779
v 149.4580 -0.0000 114.6831
v 157.0020 -0.0000 104.9054
v 163.8451 -0.0000 94.5960
v 169.9487 -0.0000 83.8094
v 175.2783 -0.0000 72.6027
v 179.8042 -0.0000 61.0353
v 183.5011 -0.0000 49.1690
v 186.3486 -0.0000 37.0670
v 188.3315 -0.0000 24.7943
v 189.4392 -0.0000 12.4165
v 189.6666 0.0000 -0.0000
v 189.0135 0.0000 -12.3886
v 187.4851 0.0000 -24.6829
v 185.0913 0.0000 -36.8169
v 181.8472 0.0000 -48.7258
v 177.7726 0.0000 -60.3457
v 172.8923 0.0000 -71.6143
v 167.2352 0.0000 -82.4713
v 160.8346 0.0000 -92.8579
v 153.7279 0.0000 -102.7177
v 145.9559 0.0000 -111.9959
v 137.5629 0.0000 -120.6394
v 128.5956 0.0000 -128.5956
v 119.1030 0.0000 -135.8109
v 109.1343 0.0000 -142.2266
v 98.7369 0.0000 -147.7702
v 87.9473 0.0000 -152.3291
v 76.7515 0.0000 -155.6366
v 65.4389 0.0000 -157.9834
v 54.9661 0.0000 -161.9251
v 44.2581 0.0000 -165.1733
v 33.3604 0.0000 -167.7143
v 22.3200 0.0000 -169.5371
v 11.1839 0.0000 -170.6339
v 0.0000 0.0000 -171.0000
v 0.0000 -0.0000 172.0000
v 11.6724 -0.0000 178.0858
v 23.8619 -0.0000 181.2492
v 36.3445 -0.0000 182.7163
v 48.9916 -0.0000 182.8392
v 61.6969 -0.0000 181.7532
v 74.3637 -0.0000 179.5300
v 86.9008 -0.0000 176.2173
v 99.2202 -0.0000 171.8545
v 111.2375 -0.0000 166.4787
v 122.8709 -0.0000 160.1284
v 134.0416 -0.0000 152.8452
v 144.6747 -0.0000 144.6747
v 154.6985 -0.0000 135.6669
v 164.0458 -0.0000 125.8768
v 172.6542 -0.0000 115.3638
v 180.4659 -0.0000 104.1920
v 187.4290 -0.0000 92.4297
v 193.4971 -0.0000 80.1491
v 198.6302 -0.0000 67.4259
v 202.7948 -0.0000 54.3387
v 205.9638 -0.0000 40.9687
v 208.1173 -0.0000 27.3992
v 209.2423 -0.0000 13.7145
v 209.3332 0.0000 -0.0000
v 208.3911 0.0000 -13.6587
v 206.4246 0.0000 -27.1763
v 203.4491 0.0000 -40.4685
v 199.4869 0.0000 -53.4524
v 194.5671 0.0000 -66.0466
v 188.7250 0.0000 -78.1725
v 182.0020 0.0000 -89.7534
v 174.4449 0.0000 -100.7158
v 166.1059 0.0000 -110.9884
v 157.0418 0.0000 -120.5024
v 147.3130 0.0000 -129.1900
v 136.9831 0.0000 -136.9831
v 126.1171 0.0000 -143.8090
v 114.7792 0.0000 -149.5832
v 103.0268 0.0000 -154.1906
v 90.8945 0.0000 -157.4339
v 78.3139 0.0000 -158.8049
v 65.8216 0.0000 -158.9073
v 55.2876 0.0000 -162.8720
v 44.5169 0.0000 -166.1392
v 33.5555 0.0000 -168.6951
v 22.4505 0.0000 -170.5285
v 11.2493 0.0000 -171.6317
v 0.0000 0.0000 -172.0000
vt 0.00000 1.00000
vt 0.02083 1.00000
vt 0.04167 1.00000
vt 0.06250 1.00000
vt 0.08333 1.00000
vt 0.10417 1.00000
vt 0.12500 1.00000
vt 0.14583 1.00000
vt 0.16667 1.00000
vt 0.18750 1.00000
vt 0.20833 1.00000
vt 0.22917 1.00000
vt 0.25000 1.00000
vt 0.27083 1.00000
vt 0.29167 1.00000
vt 0.31250 1.00000
vt 0.33333 1.00000
vt 0.35417 1.00000
vt 0.37500 1.00000
vt 0.39583 1.00000
vt 0.41667 1.00000
vt 0.43750 1.00000
vt 0.45833 1.00000
vt 0.47917 1.00000
vt 0.50000 1.00000
vt 0.52083 1.00000
vt 0.54167 1.00000
vt 0.56250 1.00000
vt 0.58333 1.00000
vt 0.60417 1.00000
vt 0.62500 1.00000
vt 0.64583 1.00000
vt 0.66667 1.00000
vt 0.68750 1.00000
vt 0.70833 1.00000
vt 0.72917 1.00000
vt 0.75000 1.00000
vt 0.77083 1.00000
vt 0.79167 1.00000
vt 0.81250 1.00000
vt 0.83333 1.00000
vt 0.85417 1.00000
vt 0.87500 1.00000
vt 0.89583 1.00000
vt 0.91667 1.00000
vt 0.93750 1.00000
vt 0.95833 1.00000
vt 0.97917 1.00000
vt 1.00000 1.00000
vt 0.00000 0.75000
vt 0.02083 0.75000
vt 0.04167 0.75000
vt 0.06250 0.75000
vt 0.08333 0.75000
vt 0.10417 0.75000
vt 0.12500 0.75000
vt 0.14583 0.75000
vt 0.16667 0.75000
vt 0.18750 0.75000
vt 0.20833 0.75000
vt 0.22917 0.75000
vt 0.25000 0.75000
vt 0.27083 0.75000
vt 0.29167 0.75000
vt 0.31250 0.75000
vt 0.33333 0.75000
vt 0.35417 0.75000
vt 0.37500 0.75000
vt 0.39583 0.75000
vt 0.41667 0.75000
vt 0.43750 0.75000
vt 0.45833 0.75000
vt 0.47917 0.75000
vt 0.50000 0.75000
vt 0.52083 0.75000
vt 0.54167 0.75000
vt 0.56250 0.75000
vt 0.58333 0.75000
vt 0.60417 0.75000
vt 0.62500 0.75000
vt 0.64583 0.75000
vt 0.66667 0.75000
vt 0.68750 0.75000
vt 0.70833 0.75000
vt 0.72917 0.75000
vt 0.75000 0.75000
vt 0.77083 0.75000
vt 0.79167 0.75000
vt 0.81250 0.75000
vt 0.83333 0.75000
vt 0.85417 0.75000
vt 0.87500 0.75000
vt 0.89583 0.75000
vt 0.91667 0.75000
vt 0.93750 0.75000
vt 0.95833 0.75000
vt 0.97917 0.75000
vt 1.00000 0.75000
vt 0.00000 0.50000
vt 0.02083 0.50000
vt 0.04167 0.50000
vt 0.06250 0.50000
vt 0.08333 0.50000
vt 0.10417 0.50000
vt 0.12500 0.50000
vt 0.14583 0.50000
vt 0.16667 0.50000
vt 0.18750 0.50000
vt 0.20833 0.50000
vt 0.22917 0.50000
vt 0.25000 0.50000
vt 0.27083 0.50000
vt 0.29167 0.50000
vt 0.31250 0.50000
vt 0.33333 0.50000
vt 0.35417 0.50000
vt 0.37500 0.50000
vt 0.39583 0.50000
vt 0.41667 0.50000
vt 0.43750 0.50000
vt 0.45833 0.50000
vt 0.47917 0.50000
vt 0.50000 0.50000
vt 0.52083 0.50000
vt 0.54167 0.50000
vt 0.56250 0.50000
vt 0.58333 0.50000
vt 0.60417 0.50000
vt 0.62500 0.50000
vt 0.64583 0.50000
vt 0.66667 0.50000
vt 0.68750 0.50000
vt 0.70833 0.50000
vt 0.72917 0.50000
vt 0.75000 0.50000
vt 0.77083 0.50000
vt 0.79167 0.50000
vt 0.81250 0.50000
vt 0.83333 0.50000
vt 0.85417 0.50000
vt 0.87500 0.50000
vt 0.89583 0.50000
vt 0.91667 0.50000
vt 0.93750 0.50000
vt 0.95833 0.50000
vt 0.97917 0.50000
vt 1.00000 0.50000
vt 0.00000 0.25000
vt 0.02083 0.25000
vt 0.04167 0.25000
vt 0.06250 0.25000
vt 0.08333 0.25000
vt 0.10417 0.25000
vt 0.12500 0.25000
vt 0.14583 0.25000
vt 0.16667 0.25000
vt 0.18750 0.25000
vt 0.20833 0.25000
vt 0.22917 0.25000
vt 0.25000 0.25000
vt 0.27083 0.25000
vt 0.29167 0.25000
vt 0.31250 0.25000
vt 0.33333 0.25000
vt 0.35417 0.25000
vt 0.37500 0.25000
vt 0.39583 0.25000
vt 0.41667 0.25000
vt 0.43750 0.25000
vt 0.45833 0.25000
vt 0.47917 0.25000
vt 0.50000 0.25000
vt 0.52083 0.25000
vt 0.54167 0.25000
vt 0.56250 0.25000
vt 0.58333 0.25000
vt 0.60417 0.25000
vt 0.62500 0.25000
vt 0.64583 0.25000
vt 0.66667 0.25000
vt 0.68750 0.25000
vt 0.70833 0.25000
vt 0.72917 0.25000
vt 0.75000 0.25000
vt 0.77083 0.25000
vt 0.79167 0.25000
vt 0.81250 0.25000
vt 0.83333 0.25000
vt 0.85417 0.25000
vt 0.87500 0.25000
vt 0.89583 0.25000
vt 0.91667 0.25000
vt 0.93750 0.25000
vt 0.95833 0.25000
vt 0.97917 0.25000
vt 1.00000 0.25000
vt 0.00000 0.00000
vt 0.02083 0.00000
vt 0.04167 0.00000
vt 0.06250 0.00000
vt 0.08333 0.00000
vt 0.10417 0.00000
vt 0.12500 0.00000
vt 0.14583 0.00000
vt 0.16667 0.00000
vt 0.18750 0.00000
vt 0.20833 0.00000
vt 0.22917 0.00000
vt 0.25000 0.00000
vt 0.27083 0.00000
vt 0.29167 0.00000
vt 0.31250 0.00000
vt 0.33333 0.00000
vt 0.35417 0.00000
vt 0.37500 0.00000
vt 0.39583 0.00000
vt 0.41667 0.00000
vt 0.43750 0.00000
vt 0.45833 0.00000
vt 0.47917 0.00000
vt 0.50000 0.00000
vt 0.52083 0.00000
vt 0.54167 0.00000
vt 0.56250 0.00000
vt 0.58333 0.00000
vt 0.60417 0.00000
vt 0.62500 0.00000
vt 0.64583 0.00000
vt 0.66667 0.00000
vt 0.68750 0.00000
vt 0.70833 0.00000
vt 0.72917 0.00000
vt 0.75000 0.00000
vt 0.77083 0.00000
vt 0.79167 0.00000
vt 0.81250 0.00000
vt 0.83333 0.00000
vt 0.85417 0.00000
vt 0.87500 0.00000
vt 0.89583 0.00000
vt 0.91667 0.00000
vt 0.93750 0.00000
vt 0.95833 0.00000
vt 0.97917 0.00000
vt 1.00000 0.00000
vt 0.00000 1.00000
vt 0.02083 1.00000
vt 0.04167 1.00000
vt 0.06250 1.00000
vt 0.08333 1.00000
vt 0.10417 1.00000
vt 0.12500 1.00000
vt 0.14583 1.00000
vt 0.16667 1.00000
vt 0.18750 1.00000
vt 0.20833 1.00000
vt 0.22917 1.00000
vt 0.25000 1.00000
vt 0.27083 1.00000
vt 0.29167 1.00000
vt 0.31250 1.00000
vt 0.33333 1.00000
vt 0.35417 1.00000
vt 0.37500 1.00000
vt 0.39583 1.00000
vt 0.41667 1.00000
vt 0.43750 1.00000
vt 0.45833 1.00000
vt 0.47917 1.00000
vt 0.50000 1.00000
vt 0.52083 1.00000
vt 0.54167 1.00000
vt 0.56250 1.00000
vt 0.58333 1.00000
vt 0.60417 1.00000
vt 0.62500 1.00000
vt 0.64583 1.00000
vt 0.66667 1.00000
vt 0.68750 1.00000
vt 0.70833 1.00000
vt 0.72917 1.00000
vt 0.75000 1.00000
vt 0.77083 1.00000
vt 0.79167 1.00000
vt 0.81250 1.00000
vt 0.83333 1.00000
vt 0.85417 1.00000
vt 0.87500 1.00000
vt 0.89583 1.00000
vt 0.91667 1.00000
vt 0.93750 1.00000
vt 0.95833 1.00000
vt 0.97917 1.00000
vt 1.00000 1.00000
vt 0.00000 0.75000
vt 0.02083 0.75000
vt 0.04167 0.75000
vt 0.06250 0.75000
vt 0.08333 0.75000
vt 0.10417 0.75000
vt 0.12500 0.75000
vt 0.14583 0.75000
vt 0.16667 0.75000
vt 0.18750 0.75000
vt 0.20833 0.75000
vt 0.22917 0.75000
vt 0.25000 0.75000
vt 0.27083 0.75000
vt 0.29167 0.75000
vt 0.31250 0.75000
vt 0.33333 0.75000
vt 0.35417 0.75000
vt 0.37500 0.75000
vt 0.39583 0.75000
vt 0.41667 0.75000
vt 0.43750 0.75000
vt 0.45833 0.75000
vt 0.47917 0.75000
vt 0.50000 0.75000
vt 0.52083 0.75000
vt 0.54167 0.75000
vt 0.56250 0.75000
vt 0.58333 0.75000
vt 0.60417 0.75000
vt 0.62500 0.75000
vt 0.64583 0.75000
vt 0.66667 0.75000
vt 0.68750 0.75000
vt 0.70833 0.75000
vt 0.72917 0.75000
vt 0.75000 0.75000
vt 0.77083 0.75000
vt 0.79167 0.75000
vt 0.81250 0.75000
vt 0.83333 0.75000
vt 0.85417 0.75000
vt 0.87500 0.75000
vt 0.89583 0.75000
vt 0.91667 0.75000
vt 0.93750 0.75000
vt 0.95833 0.75000
vt 0.97917 0.75000
vt 1.00000 0.75000
vt 0.00000 0.50000
vt 0.02083 0.50000
vt 0.04167 0.50000
vt 0.06250 0.50000
vt 0.08333 0.50000
vt 0.10417 0.50000
vt 0.12500 0.50000
vt 0.14583 0.50000
vt 0.16667 0.50000
vt 0.18750 0.50000
vt 0.20833 0.50000
vt 0.22917 0.50000
vt 0.25000 0.50000
vt 0.27083 0.50000
vt 0.29167 0.50000
vt 0.31250 0.50000
vt 0.33333 0.50000
vt 0.35417 0.50000
vt 0.37500 0.50000
vt 0.39583 0.50000
vt 0.41667 0.50000
vt 0.43750 0.50000
vt 0.45833 0.50000
vt 0.47917 0.50000
vt 0.50000 0.50000
vt 0.52083 0.50000
vt 0.54167 0.50000
vt 0.56250 0.50000
vt 0.58333 0.50000
vt 0.60417 0.50000
vt 0.62500 0.50000
vt 0.64583 0.50000
vt 0.66667 0.50000
vt 0.68750 0.50000
vt 0.70833 0.50000
vt 0.72917 0.50000
vt 0.75000 0.50000
vt 0.77083 0.50000
vt 0.79167 0.50000
vt 0.81250 0.50000
vt 0.83333 0.50000
vt 0.85417 0.50000
vt 0.87500 0.50000
vt 0.89583 0.50000
vt 0.91667 0.50000
vt 0.93750 0.50000
vt 0.95833 0.50000
vt 0.97917 0.50000
vt 1.00000 0.50000
vt 0.00000 0.25000
vt 0.02083 0.25000
vt 0.04167 0.25000
vt 0.06250 0.25000
vt 0.08333 0.25000
vt 0.10417 0.25000
vt 0.12500 0.25000
vt 0.14583 0.25000
vt 0.16667 0.25000
vt 0.18750 0.25000
vt 0.20833 0.25000
vt 0.22917 0.25000
vt 0.25000 0.25000
vt 0.27083 0.25000
vt 0.29167 0.25000
vt 0.31250 0.25000
vt 0.33333 0.25000
vt 0.35417 0.25000
vt 0.37500 0.25000
vt 0.39583 0.25000
vt 0.41667 0.25000
vt 0.43750 0.25000
vt 0.45833 0.25000
vt 0.47917 0.25000
vt 0.50000 0.25000
vt 0.52083 0.25000
vt 0.54167 0.25000
vt 0.56250 0.25000
vt 0.58333 0.25000
vt 0.60417 0.25000
vt 0.62500 0.25000
vt 0.64583 0.25000
vt 0.66667 0.25000
vt 0.68750 0.25000
vt 0.70833 0.25000
vt 0.72917 0.25000
vt 0.75000 0.25000
vt 0.77083 0.25000
vt 0.79167 0.25000
vt 0.81250 0.25000
vt 0.83333 0.25000
vt 0.85417 0.25000
vt 0.87500 0.25000
vt 0.89583 0.25000
vt 0.91667 0.25000
vt 0.93750 0.25000
vt 0.95833 0.25000
vt 0.97917 0.25000
vt 1.00000 0.25000
vt 0.00000 0.00000
vt 0.02083 0.00000
vt 0.04167 0.00000
vt 0.06250 0.00000
vt 0.08333 0.00000
vt 0.10417 0.00000
vt 0.12500 0.00000
vt 0.14583 0.00000
vt 0.16667 0.00000
vt 0.18750 0.00000
vt 0.20833 0.00000
vt 0.22917 0.00000
vt 0.25000 0.00000
vt 0.27083 0.00000
vt 0.29167 0.00000
vt 0.31250 0.00000
vt 0.33333 0.00000
vt 0.35417 0.00000
vt 0.37500 0.00000
vt 0.39583 0.00000
vt 0.41667 0.00000
vt 0.43750 0.00000
vt 0.45833 0.00000
vt 0.47917 0.00000
vt 0.50000 0.00000
vt 0.52083 0.00000
vt 0.54167 0.00000
vt 0.56250 0.00000
vt 0.58333 0.00000
vt 0.60417 0.00000
vt 0.62500 0.00000
vt 0.64583 0.00000
vt 0.66667 0.00000
vt 0.68750 0.00000
vt 0.70833 0.00000
vt 0.72917 0.00000
vt 0.75000 0.00000
vt 0.77083 0.00000
vt 0.79167 0.00000
vt 0.81250 0.00000
vt 0.83333 0.00000
vt 0.85417 0.00000
vt 0.87500 0.00000
vt 0.89583 0.00000
vt 0.91667 0.00000
vt 0.93750 0.00000
vt 0.95833 0.00000
vt 0.97917 0.00000
vt 1.00000 0.00000
vn 0.00000 1.00000 0.00000
vn 0.00000 1.00000 0.00000
vn 0.00000 1.00000 0.00000
vn 0.00000 1.00000 0.00000
vn 0.00000 1.00000 0.00000
vn 0.00000 1.00000 0.00000
vn 0.00000 1.00000 0.00000
vn 0.00000 1.00000 0.00000
vn 0.00000 1.00000 0.00000
vn 0.00000 1.00000 0.00000
vn 0.00000 1.00000 0.00000
vn 0.00000 1.00000 0.00000
vn 0.00000 1.00000 0.00000
vn 0.00000 1.00000 0.00000
vn 0.00000 1.00000 0.00000
vn 0.00000 1.00000 0.00000
vn 0.00000 1.00000 0.00000
vn 0.00000 1.00000 0.00000
vn 0.00000 1.00000 0.00000
vn 0.00000 1.00000 0.00000
vn 0.00000 1.00000 0.00000
vn 0.00000 1.00000 0.00000
vn 0.00000 1.00000 0.00000
vn 0.00000 1.00000 0.00000
vn 0.00000 1.00000 0.00000
vn 0.00000 1.00000 0.00000
vn 0.00000 1.00000 0.00000
vn 0.00000 1.00000 0.00000
vn 0.00000 1.00000 0.00000
vn 0.00000 1.00000 0.00000
vn 0.00000 1.00000 0.00000
vn 0.00000 1.00000 0.00000
vn 0.00000 1.00000 0.00000
vn 0.00000 1.00000 0.00000
vn 0.00000 1.00000 0.00000
vn 0.00000 1.00000 0.00000
vn 0.00000 1.00000 0.00000
vn 0.00000 1.00000 0.00000
vn 0.00000 1.00000 0.00000
vn 0.00000 1.00000 0.00000
vn 0.00000 1.00000 0.00000
vn 0.00000 1.00000 0.00000
vn 0.00000 1.00000 0.00000
vn 0.00000 1.00000 0.00000
vn 0.00000 1.00000 0.00000
vn 0.00000 1.00000 0.00000
vn 0.00000 1.00000 0.00000
vn 0.00000 1.00000 0.00000
vn 0.00000 1.00000 0.00000
vn 0.00000 1.00000 0.00000
vn 0.00000 1.00000 0.00000
vn 0.00000 1.00000 0.00000
vn 0.00000 1.00000 0.00000
vn 0.00000 1.00000 0.00000
vn 0.00000 1.00000 0.00000
vn 0.00000 1.00000 0.00000
vn 0.00000 1.00000 0.00000
vn 0.00000 1.00000 0.00000
vn 0.00000 1.00000 0.00000
vn 0.00000 1.00000 0.00000
vn 0.00000 1.00000 0.00000
vn 0.00000 1.00000 0.00000
vn 0.00000 1.00000 0.00000
vn 0.00000 1.00000 0.00000
vn 0.00000 1.00000 0.00000
vn 0.00000 1.00000 0.00000
vn 0.00000 1.00000 0.00000
vn 0.00000 1.00000 0.00000
vn 0.00000 1.00000 0.00000
vn 0.00000 1.00000 0.00000
vn 0.00000 1.00000 0.00000
vn 0.00000 1.00000 0.00000
vn 0.00000 1.00000 0.00000
vn 0.00000 1.00000 0.00000
vn 0.00000 1.00000 0.00000
vn 0.00000 1.00000 0.00000
vn 0.00000 1.00000 0.00000
vn 0.00000 1.00000 0.00000
vn 0.00000 1.00000 0.00000
vn 0.00000 1.00000 0.00000
vn 0.00000 1.00000 0.00000
vn 0.00000 1.00000 0.00000
vn 0.00000 1.00000 0.00000
vn 0.00000 1.00000 0.00000
vn 0.00000 1.00000 0.00000
vn 0.00000 1.00000 0.00000
vn 0.00000 1.00000 0.00000
vn 0.00000 1.00000 0.00000
vn 0.00000 1.00000 0.00000
vn 0.00000 1.00000 0.00000
vn 0.00000 1.00000 0.00000
vn 0.00000 1.00000 0.00000
vn 0.00000 1.00000 0.00000
vn 0.00000 1.00000 0.00000
vn 0.00000 1.00000 0.00000
vn 0.00000 1.00000 0.00000
vn 0.00000 1.00000 0.00000
vn 0.00000 1.00000 0.00000
vn 0.00000 1.00000 0.00000
vn 0.00000 1.00000 0.00000
vn 0.00000 1.00000 0.00000
vn 0.00000 1.00000 0.00000
vn 0.00000 1.00000 0.00000
vn 0.00000 1.00000 0.00000
vn 0.00000 1.00000 0.00000
vn 0.00000 1.00000 0.00000
vn 0.00000 1.00000 0.00000
vn 0.00000 1.00000 0.00000
vn 0.00000 1.00000 0.00000
vn 0.00000 1.00000 0.00000
vn 0.00000 1.00000 0.00000
vn 0.00000 1.00000 0.00000
vn 0.00000 1.00000 0.00000
vn 0.00000 1.00000 0.00000
vn 0.00000 1.00000 0.00000
vn 0.00000 1.00000 0.00000
vn 0.00000 1.00000 0.00000
vn 0.00000 1.00000 0.00000
vn 0.00000 1.00000 0.00000
vn 0.00000 1.00000 0.00000
vn 0.00000 1.00000 0.00000
vn 0.00000 1.00000 0.00000
vn 0.00000 1.00000 0.00000
vn 0.00000 1.00000 0.00000
vn 0.00000 1.00000 0.00000
vn 0.00000 1.00000 0.00000
vn 0.00000 1.00000 0.00000
vn 0.00000 1.00000 0.00000
vn 0.00000 1.00000 0.00000
vn 0.00000 1.00000 0.00000
vn 0.00000 1.00000 0.00000
vn 0.00000 1.00000 0.00000
vn 0.00000 1.00000 0.00000
vn 0.00000 1.00000 0.00000
vn 0.00000 1.00000 0.00000
vn 0.00000 1.00000 0.00000
vn 0.00000 1.00000 0.00000
vn 0.00000 1.00000 0.00000
vn 0.00000 1.00000 0.00000
vn 0.00000 1.00000 0.00000
vn 0.00000 1.00000 0.00000
vn 0.00000 1.00000 0.00000
vn 0.00000 1.00000 0.00000
vn 0.00000 1.00000 0.00000
vn 0.00000 1.00000 0.00000
vn 0.00000 1.00000 0.00000
vn 0.00000 1.00000 0.00000
vn 0.00000 1.00000 0.00000
vn 0.00000 1.00000 0.00000
vn 0.00000 1.00000 0.00000
vn 0.00000 1.00000 0.00000
vn 0.00000 1.00000 0.00000
vn 0.00000 1.00000 0.00000
vn 0.00000 1.00000 0.00000
vn 0.00000 1.00000 0.00000
vn 0.00000 1.00000 0.00000
vn 0.00000 1.00000 0.00000
vn 0.00000 1.00000 0.00000
vn 0.00000 1.00000 0.00000
vn 0.00000 1.00000 0.00000
vn 0.00000 1.00000 0.00000
vn 0.00000 1.00000 0.00000
vn 0.00000 1.00000 0.00000
vn 0.00000 1.00000 0.00000
vn 0.00000 1.00000 0.00000
vn 0.00000 1.00000 0.00000
vn 0.00000 1.00000 0.00000
vn 0.00000 1.00000 0.00000
vn 0.00000 1.00000 0.00000
vn 0.00000 1.00000 0.00000
vn 0.00000 1.00000 0.00000
vn 0.00000 1.00000 0.00000
vn 0.00000 1.00000 0.00000
vn 0.00000 1.00000 0.00000
vn 0.00000 1.00000 0.00000
vn 0.00000 1.00000 0.00000
vn 0.00000 1.00000 0.00000
vn 0.00000 1.00000 0.00000
vn 0.00000 1.00000 0.00000
vn 0.00000 1.00000 0.00000
vn 0.00000 1.00000 0.00000
vn 0.00000 1.00000 0.00000
vn 0.00000 1.00000 0.00000
vn 0.00000 1.00000 0.00000
vn 0.00000 1.00000 0.00000
vn 0.00000 1.00000 0.00000
vn 0.00000 1.00000 0.00000
vn 0.00000 1.00000 0.00000
vn 0.00000 1.00000 0.00000
vn 0.00000 1.00000 0.00000
vn 0.00000 1.00000 0.00000
vn 0.00000 1.00000 0.00000
vn 0.00000 1.00000 0.00000
vn 0.00000 1.00000 0.00000
vn 0.00000 1.00000 0.00000
vn 0.00000 1.00000 0.00000
vn 0.00000 1.00000 0.00000
vn 0.00000 1.00000 0.00000
vn 0.00000 1.00000 0.00000
vn 0.00000 1.00000 0.00000
vn 0.00000 1.00000 0.00000
vn 0.00000 1.00000 0.00000
vn 0.00000 1.00000 0.00000
vn 0.00000 1.00000 0.00000
vn 0.00000 1.00000 0.00000
vn 0.00000 1.00000 0.00000
vn 0.00000 1.00000 0.00000
vn 0.00000 1.00000 0.00000
vn 0.00000 1.00000 0.00000
vn 0.00000 1.00000 0.00000
vn 0.00000 1.00000 0.00000
vn 0.00000 1.00000 0.00000
vn 0.00000 1.00000 0.00000
vn 0.00000 1.00000 0.00000
vn 0.00000 1.00000 0.00000
vn 0.00000 1.00000 0.00000
vn 0.00000 1.00000 0.00000
vn 0.00000 1.00000 0.00000
vn 0.00000 1.00000 0.00000
vn 0.00000 1.00000 0.00000
vn 0.00000 1.00000 0.00000
vn 0.00000 1.00000 0.00000
vn 0.00000 1.00000 0.00000
vn 0.00000 1.00000 0.00000
vn 0.00000 1.00000 0.00000
vn 0.00000 1.00000 0.00000
vn 0.00000 1.00000 0.00000
vn 0.00000 1.00000 0.00000
vn 0.00000 1.00000 0.00000
vn 0.00000 1.00000 0.00000
vn 0.00000 1.00000 0.00000
vn 0.00000 1.00000 0.00000
vn 0.00000 1.00000 0.00000
vn 0.00000 1.00000 0.00000
vn 0.00000 1.00000 0.00000
vn 0.00000 1.00000 0.00000
vn 0.00000 1.00000 0.00000
vn 0.00000 1.00000 0.00000
vn 0.00000 1.00000 0.00000
vn 0.00000 1.00000 0.00000
vn 0.00000 1.00000 0.00000
vn 0.00000 1.00000 0.00000
vn 0.00000 1.00000 0.00000
vn 0.00000 1.00000 0.00000
vn 0.00000 1.00000 0.00000
vn -0.00000 -1.00000 -0.00000
vn -0.00000 -1.00000 -0.00000
vn -0.00000 -1.00000 -0.00000
vn -0.00000 -1.00000 -0.00000
vn -0.00000 -1.00000 -0.00000
vn -0.00000 -1.00000 -0.00000
vn -0.00000 -1.00000 -0.00000
vn -0.00000 -1.00000 -0.00000
vn -0.00000 -1.00000 -0.00000
vn -0.00000 -1.00000 -0.00000
vn -0.00000 -1.00000 -0.00000
vn -0.00000 -1.00000 -0.00000
vn -0.00000 -1.00000 -0.00000
vn -0.00000 -1.00000 -0.00000
vn -0.00000 -1.00000 -0.00000
vn -0.00000 -1.00000 -0.00000
vn -0.00000 -1.00000 -0.00000
vn -0.00000 -1.00000 -0.00000
vn -0.00000 -1.00000 -0.00000
vn -0.00000 -1.00000 -0.00000
vn -0.00000 -1.00000 -0.00000
vn -0.00000 -1.00000 -0.00000
vn -0.00000 -1.00000 -0.00000
vn -0.00000 -1.00000 -0.00000
vn -0.00000 -1.00000 -0.00000
vn -0.00000 -1.00000 -0.00000
vn -0.00000 -1.00000 -0.00000
vn -0.00000 -1.00000 -0.00000
vn -0.00000 -1.00000 -0.00000
vn -0.00000 -1.00000 -0.00000
vn -0.00000 -1.00000 -0.00000
vn -0.00000 -1.00000 -0.00000
vn -0.00000 -1.00000 -0.00000
vn -0.00000 -1.00000 -0.00000
vn -0.00000 -1.00000 -0.00000
vn -0.00000 -1.00000 -0.00000
vn -0.00000 -1.00000 -0.00000
vn -0.00000 -1.00000 -0.00000
vn -0.00000 -1.00000 -0.00000
vn -0.00000 -1.00000 -0.00000
vn -0.00000 -1.00000 -0.00000
vn -0.00000 -1.00000 -0.00000
vn -0.00000 -1.00000 -0.00000
vn -0.00000 -1.00000 -0.00000
vn -0.00000 -1.00000 -0.00000
vn -0.00000 -1.00000 -0.00000
vn -0.00000 -1.00000 -0.00000
vn -0.00000 -1.00000 -0.00000
vn -0.00000 -1.00000 -0.00000
vn -0.00000 -1.00000 -0.00000
vn -0.00000 -1.00000 -0.00000
vn -0.00000 -1.00000 -0.00000
vn -0.00000 -1.00000 -0.00000
vn -0.00000 -1.00000 -0.00000
vn -0.00000 -1.00000 -0.00000
vn -0.00000 -1.00000 -0.00000
vn -0.00000 -1.00000 -0.00000
vn -0.00000 -1.00000 -0.00000
vn -0.00000 -1.00000 -0.00000
vn -0.00000 -1.00000 -0.00000
vn -0.00000 -1.00000 -0.00000
vn -0.00000 -1.00000 -0.00000
vn -0.00000 -1.00000 -0.00000
vn -0.00000 -1.00000 -0.00000
vn -0.00000 -1.00000 -0.00000
vn -0.00000 -1.00000 -0.00000
vn -0.00000 -1.00000 -0.00000
vn -0.00000 -1.00000 -0.00000
vn -0.00000 -1.00000 -0.00000
vn -0.00000 -1.00000 -0.00000
vn -0.00000 -1.00000 -0.00000
vn -0.00000 -1.00000 -0.00000
vn -0.00000 -1.00000 -0.00000
vn -0.00000 -1.00000 -0.00000
vn -0.00000 -1.00000 -0.00000
vn -0.00000 -1.00000 -0.00000
vn -0.00000 -1.00000 -0.00000
vn -0.00000 -1.00000 -0.00000
vn -0.00000 -1.00000 -0.00000
vn -0.00000 -1.00000 -0.00000
vn -0.00000 -1.00000 -0.00000
vn -0.00000 -1.00000 -0.00000
vn -0.00000 -1.00000 -0.00000
vn -0.00000 -1.00000 -0.00000
vn -0.00000 -1.00000 -0.00000
vn -0.00000 -1.00000 -0.00000
vn -0.00000 -1.00000 -0.00000
vn -0.00000 -1.00000 -0.00000
vn -0.00000 -1.00000 -0.00000
vn -0.00000 -1.00000 -0.00000
vn -0.00000 -1.00000 -0.00000
vn -0.00000 -1.00000 -0.00000
vn -0.00000 -1.00000 -0.00000
vn -0.00000 -1.00000 -0.00000
vn -0.00000 -1.00000 -0.00000
vn -0.00000 -1.00000 -0.00000
vn -0.00000 -1.00000 -0.00000
vn -0.00000 -1.00000 -0.00000
vn -0.00000 -1.00000 -0.00000
vn -0.00000 -1.00000 -0.00000
vn -0.00000 -1.00000 -0.00000
vn -0.00000 -1.00000 -0.00000
vn -0.00000 -1.00000 -0.00000
vn -0.00000 -1.00000 -0.00000
vn -0.00000 -1.00000 -0.00000
vn -0.00000 -1.00000 -0.00000
vn -0.00000 -1.00000 -0.00000
vn -0.00000 -1.00000 -0.00000
vn -0.00000 -1.00000 -0.00000
vn -0.00000 -1.00000 -0.00000
vn -0.00000 -1.00000 -0.00000
vn -0.00000 -1.00000 -0.00000
vn -0.00000 -1.00000 -0.00000
vn -0.00000 -1.00000 -0.00000
vn -0.00000 -1.00000 -0.00000
vn -0.00000 -1.00000 -0.00000
vn -0.00000 -1.00000 -0.00000
vn -0.00000 -1.00000 -0.00000
vn -0.00000 -1.00000 -0.00000
vn -0.00000 -1.00000 -0.00000
vn -0.00000 -1.00000 -0.00000
vn -0.00000 -1.00000 -0.00000
vn -0.00000 -1.00000 -0.00000
vn -0.00000 -1.00000 -0.00000
vn -0.00000 -1.00000 -0.00000
vn -0.00000 -1.00000 -0.00000
vn -0.00000 -1.00000 -0.00000
vn -0.00000 -1.00000 -0.00000
vn -0.00000 -1.00000 -0.00000
vn -0.00000 -1.00000 -0.00000
vn -0.00000 -1.00000 -0.00000
vn -0.00000 -1.00000 -0.00000
vn -0.00000 -1.00000 -0.00000
vn -0.00000 -1.00000 -0.00000
vn -0.00000 -1.00000 -0.00000
vn -0.00000 -1.00000 -0.00000
vn -0.00000 -1.00000 -0.00000
vn -0.00000 -1.00000 -0.00000
vn -0.00000 -1.00000 -0.00000
vn -0.00000 -1.00000 -0.00000
vn -0.00000 -1.00000 -0.00000
vn -0.00000 -1.00000 -0.00000
vn -0.00000 -1.00000 -0.00000
vn -0.00000 -1.00000 -0.00000
vn -0.00000 -1.00000 -0.00000
vn -0.00000 -1.00000 -0.00000
vn -0.00000 -1.00000 -0.00000
vn -0.00000 -1.00000 -0.00000
vn -0.00000 -1.00000 -0.00000
vn -0.00000 -1.00000 -0.00000
vn -0.00000 -1.00000 -0.00000
vn -0.00000 -1.00000 -0.00000
vn -0.00000 -1.00000 -0.00000
vn -0.00000 -1.00000 -0.00000
vn -0.00000 -1.00000 -0.00000
vn -0.00000 -1.00000 -0.00000
vn -0.00000 -1.00000 -0.00000
vn -0.00000 -1.00000 -0.00000
vn -0.00000 -1.00000 -0.00000
vn -0.00000 -1.00000 -0.00000
vn -0.00000 -1.00000 -0.00000
vn -0.00000 -1.00000 -0.00000
vn -0.00000 -1.00000 -0.00000
vn -0.00000 -1.00000 -0.00000
vn -0.00000 -1.00000 -0.00000
vn -0.00000 -1.00000 -0.00000
vn -0.00000 -1.00000 -0.00000
vn -0.00000 -1.00000 -0.00000
vn -0.00000 -1.00000 -0.00000
vn -0.00000 -1.00000 -0.00000
vn -0.00000 -1.00000 -0.00000
vn -0.00000 -1.00000 -0.00000
vn -0.00000 -1.00000 -0.00000
vn -0.00000 -1.00000 -0.00000
vn -0.00000 -1.00000 -0.00000
vn -0.00000 -1.00000 -0.00000
vn -0.00000 -1.00000 -0.00000
vn -0.00000 -1.00000 -0.00000
vn -0.00000 -1.00000 -0.00000
vn -0.00000 -1.00000 -0.00000
vn -0.00000 -1.00000 -0.00000
vn -0.00000 -1.00000 -0.00000
vn -0.00000 -1.00000 -0.00000
vn -0.00000 -1.00000 -0.00000
vn -0.00000 -1.00000 -0.00000
vn -0.00000 -1.00000 -0.00000
vn -0.00000 -1.00000 -0.00000
vn -0.00000 -1.00000 -0.00000
vn -0.00000 -1.00000 -0.00000
vn -0.00000 -1.00000 -0.00000
vn -0.00000 -1.00000 -0.00000
vn -0.00000 -1.00000 -0.00000
vn -0.00000 -1.00000 -0.00000
vn -0.00000 -1.00000 -0.00000
vn -0.00000 -1.00000 -0.00000
vn -0.00000 -1.00000 -0.00000
vn -0.00000 -1.00000 -0.00000
vn -0.00000 -1.00000 -0.00000
vn -0.00000 -1.00000 -0.00000
vn -0.00000 -1.00000 -0.00000
vn -0.00000 -1.00000 -0.00000
vn -0.00000 -1.00000 -0.00000
vn -0.00000 -1.00000 -0.00000
vn -0.00000 -1.00000 -0.00000
vn -0.00000 -1.00000 -0.00000
vn -0.00000 -1.00000 -0.00000
vn -0.00000 -1.00000 -0.00000
vn -0.00000 -1.00000 -0.00000
vn -0.00000 -1.00000 -0.00000
vn -0.00000 -1.00000 -0.00000
vn -0.00000 -1.00000 -0.00000
vn -0.00000 -1.00000 -0.00000
vn -0.00000 -1.00000 -0.00000
vn -0.00000 -1.00000 -0.00000
vn -0.00000 -1.00000 -0.00000
vn -0.00000 -1.00000 -0.00000
vn -0.00000 -1.00000 -0.00000
vn -0.00000 -1.00000 -0.00000
vn -0.00000 -1.00000 -0.00000
vn -0.00000 -1.00000 -0.00000
vn -0.00000 -1.00000 -0.00000
vn -0.00000 -1.00000 -0.00000
vn -0.00000 -1.00000 -0.00000
vn -0.00000 -1.00000 -0.00000
vn -0.00000 -1.00000 -0.00000
vn -0.00000 -1.00000 -0.00000
vn -0.00000 -1.00000 -0.00000
vn -0.00000 -1.00000 -0.00000
vn -0.00000 -1.00000 -0.00000
vn -0.00000 -1.00000 -0.00000
vn -0.00000 -1.00000 -0.00000
vn -0.00000 -1.00000 -0.00000
vn -0.00000 -1.00000 -0.00000
vn -0.00000 -1.00000 -0.00000
vn -0.00000 -1.00000 -0.00000
vn -0.00000 -1.00000 -0.00000
vn -0.00000 -1.00000 -0.00000
vn -0.00000 -1.00000 -0.00000
vn -0.00000 -1.00000 -0.00000
vn -0.00000 -1.00000 -0.00000
vn -0.00000 -1.00000 -0.00000
vn -0.00000 -1.00000 -0.00000
vn -0.00000 -1.00000 -0.00000
vn -0.00000 -1.00000 -0.00000
vn -0.00000 -1.00000 -0.00000
f 1/1/1 2/2/2 51/51/51
f 1/1/1 51/51/51 50/50/50
f 2/2/2 3/3/3 52/52/52
f 2/2/2 52/52/52 51/51/51
f 3/3/3 4/4/4 53/53/53
f 3/3/3 53/53/53 52/52/52
f 4/4/4 5/5/5 54/54/54
f 4/4/4 54/54/54 53/53/53
f 5/5/5 6/6/6 55/55/55
f 5/5/5 55/55/55 54/54/54
f 6/6/6 7/7/7 56/56/56
f 6/6/6 56/56/56 55/55/55
f 7/7/7 8/8/8 57/57/57
f 7/7/7 57/57/57 56/56/56
f 8/8/8 9/9/9 58/58/58
f 8/8/8 58/58/58 57/57/57
f 9/9/9 10/10/10 59/59/59
f 9/9/9 59/59/59 58/58/58
f 10/10/10 11/11/11 60/60/60
f 10/10/10 60/60/60 59/59/59
f 11/11/11 12/12/12 61/61/61
f 11/11/11 61/61/61 60/60/60
f 12/12/12 13/13/13 62/62/62
f 12/12/12 62/62/62 61/61/61
f 13/13/13 14/14/14 63/63/63
f 13/13/13 63/63/63 62/62/62
f 14/14/14 15/15/15 64/64/64
f 14/14/14 64/64/64 63/63/63
f 15/15/15 16/16/16 65/65/65
f 15/15/15 65/65/65 64/64/64
f 16/16/16 17/17/17 66/66/66
f 16/16/16 66/66/66 65/65/65
f 17/17/17 18/18/18 67/67/67
f 17/17/17 67/67/67 66/66/66
f 18/18/18 19/19/19 68/68/68
f 18/18/18 68/68/68 67/67/67
f 19/19/19 20/20/20 69/69/69
f 19/19/19 69/69/69 68/68/68
f 20/20/20 21/21/21 70/70/70
f 20/20/20 70/70/70 69/69/69
f 21/21/21 22/22/22 71/71/71
f 21/21/21 71/71/71 70/70/70
f 22/22/22 23/23/23 72/72/72
f 22/22/22 72/72/72 71/71/71
f 23/23/23 24/24/24 73/73/73
f 23/23/23 73/73/73 72/72/72
f 24/24/24 25/25/25 74/74/74
f 24/24/24 74/74/74 73/73/73
f 25/25/25 26/26/26 75/75/75
f 25/25/25 75/75/75 74/74/74
f 26/26/26 27/27/27 76/76/76
f 26/26/26 76/76/76 75/75/75
f 27/27/27 28/28/28 77/77/77
f 27/27/27 77/77/77 76/76/76
f 28/28/28 29/29/29 78/78/78
f 28/28/28 78/78/78 77/77/77
f 29/29/29 30/30/30 79/79/79
f 29/29/29 79/79/79 78/78/78
f 30/30/30 31/31/31 80/80/80
f 30/30/30 80/80/80 79/79/79
f 31/31/31 32/32/32 81/81/81
f 31/31/31 81/81/81 80/80/80
f 32/32/32 33/33/33 82/82/82
f 32/32/32 82/82/82 81/81/81
f 33/33/33 34/34/34 83/83/83
f 33/33/33 83/83/83 82/82/82
f 34/34/34 35/35/35 84/84/84
f 34/34/34 84/84/84 83/83/83
f 35/35/35 36/36/36 85/85/85
f 35/35/35 85/85/85 84/84/84
f 36/36/36 37/37/37 86/86/86
f 36/36/36 86/86/86 85/85/85
f 37/37/37 38/38/38 87/87/87
f 37/37/37 87/87/87 86/86/86
f 38/38/38 39/39/39 88/88/88
f 38/38/38 88/88/88 87/87/87
f 39/39/39 40/40/40 89/89/89
f 39/39/39 89/89/89 88/88/88
f 40/40/40 41/41/41 90/90/90
f 40/40/40 90/90/90 89/89/89
f 41/41/41 42/42/42 91/91/91
f 41/41/41 91/91/91 90/90/90
f 42/42/42 43/43/43 92/92/92
f 42/42/42 92/92/92 91/91/91
f 43/43/43 44/44/44 93/93/93
f 43/43/43 93/93/93 92/92/92
f 44/44/44 45/45/45 94/94/94
f 44/44/44 94/94/94 93/93/93
f 45/45/45 46/46/46 95/95/95
f 45/45/45 95/95/95 94/94/94
f 46/46/46 47/47/47 96/96/96
f 46/46/46 96/96/96 95/95/95
f 47/47/47 48/48/48 97/97/97
f 47/47/47 97/97/97 96/96/96
f 48/48/48 49/49/49 98/98/98
f 48/48/48 98/98/98 97/97/97
f 50/50/50 51/51/51 100/100/100
f 50/50/50 100/100/100 99/99/99
f 51/51/51 52/52/52 101/101/101
f 51/51/51 101/101/101 100/100/100
f 52/52/52 53/53/53 102/102/102
f 52/52/52 102/102/102 101/101/101
f 53/53/53 54/54/54 103/103/103
f 53/53/53 103/103/103 102/102/102
f 54/54/54 55/55/55 104/104/104
f 54/54/54 104/104/104 103/103/103
f 55/55/55 56/56/56 105/105/105
f 55/55/55 105/105/105 104/104/104
f 56/56/56 57/57/57 106/106/106
f 56/56/56 106/106/106 105/105/105
f 57/57/57 58/58/58 107/107/107
f 57/57/57 107/107/107 106/106/106
f 58/58/58 59/59/59 108/108/108
f 58/58/58 108/108/108 107/107/107
f 59/59/59 60/60/60 109/109/109
f 59/59/59 109/109/109 108/108/108
f 60/60/60 61/61/61 110/110/110
f 60/60/60 110/110/110 109/109/109
f 61/61/61 62/62/62 111/111/111
f 61/61/61 111/111/111 110/110/110
f 62/62/62 63/63/63 112/112/112
f 62/62/62 112/112/112 111/111/111
f 63/63/63 64/64/64 113/113/113
f 63/63/63 113/113/113 112/112/112
f 64/64/64 65/65/65 114/114/114
f 64/64/64 114/114/114 113/113/113
f 65/65/65 66/66/66 115/115/115
f 65/65/65 115/115/115 114/114/114
f 66/66/66 67/67/67 116/116/116
f 66/66/66 116/116/116 115/115/115
f 67/67/67 68/68/68 117/117/117
f 67/67/67 117/117/117 116/116/116
f 68/68/68 69/69/69 118/118/118
f 68/68/68 118/118/118 117/117/117
f 69/69/69 70/70/70 119/119/119
f 69/69/69 119/119/119 118/118/118
f 70/70/70 71/71/71 120/120/120
f 70/70/70 120/120/120 119/119/119
f 71/71/71 72/72/72 121/121/121
f 71/71/71 121/121/121 120/120/120
f 72/72/72 73/73/73 122/122/122
f 72/72/72 122/122/122 121/121/121
f 73/73/73 74/74/74 123/123/123
f 73/73/73 123/123/123 122/122/122
f 74/74/74 75/75/75 124/124/124
f 74/74/74 124/124/124 123/123/123
f 75/75/75 76/76/76 125/125/125
f 75/75/75 125/125/125 124/124/124
f 76/76/76 77/77/77 126/126/126
f 76/76/76 126/126/126 125/125/125
f 77/77/77 78/78/78 127/127/127
f 77/77/77 127/127/127 126/126/126
f 78/78/78 79/79/79 128/128/128
f 78/78/78 128/128/128 127/127/127
f 79/79/79 80/80/80 129/129/129
f 79/79/79 129/129/129 128/128/128
f 80/80/80 81/81/81 130/130/130
f 80/80/80 130/130/130 129/129/129
f 81/81/81 82/82/82 131/131/131
f 81/81/81 131/131/131 130/130/130
f 82/82/82 83/83/83 132/132/132
f 82/82/82 132/132/132 131/131/131
f 83/83/83 84/84/84 133/133/133
f 83/83/83 133/133/133 132/132/132
f 84/84/84 85/85/85 134/134/134
f 84/84/84 134/134/134 133/133/133
f 85/85/85 86/86/86 135/135/135
f 85/85/85 135/135/135 134/134/134
f 86/86/86 87/87/87 136/136/136
f 86/86/86 136/136/136 135/135/135
f 87/87/87 88/88/88 137/137/137
f 87/87/87 137/137/137 136/136/136
f 88/88/88 89/89/89 138/138/138
f 88/88/88 138/138/138 137/137/137
f 89/89/89 90/90/90 139/139/139
f 89/89/89 139/139/139 138/138/138
f 90/90/90 91/91/91 140/140/140
f 90/90/90 140/140/140 139/139/139
f 91/91/91 92/92/92 141/141/141
f 91/91/91 141/141/141 140/140/140
f 92/92/92 93/93/93 142/142/142
f 92/92/92 142/142/142 141/141/141
f 93/93/93 94/94/94 143/143/143
f 93/93/93 143/143/143 142/142/142
f 94/94/94 95/95/95 144/144/144
f 94/94/94 144/144/144 143/143/143
f 95/95/95 96/96/96 145/145/145
f 95/95/95 145/145/145 144/144/144
f 96/96/96 97/97/97 146/146/146
f 96/96/96 146/146/146 145/145/145
f 97/97/97 98/98/98 147/147/147
f 97/97/97 147/147/147 146/146/146
f 99/99/99 100/100/100 149/149/149
f 99/99/99 149/149/149 148/148/148
f 100/100/100 101/101/101 150/150/150
f 100/100/100 150/150/150 149/149/149
f 101/101/101 102/102/102 151/151/151
f 101/101/101 151/151/151 150/150/150
f 102/102/102 103/103/103 152/152/152
f 102/102/102 152/152/152 151/151/151
f 103/103/103 104/104/104 153/153/153
f 103/103/103 153/153/153 152/152/152
f 104/104/104 105/105/105 154/154/154
f 104/104/104 154/154/154 153/153/153
f 105/105/105 106/106/106 155/155/155
f 105/105/105 155/155/155 154/154/154
f 106/106/106 107/107/107 156/156/156
f 106/106/106 156/156/156 155/155/155
f 107/107/107 108/108/108 157/157/157
f 107/107/107 157/157/157 156/156/156
f 108/108/108 109/109/109 158/158/158
f 108/108/108 158/158/158 157/157/157
f 109/109/109 110/110/110 159/159/159
f 109/109/109 159/159/159 158/158/158
f 110/110/110 111/111/111 160/160/160
f 110/110/110 160/160/160 159/159/159
f 111/111/111 112/112/112 161/161/161
f 111/111/111 161/161/161 160/160/160
f 112/112/112 113/113/113 162/162/162
f 112/112/112 162/162/162 161/161/161
f 113/113/113 114/114/114 163/163/163
f 113/113/113 163/163/163 162/162/162
f 114/114/114 115/115/115 164/164/164
f 114/114/114 164/164/164 163/163/163
f 115/115/115 116/116/116 165/165/165
f 115/115/115 165/165/165 164/164/164
f 116/116/116 117/117/117 166/166/166
f 116/116/116 166/166/166 165/165/165
f 117/117/117 118/118/118 167/167/167
f 117/117/117 167/167/167 166/166/166
f 118/118/118 119/119/119 168/168/168
f 118/118/118 168/168/168 167/167/167
f 119/119/119 120/120/120 169/169/169
f 119/119/119 169/169/169 168/168/168
f 120/120/120 121/121/121 170/170/170
f 120/120/120 170/170/170 169/169/169
f 121/121/121 122/122/122 171/171/171
f 121/121/121 171/171/171 170/170/170
f 122/122/122 123/123/123 172/172/172
f 122/122/122 172/172/172 171/171/171
f 123/123/123 124/124/124 173/173/173
f 123/123/123 173/173/173 172/172/172
f 124/124/124 125/125/125 174/174/174
f 124/124/124 174/174/174 173/173/173
f 125/125/125 126/126/126 175/175/175
f 125/125/125 175/175/175 174/174/174
f 126/126/126 127/127/127 176/176/176
f 126/126/126 176/176/176 175/175/175
f 127/127/127 128/128/128 177/177/177
f 127/127/127 177/177/177 176/176/176
f 128/128/128 129/129/129 178/178/178
f 128/128/128 178/178/178 177/177/177
f 129/129/129 130/130/130 179/179/179
f 129/129/129 179/179/179 178/178/178
f 130/130/130 131/131/131 180/180/180
f 130/130/130 180/180/180 179/179/179
f 131/131/131 132/132/132 181/181/181
f 131/131/131 181/181/181 180/180/180
f 132/132/132 133/133/133 182/182/182
f 132/132/132 182/182/182 181/181/181
f 133/133/133 134/134/134 183/183/183
f 133/133/133 183/183/183 182/182/182
f 134/134/134 135/135/135 184/184/184
f 134/134/134 184/184/184 183/183/183
f 135/135/135 136/136/136 185/185/185
f 135/135/135 185/185/185 184/184/184
f 136/136/136 137/137/137 186/186/186
f 136/136/136 186/186/186 185/185/185
f 137/137/137 138/138/138 187/187/187
f 137/137/137 187/187/187 186/186/186
f 138/138/138 139/139/139 188/188/188
f 138/138/138 188/188/188 187/187/187
f 139/139/139 140/140/140 189/189/189
f 139/139/139 189/189/189 188/188/188
f 140/140/140 141/141/141 190/190/190
f 140/140/140 190/190/190 189/189/189
f 141/141/141 142/142/142 191/191/191
f 141/141/141 191/191/191 190/190/190
f 142/142/142 143/143/143 192/192/192
f 142/142/142 192/192/192 191/191/191
f 143/143/143 144/144/144 193/193/193
f 143/143/143 193/193/193 192/192/192
f 144/144/144 145/145/145 194/194/194
f 144/144/144 194/194/194 193/193/193
f 145/145/145 146/146/146 195/195/195
f 145/145/145 195/195/195 194/194/194
f 146/146/146 147/147/147 196/196/196
f 146/146/146 196/196/196 195/195/195
f 148/148/148 149/149/149 198/198/198
f 148/148/148 198/198/198 197/197/197
f 149/149/149 150/150/150 199/199/199
f 149/149/149 199/199/199 198/198/198
f 150/150/150 151/151/151 200/200/200
f 150/150/150 200/200/200 199/199/199
f 151/151/151 152/152/152 201/201/201
f 151/151/151 201/201/201 200/200/200
f 152/152/152 153/153/153 202/202/202
f 152/152/152 202/202/202 201/201/201
f 153/153/153 154/154/154 203/203/203
f 153/153/153 203/203/203 202/202/202
f 154/154/154 155/155/155 204/204/204
f 154/154/154 204/204/204 203/203/203
f 155/155/155 156/156/156 205/205/205
f 155/155/155 205/205/205 204/204/204
f 156/156/156 157/157/157 206/206/206
f 156/156/156 206/206/206 205/205/205
f 157/157/157 158/158/158 207/207/207
f 157/157/157 207/207/207 206/206/206
f 158/158/158 159/159/159 208/208/208
f 158/158/158 208/208/208 207/207/207
f 159/159/159 160/160/160 209/209/209
f 159/159/159 209/209/209 208/208/208
f 160/160/160 161/161/161 210/210/210
f 160/160/160 210/210/210 209/209/209
f 161/161/161 162/162/162 211/211/211
f 161/161/161 211/211/211 210/210/210
f 162/162/162 163/163/163 212/212/212
f 162/162/162 212/212/212 211/211/211
f 163/163/163 164/164/164 213/213/213
f 163/163/163 213/213/213 212/212/212
f 164/164/164 165/165/165 214/214/214
f 164/164/164 214/214/214 213/213/213
f 165/165/165 166/166/166 215/215/215
f 165/165/165 215/215/215 214/214/214
f 166/166/166 167/167/167 216/216/216
f 166/166/166 216/216/216 215/215/215
f 167/167/167 168/168/168 217/217/217
f 167/167/167 217/217/217 216/216/216
f 168/168/168 169/169/169 218/218/218
f 168/168/168 218/218/218 217/217/217
f 169/169/169 170/170/170 219/219/219
f 169/169/169 219/219/219 218/218/218
f 170/170/170 171/171/171 220/220/220
f 170/170/170 220/220/220 219/219/219
f 171/171/171 172/172/172 221/221/221
f 171/171/171 221/221/221 220/220/220
f 172/172/172 173/173/173 222/222/222
f 172/172/172 222/222/222 221/221/221
f 173/173/173 174/174/174 223/223/223
f 173/173/173 223/223/223 222/222/222
f 174/174/174 175/175/175 224/224/224
f 174/174/174 224/224/224 223/223/223
f 175/175/175 176/176/176 225/225/225
f 175/175/175 225/225/225 224/224/224
f 176/176/176 177/177/177 226/226/226
f 176/176/176 226/226/226 225/225/225
f 177/177/177 178/178/178 227/227/227
f 177/177/177 227/227/227 226/226/226
f 178/178/178 179/179/179 228/228/228
f 178/178/178 228/228/228 227/227/227
f 179/179/179 180/180/180 229/229/229
f 179/179/179 229/229/229 228/228/228
f 180/180/180 181/181/181 230/230/230
f 180/180/180 230/230/230 229/229/229
f 181/181/181 182/182/182 231/231/231
f 181/181/181 231/231/231 230/230/230
f 182/182/182 183/183/183 232/232/232
f 182/182/182 232/232/232 231/231/231
f 183/183/183 184/184/184 233/233/233
f 183/183/183 233/233/233 232/232/232
f 184/184/184 185/185/185 234/234/234
f 184/184/184 234/234/234 233/233/233
f 185/185/185 186/186/186 235/235/235
f 185/185/185 235/235/235 234/234/234
f 186/186/186 187/187/187 236/236/236
f 186/186/186 236/236/236 235/235/235
f 187/187/187 188/188/188 237/237/237
f 187/187/187 237/237/237 236/236/236
f 188/188/188 189/189/189 238/238/238
f 188/188/188 238/238/238 237/237/237
f 189/189/189 190/190/190 239/239/239
f 189/189/189 239/239/239 238/238/238
f 190/190/190 191/191/191 240/240/240
f 190/190/190 240/240/240 239/239/239
f 191/191/191 192/192/192 241/241/241
f 191/191/191 241/241/241 240/240/240
f 192/192/192 193/193/193 242/242/242
f 192/192/192 242/242/242 241/241/241
f 193/193/193 194/194/194 243/243/243
f 193/193/193 243/243/243 242/242/242
f 194/194/194 195/195/195 244/244/244
f 194/194/194 244/244/244 243/243/243
f 195/195/195 196/196/196 245/245/245
f 195/195/195 245/245/245 244/244/244
f 246/246/246 295/295/295 296/296/296
f 246/246/246 296/296/296 247/247/247
f 247/247/247 296/296/296 297/297/297
f 247/247/247 297/297/297 248/248/248
f 248/248/248 297/297/297 298/298/298
f 248/248/248 298/298/298 249/249/249
f 249/249/249 298/298/298 299/299/299
f 249/249/249 299/299/299 250/250/250
f 250/250/250 299/299/299 300/300/300
f 250/250/250 300/300/300 251/251/251
f 251/251/251 300/300/300 301/301/301
f 251/251/251 301/301/301 252/252/252
f 252/252/252 301/301/301 302/302/302
f 252/252/252 302/302/302 253/253/253
f 253/253/253 302/302/302 303/303/303
f 253/253/253 303/303/303 254/254/254
f 254/254/254 303/303/303 304/304/304
f 254/254/254 304/304/304 255/255/255
f 255/255/255 304/304/304 305/305/305
f 255/255/255 305/305/305 256/256/256
f 256/256/256 305/305/305 306/306/306
f 256/256/256 306/306/306 257/257/257
f 257/257/257 306/306/306 307/307/307
f 257/257/257 307/307/307 258/258/258
f 258/258/258 307/307/307 308/308/308
f 258/258/258 308/308/308 259/259/259
f 259/259/259 308/308/308 309/309/309
f 259/259/259 309/309/309 260/260/260
f 260/260/260 309/309/309 310/310/310
f 260/260/260 310/310/310 261/261/261
f 261/261/261 310/310/310 311/311/311
f 261/261/261 311/311/311 262/262/262
f 262/262/262 311/311/311 312/312/312
f 262/262/262 312/312/312 263/263/263
f 263/263/263 312/312/312 313/313/313
f 263/263/263 313/313/313 264/264/264
f 264/264/264 313/313/313 314/314/314
f 264/264/264 314/314/314 265/265/265
f 265/265/265 314/314/314 315/315/315
f 265/265/265 315/315/315 266/266/266
f 266/266/266 315/315/315 316/316/316
f 266/266/266 316/316/316 267/267/267
f 267/267/267 316/316/316 317/317/317
f 267/267/267 317/317/317 268/268/268
f 268/268/268 317/317/317 318/318/318
f 268/268/268 318/318/318 269/269/269
f 269/269/269 318/318/318 319/319/319
f 269/269/269 319/319/319 270/270/270
f 270/270/270 319/319/319 320/320/320
f 270/270/270 320/320/320 271/271/271
f 271/271/271 320/320/320 321/321/321
f 271/271/271 321/321/321 272/272/272
f 272/272/272 321/321/321 322/322/322
f 272/272/272 322/322/322 273/273/273
f 273/273/273 322/322/322 323/323/323
f 273/273/273 323/323/323 274/274/274
f 274/274/274 323/323/323 324/324/324
f 274/274/274 324/324/324 275/275/275
f 275/275/275 324/324/324 325/325/325
f 275/275/275 325/325/325 276/276/276
f 276/276/276 325/325/325 326/326/326
f 276/276/276 326/326/326 277/277/277
f 277/277/277 326/326/326 327/327/327
f 277/277/277 327/327/327 278/278/278
f 278/278/278 327/327/327 328/328/328
f 278/278/278 328/328/328 279/279/279
f 279/279/279 328/328/328 329/329/329
f 279/279/279 329/329/329 280/280/280
f 280/280/280 329/329/329 330/330/330
f 280/280/280 330/330/330 281/281/281
f 281/281/281 330/330/330 331/331/331
f 281/281/281 331/331/331 282/282/282
f 282/282/282 331/331/331 332/332/332
f 282/282/282 332/332/332 283/283/283
f 283/283/283 332/332/332 333/333/333
f 283/283/283 333/333/333 284/284/284
f 284/284/284 333/333/333 334/334/334
f 284/284/284 334/334/334 285/285/285
f 285/285/285 334/334/334 335/335/335
f 285/285/285 335/335/335 286/286/286
f 286/286/286 335/335/335 336/336/336
f 286/286/286 336/336/336 287/287/287
f 287/287/287 336/336/336 337/337/337
f 287/287/287 337/337/337 288/288/288
f 288/288/288 337/337/337 338/338/338
f 288/288/288 338/338/338 289/289/289
f 289/289/289 338/338/338 339/339/339
f 289/289/289 339/339/339 290/290/290
f 290/290/290 339/339/339 340/340/340
f 290/290/290 340/340/340 291/291/291
f 291/291/291 340/340/340 341/341/341
f 291/291/291 341/341/341 292/292/292
f 292/292/292 341/341/341 342/342/342
f 292/292/292 342/342/342 293/293/293
f 293/293/293 342/342/342 343/343/343
f 293/293/293 343/343/343 294/294/294
f 295/295/295 344/344/344 345/345/345
f 295/295/295 345/345/345 296/296/296
f 296/296/296 345/345/345 346/346/346
f 296/296/296 346/346/346 297/297/297
f 297/297/297 346/346/346 347/347/347
f 297/297/297 347/347/347 298/298/298
f 298/298/298 347/347/347 348/348/348
f 298/298/298 348/348/348 299/299/299
f 299/299/299 348/348/348 349/349/349
f 299/299/299 349/349/349 300/300/300
f 300/300/300 349/349/349 350/350/350
f 300/300/300 350/350/350 301/301/301
f 301/301/301 350/350/350 351/351/351
f 301/301/301 351/351/351 302/302/302
f 302/302/302 351/351/351 352/352/352
f 302/302/302 352/352/352 303/303/303
f 303/303/303 352/352/352 353/353/353
f 303/303/303 353/353/353 304/304/304
f 304/304/304 353/353/353 354/354/354
f 304/304/304 354/354/354 305/305/305
f 305/305/305 354/354/354 355/355/355
f 305/305/305 355/355/355 306/306/306
f 306/306/306 355/355/355 356/356/356
f 306/306/306 356/356/356 307/307/307
f 307/307/307 356/356/356 357/357/357
f 307/307/307 357/357/357 308/308/308
f 308/308/308 357/357/357 358/358/358
f 308/308/308 358/358/358 309/309/309
f 309/309/309 358/358/358 359/359/359
f 309/309/309 359/359/359 310/310/310
f 310/310/310 359/359/359 360/360/360
f 310/310/310 360/360/360 311/311/311
f 311/311/311 360/360/360 361/361/361
f 311/311/311 361/361/361 312/312/312
f 312/312/312 361/361/361 362/362/362
f 312/312/312 362/362/362 313/313/313
f 313/313/313 362/362/362 363/363/363
f 313/313/313 363/363/363 314/314/314
f 314/314/314 363/363/363 364/364/364
f 314/314/314 364/364/364 315/315/315
f 315/315/315 364/364/364 365/365/365
f 315/315/315 365/365/365 316/316/316
f 316/316/316 365/365/365 366/366/366
f 316/316/316 366/366/366 317/317/317
f 317/317/317 366/366/366 367/367/367
f 317/317/317 367/367/367 318/318/318
f 318/318/318 367/367/367 368/368/368
f 318/318/318 368/368/368 319/319/319
f 319/319/319 368/368/368 369/369/369
f 319/319/319 369/369/369 320/320/320
f 320/320/320 369/369/369 370/370/370
f 320/320/320 370/370/370 321/321/321
f 321/321/321 370/370/370 371/371/371
f 321/321/321 371/371/371 322/322/322
f 322/322/322 371/371/371 372/372/372
f 322/322/322 372/372/372 323/323/323
f 323/323/323 372/372/372 373/373/373
f 323/323/323 373/373/373 324/324/324
f 324/324/324 373/373/373 374/374/374
f 324/324/324 374/374/374 325/325/325
f 325/325/325 374/374/374 375/375/375
f 325/325/325 375/375/375 326/326/326
f 326/326/326 375/375/375 376/376/376
f 326/326/326 376/376/376 327/327/327
f 327/327/327 376/376/376 377/377/377
f 327/327/327 377/377/377 328/328/328
f 328/328/328 377/377/377 378/378/378
f 328/328/328 378/378/378 329/329/329
f 329/329/329 378/378/378 379/379/379
f 329/329/329 379/379/379 330/330/330
f 330/330/330 379/379/379 380/380/380
f 330/330/330 380/380/380 331/331/331
f 331/331/331 380/380/380 381/381/381
f 331/331/331 381/381/381 332/332/332
f 332/332/332 381/381/381 382/382/382
f 332/332/332 382/382/382 333/333/333
f 333/333/333 382/382/382 383/383/383
f 333/333/333 383/383/383 334/334/334
f 334/334/334 383/383/383 384/384/384
f 334/334/334 384/384/384 335/335/335
f 335/335/335 384/384/384 385/385/385
f 335/335/335 385/385/385 336/336/336
f 336/336/336 385/385/385 386/386/386
f 336/336/336 386/386/386 337/337/337
f 337/337/337 386/386/386 387/387/387
f 337/337/337 387/387/387 338/338/338
f 338/338/338 387/387/387 388/388/388
f 338/338/338 388/388/388 339/339/339
f 339/339/339 388/388/388 389/389/389
f 339/339/339 389/389/389 340/340/340
f 340/340/340 389/389/389 390/390/390
f 340/340/340 390/390/390 341/341/341
f 341/341/341 390/390/390 391/391/391
f 341/341/341 391/391/391 342/342/342
f 342/342/342 391/391/391 392/392/392
f 342/342/342 392/392/392 343/343/343
f 344/344/344 393/393/393 394/394/394
f 344/344/344 394/394/394 345/345/345
f 345/345/345 394/394/394 395/395/395
f 345/345/345 395/395/395 346/346/346
f 346/346/346 395/395/395 396/396/396
f 346/346/346 396/396/396 347/347/347
f 347/347/347 396/396/396 397/397/397
f 347/347/347 397/397/397 348/348/348
f 348/348/348 397/397/397 398/398/398
f 348/348/348 398/398/398 349/349/349
f 349/349/349 398/398/398 399/399/399
f 349/349/349 399/399/399 350/350/350
f 350/350/350 399/399/399 400/400/400
f 350/350/350 400/400/400 351/351/351
f 351/351/351 400/400/400 401/401/401
f 351/351/351 401/401/401 352/352/352
f 352/352/352 401/401/401 402/402/402
f 352/352/352 402/402/402 353/353/353
f 353/353/353 402/402/402 403/403/403
f 353/353/353 403/403/403 354/354/354
f 354/354/354 403/403/403 404/404/404
f 354/354/354 404/404/404 355/355/355
f 355/355/355 404/404/404 405/405/405
f 355/355/355 405/405/405 356/356/356
f 356/356/356 405/405/405 406/406/406
f 356/356/356 406/406/406 357/357/357
f 357/357/357 406/406/406 407/407/407
f 357/357/357 407/407/407 358/358/358
f 358/358/358 407/407/407 408/408/408
f 358/358/358 408/408/408 359/359/359
f 359/359/359 408/408/408 409/409/409
f 359/359/359 409/409/409 360/360/360
f 360/360/360 409/409/409 410/410/410
f 360/360/360 410/410/410 361/361/361
f 361/361/361 410/410/410 411/411/411
f 361/361/361 411/411/411 362/362/362
f 362/362/362 411/411/411 412/412/412
f 362/362/362 412/412/412 363/363/363
f 363/363/363 412/412/412 413/413/413
f 363/363/363 413/413/413 364/364/364
f 364/364/364 413/413/413 414/414/414
f 364/364/364 414/414/414 365/365/365
f 365/365/365 414/414/414 415/415/415
f 365/365/365 415/415/415 366/366/366
f 366/366/366 415/415/415 416/416/416
f 366/366/366 416/416/416 367/367/367
f 367/367/367 416/416/416 417/417/417
f 367/367/367 417/417/417 368/368/368
f 368/368/368 417/417/417 418/418/418
f 368/368/368 418/418/418 369/369/369
f 369/369/369 418/418/418 419/419/419
f 369/369/369 419/419/419 370/370/370
f 370/370/370 419/419/419 420/420/420
f 370/370/370 420/420/420 371/371/371
f 371/371/371 420/420/420 421/421/421
f 371/371/371 421/421/421 372/372/372
f 372/372/372 421/421/421 422/422/422
f 372/372/372 422/422/422 373/373/373
f 373/373/373 422/422/422 423/423/423
f 373/373/373 423/423/423 374/374/374
f 374/374/374 423/423/423 424/424/424
f 374/374/374 424/424/424 375/375/375
f 375/375/375 424/424/424 425/425/425
f 375/375/375 425/425/425 376/376/376
f 376/376/376 425/425/425 426/426/426
f 376/376/376 426/426/426 377/377/377
f 377/377/377 426/426/426 427/427/427
f 377/377/377 427/427/427 378/378/378
f 378/378/378 427/427/427 428/428/428
f 378/378/378 428/428/428 379/379/379
f 379/379/379 428/428/428 429/429/429
f 379/379/379 429/429/429 380/380/380
f 380/380/380 429/429/429 430/430/430
f 380/380/380 430/430/430 381/381/381
f 381/381/381 430/430/430 431/431/431
f 381/381/381 431/431/431 382/382/382
f 382/382/382 431/431/431 432/432/432
f 382/382/382 432/432/432 383/383/383
f 383/383/383 432/432/432 433/433/433
f 383/383/383 433/433/433 384/384/384
f 384/384/384 433/433/433 434/434/434
f 384/384/384 434/434/434 385/385/385
f 385/385/385 434/434/434 435/435/435
f 385/385/385 435/435/435 386/386/386
f 386/386/386 435/435/435 436/436/436
f 386/386/386 436/436/436 387/387/387
f 387/387/387 436/436/436 437/437/437
f 387/387/387 437/437/437 388/388/388
f 388/388/388 437/437/437 438/438/438
f 388/388/388 438/438/438 389/389/389
f 389/389/389 438/438/438 439/439/439
f 389/389/389 439/439/439 390/390/390
f 390/390/390 439/439/439 440/440/440
f 390/390/390 440/440/440 391/391/391
f 391/391/391 440/440/440 441/441/441
f 391/391/391 441/441/441 392/392/392
f 393/393/393 442/442/442 443/443/443
f 393/393/393 443/443/443 394/394/394
f 394/394/394 443/443/443 444/444/444
f 394/394/394 444/444/444 395/395/395
f 395/395/395 444/444/444 445/445/445
f 395/395/395 445/445/445 396/396/396
f 396/396/396 445/445/445 446/446/446
f 396/396/396 446/446/446 397/397/397
f 397/397/397 446/446/446 447/447/447
f 397/397/397 447/447/447 398/398/398
f 398/398/398 447/447/447 448/448/448
f 398/398/398 448/448/448 399/399/399
f 399/399/399 448/448/448 449/449/449
f 399/399/399 449/449/449 400/400/400
f 400/400/400 449/449/449 450/450/450
f 400/400/400 450/450/450 401/401/401
f 401/401/401 450/450/450 451/451/451
f 401/401/401 451/451/451 402/402/402
f 402/402/402 451/451/451 452/452/452
f 402/402/402 452/452/452 403/403/403
f 403/403/403 452/452/452 453/453/453
f 403/403/403 453/453/453 404/404/404
f 404/404/404 453/453/453 454/454/454
f 404/404/404 454/454/454 405/405/405
f 405/405/405 454/454/454 455/455/455
f 405/405/405 455/455/455 406/406/406
f 406/406/406 455/455/455 456/456/456
f 406/406/406 456/456/456 407/407/407
f 407/407/407 456/456/456 457/457/457
f 407/407/407 457/457/457 408/408/408
f 408/408/408 457/457/457 458/458/458
f 408/408/408 458/458/458 409/409/409
f 409/409/409 458/458/458 459/459/459
f 409/409/409 459/459/459 410/410/410
f 410/410/410 459/459/459 460/460/460
f 410/410/410 460/460/460 411/411/411
f 411/411/411 460/460/460 461/461/461
f 411/411/411 461/461/461 412/412/412
f 412/412/412 461/461/461 462/462/462
f 412/412/412 462/462/462 413/413/413
f 413/413/413 462/462/462 463/463/463
f 413/413/413 463/463/463 414/414/414
f 414/414/414 463/463/463 464/464/464
f 414/414/414 464/464/464 415/415/415
f 415/415/415 464/464/464 465/465/465
f 415/415/415 465/465/465 416/416/416
f 416/416/416 465/465/465 466/466/466
f 416/416/416 466/466/466 417/417/417
f 417/417/417 466/466/466 467/467/467
f 417/417/417 467/467/467 418/418/418
f 418/418/418 467/467/467 468/468/468
f 418/418/418 468/468/468 419/419/419
f 419/419/419 468/468/468 469/469/469
f 419/419/419 469/469/469 420/420/420
f 420/420/420 469/469/469 470/470/470
f 420/420/420 470/470/470 421/421/421
f 421/421/421 470/470/470 471/471/471
f 421/421/421 471/471/471 422/422/422
f 422/422/422 471/471/471 472/472/472
f 422/422/422 472/472/472 423/423/423
f 423/423/423 472/472/472 473/473/473
f 423/423/423 473/473/473 424/424/424
f 424/424/424 473/473/473 474/474/474
f 424/424/424 474/474/474 425/425/425
f 425/425/425 474/474/474 475/475/475
f 425/425/425 475/475/475 426/426/426
f 426/426/426 475/475/475 476/476/476
f 426/426/426 476/476/476 427/427/427
f 427/427/427 476/476/476 477/477/477
f 427/427/427 477/477/477 428/428/428
f 428/428/428 477/477/477 478/478/478
f 428/428/428 478/478/478 429/429/429
f 429/429/429 478/478/478 479/479/479
f 429/429/429 479/479/479 430/430/430
f 430/430/430 479/479/479 480/480/480
f 430/430/430 480/480/480 431/431/431
f 431/431/431 480/480/480 481/481/481
f 431/431/431 481/481/481 432/432/432
f 432/432/432 481/481/481 482/482/482
f 432/432/432 482/482/482 433/433/433
f 433/433/433 482/482/482 483/483/483
f 433/433/433 483/483/483 434/434/434
f 434/434/434 483/483/483 484/484/484
f 434/434/434 484/484/484 435/435/435
f 435/435/435 484/484/484 485/485/485
f 435/435/435 485/485/485 436/436/436
f 436/436/436 485/485/485 486/486/486
f 436/436/436 486/486/486 437/437/437
f 437/437/437 486/486/486 487/487/487
f 437/437/437 487/487/487 438/438/438
f 438/438/438 487/487/487 488/488/488
f 438/438/438 488/488/488 439/439/439
f 439/439/439 488/488/488 489/489/489
f 439/439/439 489/489/489 440/440/440
f 440/440/440 489/489/489 490/490/490
f 440/440/440 490/490/490 441/441/441
