# Demon Slayer VFX Pack - SM_VFX_Spike_Ice (unites : cm, +X avant, +Z haut dans Unreal)
o SM_VFX_Spike_Ice
v 25.0000 0.0000 -0.0000
v 7.7254 0.0000 -23.7764
v 0.0000 160.0000 0.0000
v 7.7254 0.0000 -23.7764
v -20.2254 0.0000 -14.6946
v 0.0000 160.0000 0.0000
v -20.2254 0.0000 -14.6946
v -20.2254 0.0000 14.6946
v 0.0000 160.0000 0.0000
v -20.2254 0.0000 14.6946
v 7.7254 0.0000 23.7764
v 0.0000 160.0000 0.0000
v 7.7254 0.0000 23.7764
v 25.0000 0.0000 0.0000
v 0.0000 160.0000 0.0000
vt 0.00000 1.00000
vt 0.20000 1.00000
vt 0.10000 0.00000
vt 0.20000 1.00000
vt 0.40000 1.00000
vt 0.30000 0.00000
vt 0.40000 1.00000
vt 0.60000 1.00000
vt 0.50000 0.00000
vt 0.60000 1.00000
vt 0.80000 1.00000
vt 0.70000 0.00000
vt 0.80000 1.00000
vt 1.00000 1.00000
vt 0.90000 0.00000
vn 0.79932 0.15438 -0.58074
vn 0.79932 0.15438 -0.58074
vn 0.79932 0.15438 -0.58074
vn -0.30531 0.15438 -0.93966
vn -0.30531 0.15438 -0.93966
vn -0.30531 0.15438 -0.93966
vn -0.98801 0.15438 -0.00000
vn -0.98801 0.15438 -0.00000
vn -0.98801 0.15438 -0.00000
vn -0.30531 0.15438 0.93966
vn -0.30531 0.15438 0.93966
vn -0.30531 0.15438 0.93966
vn 0.79932 0.15438 0.58074
vn 0.79932 0.15438 0.58074
vn 0.79932 0.15438 0.58074
f 1/1/1 2/2/2 3/3/3
f 4/4/4 5/5/5 6/6/6
f 7/7/7 8/8/8 9/9/9
f 10/10/10 11/11/11 12/12/12
f 13/13/13 14/14/14 15/15/15
